M48
;Layer_Color=9474304
;FILE_FORMAT=4:4
METRIC,LZ
;TYPE=PLATED
T1F00S00C0.7112
T2F00S00C0.9000
T3F00S00C1.0000
T4F00S00C1.1000
T5F00S00C2.3900
T6F00S00C3.1500
T7F00S00C3.1700
T8F00S00C3.4500
T9F00S00C3.5400
%
T01
X00305Y01088
X00616Y01203
X00367552Y01621448
X00393035Y01873621
X0045976Y01826913
X00399Y01742
X00418Y01665
X00431517Y01648532
X00456Y01628
X00491Y01646
X00486Y01673747
X0050632Y0167032
X0053Y01712
X00613147Y01652016
X00612514Y01802429
X0061416Y01819216
X00598Y01791
X00671081Y01800331
X00666001Y01819216
X00594327Y01948953
X00626Y02047
X00586Y0216
X0048556Y02166641
X00459966Y02160689
X00452816Y02107184
X00486Y02126
X00500679Y02077509
X00475979Y02053
X00462089Y0200011
X00407627Y02014991
X00357Y02009
X00373095Y02120845
X0039627Y02099213
X00377Y0217692
X0035Y02172
X0036889Y02214
T02
X00306Y01767
Y01787
Y01807
Y01827
Y01847
Y01867
Y01887
Y01907
X00311Y01959
Y01979
X0067Y01976
Y01956
Y01996
Y02016
Y02036
Y02056
Y02076
Y02096
X00678Y02186
X00692142Y02171858
X00706284Y02157716
X00663858Y02200142
X00649716Y02214284
X00635574Y02228426
X00621431Y02242569
X00607289Y02256711
X00564Y02264
X00544
X00524
X00504
X00484
X00464
X00444
X00424
X00371426Y02261426
X00357284Y02247284
X00343142Y02233142
X00329Y02219
X00314858Y02204858
X00300716Y02190716
X00286574Y02176574
X00272432Y02162431
X00311Y02099
Y02079
Y02059
Y02039
Y02019
Y01999
T03
X0063988Y01393
Y0143237
X00711
Y01393
T04
X00284Y011392
Y011646
Y0119
X00532Y011882
Y011628
Y011374
X00708Y011434
Y011688
Y01118
X00707Y01058
Y010326
Y010072
X00532Y012136
Y01239
Y012644
Y012898
Y013152
Y013406
Y01366
Y013914
Y014168
Y014422
Y014676
Y01493
Y015184
Y015438
Y015692
X00284Y01571
Y015456
Y015202
Y014948
Y014694
Y01444
Y014186
Y013932
Y013678
Y013424
Y01317
Y012916
Y012662
Y012408
Y012154
Y015964
Y016218
X00532Y0162
Y015946
T05
X0028342Y0032465
T06
X00278Y00273
X00715
X00714Y00685
X00716Y02287
X00273
T07
X0045847Y0040685
Y0095885
T08
X0063352Y0040685
T09
X0028342Y0095885
M30
