G04*
G04 #@! TF.GenerationSoftware,Altium Limited,Altium Designer,22.11.1 (43)*
G04*
G04 Layer_Color=65535*
%FSLAX44Y44*%
%MOMM*%
G71*
G04*
G04 #@! TF.SameCoordinates,B6AE56F5-1224-44F4-9462-935C271CF011*
G04*
G04*
G04 #@! TF.FilePolarity,Positive*
G04*
G01*
G75*
%ADD10C,0.5000*%
%ADD11C,0.2500*%
%ADD12C,0.2000*%
%ADD13C,0.2540*%
%ADD14C,0.1524*%
D10*
X365150Y1132840D02*
G03*
X365150Y1132840I-2250J0D01*
G01*
D11*
X697250Y1078100D02*
G03*
X697250Y1078100I-1250J0D01*
G01*
X698250Y1188900D02*
G03*
X698250Y1188900I-1250J0D01*
G01*
X641750Y2070950D02*
G03*
X641750Y2070950I-1250J0D01*
G01*
X601750Y2179950D02*
G03*
X601750Y2179950I-1250J0D01*
G01*
X379300Y2161500D02*
G03*
X379300Y2161500I-1250J0D01*
G01*
X446650Y2221339D02*
G03*
X446650Y2221339I-1250J0D01*
G01*
X342750Y1990050D02*
G03*
X342750Y1990050I-1250J0D01*
G01*
X259570Y974850D02*
Y1068150D01*
X657370Y297550D02*
Y390850D01*
X259570Y297550D02*
X327470D01*
X589470D02*
X657370D01*
X259570Y1068150D02*
X327470D01*
X589470D02*
X657370D01*
X397780D02*
X519160D01*
X397780Y297550D02*
X519160D01*
X259570D02*
Y942850D01*
X657370Y422850D02*
Y1068150D01*
D12*
X670000Y2116000D02*
X729500D01*
Y1933000D02*
Y2116000D01*
X653500Y1933000D02*
X729500D01*
X270550Y1125000D02*
X297450D01*
Y1636000D01*
X270550D02*
X297450D01*
X270550Y1125000D02*
Y1636000D01*
X518550Y1634200D02*
X545450D01*
X518550Y1123200D02*
Y1634200D01*
Y1123200D02*
X545450D01*
Y1634200D01*
X498781Y2180110D02*
Y2213172D01*
X475219Y2180110D02*
Y2213172D01*
X542469Y2094515D02*
Y2103485D01*
X561531Y2094515D02*
Y2103485D01*
X534781Y2071110D02*
Y2104172D01*
X511219Y2071110D02*
Y2104172D01*
X504469Y2197515D02*
Y2206485D01*
X523531Y2197515D02*
Y2206485D01*
X345110Y2054781D02*
X378172D01*
X345110Y2031219D02*
X378172D01*
X406469Y2114781D02*
X439531D01*
X406469Y2091219D02*
X439531D01*
X354523Y2064469D02*
X363493D01*
X354523Y2083531D02*
X363493D01*
X411515Y2122469D02*
X420485D01*
X411515Y2141531D02*
X420485D01*
X449219Y1958469D02*
Y1991531D01*
X472781Y1958469D02*
Y1991531D01*
X441531Y1957515D02*
Y1966485D01*
X422469Y1957515D02*
Y1966485D01*
X710881Y2129785D02*
X764621Y2183525D01*
X635220Y2312926D02*
X764621Y2183525D01*
X593147Y2270853D02*
X635220Y2312926D01*
X587000Y2247500D02*
Y2323500D01*
X404000D02*
X587000D01*
X404000Y2264000D02*
Y2323500D01*
X345617Y2319763D02*
X399357Y2266023D01*
X216217Y2190362D02*
X345617Y2319763D01*
X216217Y2190362D02*
X258289Y2148289D01*
X251500Y2122000D02*
X327500D01*
X251500Y1939000D02*
Y2122000D01*
Y1939000D02*
X311000D01*
X246500Y1930000D02*
X322500D01*
X246500Y1747000D02*
Y1930000D01*
Y1747000D02*
X306000D01*
X730500Y980600D02*
Y1084600D01*
X689500Y1084600D02*
X735500D01*
X689500Y980600D02*
Y1084600D01*
Y980600D02*
X735500D01*
Y1084600D01*
X731500Y1091400D02*
Y1195400D01*
X690500Y1195400D02*
X736500D01*
X690500Y1091400D02*
Y1195400D01*
Y1091400D02*
X736500D01*
Y1195400D01*
X610790Y2065500D02*
Y2114500D01*
X593210D02*
X610790D01*
X593210Y2065500D02*
Y2114500D01*
Y2065500D02*
X610790D01*
X570790Y2174500D02*
Y2223500D01*
X553210D02*
X570790D01*
X553210Y2174500D02*
Y2223500D01*
Y2174500D02*
X570790D01*
X334500Y2131790D02*
X383500D01*
X334500Y2114210D02*
Y2131790D01*
Y2114210D02*
X383500D01*
Y2131790D01*
X401850Y2191630D02*
X450850D01*
X401850Y2174049D02*
Y2191630D01*
Y2174049D02*
X450850D01*
Y2191630D01*
X371210Y1946500D02*
Y1995500D01*
Y1946500D02*
X388790D01*
Y1995500D01*
X371210D02*
X388790D01*
X275665Y1772331D02*
X273998Y1773997D01*
X270666D01*
X269000Y1772331D01*
Y1765666D01*
X270666Y1764000D01*
X273998D01*
X275665Y1765666D01*
Y1768998D01*
X272332D01*
X278997Y1764000D02*
Y1773997D01*
X285661Y1764000D01*
Y1773997D01*
X288994D02*
Y1764000D01*
X293992D01*
X295658Y1765666D01*
Y1772331D01*
X293992Y1773997D01*
X288994D01*
X283664Y2082331D02*
X281998Y2083997D01*
X278666D01*
X277000Y2082331D01*
Y2080665D01*
X278666Y2078998D01*
X281998D01*
X283664Y2077332D01*
Y2075666D01*
X281998Y2074000D01*
X278666D01*
X277000Y2075666D01*
X293661Y2082331D02*
X291995Y2083997D01*
X288663D01*
X286997Y2082331D01*
Y2075666D01*
X288663Y2074000D01*
X291995D01*
X293661Y2075666D01*
X296994Y2083997D02*
Y2074000D01*
Y2077332D01*
X303658Y2083997D01*
X298660Y2078998D01*
X303658Y2074000D01*
X689665Y1956997D02*
Y1947000D01*
X684666D01*
X683000Y1948666D01*
Y1951998D01*
X684666Y1953665D01*
X689665D01*
X694663Y1947000D02*
X697995D01*
X699661Y1948666D01*
Y1951998D01*
X697995Y1953665D01*
X694663D01*
X692997Y1951998D01*
Y1948666D01*
X694663Y1947000D01*
X702994Y1953665D02*
Y1948666D01*
X704660Y1947000D01*
X709658D01*
Y1953665D01*
X714657Y1955331D02*
Y1953665D01*
X712990D01*
X716323D01*
X714657D01*
Y1948666D01*
X716323Y1947000D01*
X682000Y1967000D02*
X686998D01*
X688664Y1968666D01*
X686998Y1970332D01*
X683666D01*
X682000Y1971998D01*
X683666Y1973665D01*
X688664D01*
X698661D02*
X693663D01*
X691997Y1971998D01*
Y1968666D01*
X693663Y1967000D01*
X698661D01*
X701994D02*
Y1976997D01*
Y1970332D02*
X706992Y1973665D01*
X701994Y1970332D02*
X706992Y1967000D01*
X681000Y1995331D02*
X682666Y1996997D01*
X685998D01*
X687664Y1995331D01*
Y1993665D01*
X685998Y1991998D01*
X684332D01*
X685998D01*
X687664Y1990332D01*
Y1988666D01*
X685998Y1987000D01*
X682666D01*
X681000Y1988666D01*
X690997Y1987000D02*
Y1988666D01*
X692663D01*
Y1987000D01*
X690997D01*
X699327Y1995331D02*
X700993Y1996997D01*
X704326D01*
X705992Y1995331D01*
Y1993665D01*
X704326Y1991998D01*
X702660D01*
X704326D01*
X705992Y1990332D01*
Y1988666D01*
X704326Y1987000D01*
X700993D01*
X699327Y1988666D01*
X683000Y2012332D02*
Y2018997D01*
X684666D01*
X686332Y2017331D01*
Y2012332D01*
Y2017331D01*
X687998Y2018997D01*
X689665Y2017331D01*
Y2012332D01*
X694663Y2018997D02*
X697995D01*
X699661Y2017331D01*
Y2012332D01*
X694663D01*
X692997Y2013998D01*
X694663Y2015665D01*
X699661D01*
X706326Y2009000D02*
X707992D01*
X709658Y2010666D01*
Y2018997D01*
X704660D01*
X702994Y2017331D01*
Y2013998D01*
X704660Y2012332D01*
X709658D01*
X712990D02*
X716323D01*
X714657D01*
Y2022329D01*
X712990Y2020663D01*
X684000Y2030332D02*
Y2036997D01*
X685666D01*
X687332Y2035331D01*
Y2030332D01*
Y2035331D01*
X688998Y2036997D01*
X690665Y2035331D01*
Y2030332D01*
X695663Y2036997D02*
X698995D01*
X700661Y2035331D01*
Y2030332D01*
X695663D01*
X693997Y2031998D01*
X695663Y2033665D01*
X700661D01*
X707326Y2027000D02*
X708992D01*
X710658Y2028666D01*
Y2036997D01*
X705660D01*
X703994Y2035331D01*
Y2031998D01*
X705660Y2030332D01*
X710658D01*
X720655D02*
X713990D01*
X720655Y2036997D01*
Y2038663D01*
X718989Y2040329D01*
X715657D01*
X713990Y2038663D01*
X688332Y2047000D02*
X689998D01*
X691665Y2048666D01*
Y2056997D01*
X686666D01*
X685000Y2055331D01*
Y2051998D01*
X686666Y2050332D01*
X691665D01*
X694997D02*
Y2056997D01*
X699995D01*
X701661Y2055331D01*
Y2050332D01*
X711658Y2060329D02*
Y2050332D01*
X706660D01*
X704994Y2051998D01*
Y2055331D01*
X706660Y2056997D01*
X711658D01*
X683000Y2072332D02*
Y2078997D01*
X684666D01*
X686332Y2077331D01*
Y2072332D01*
Y2077331D01*
X687998Y2078997D01*
X689665Y2077331D01*
Y2072332D01*
X692997D02*
X697995D01*
X699661Y2073998D01*
X697995Y2075665D01*
X694663D01*
X692997Y2077331D01*
X694663Y2078997D01*
X699661D01*
X702994Y2072332D02*
X706326D01*
X704660D01*
Y2078997D01*
X702994D01*
X714657Y2069000D02*
X716323D01*
X717989Y2070666D01*
Y2078997D01*
X712990D01*
X711324Y2077331D01*
Y2073998D01*
X712990Y2072332D01*
X717989D01*
X681000Y2096997D02*
Y2090332D01*
X684332Y2087000D01*
X687664Y2090332D01*
Y2096997D01*
X697661Y2095331D02*
X695995Y2096997D01*
X692663D01*
X690997Y2095331D01*
Y2088666D01*
X692663Y2087000D01*
X695995D01*
X697661Y2088666D01*
X707658Y2095331D02*
X705992Y2096997D01*
X702660D01*
X700993Y2095331D01*
Y2088666D01*
X702660Y2087000D01*
X705992D01*
X707658Y2088666D01*
X638000Y2189331D02*
X639666Y2190997D01*
X642998D01*
X644665Y2189331D01*
Y2187664D01*
X642998Y2185998D01*
X641332D01*
X642998D01*
X644665Y2184332D01*
Y2182666D01*
X642998Y2181000D01*
X639666D01*
X638000Y2182666D01*
X647997Y2181000D02*
Y2182666D01*
X649663D01*
Y2181000D01*
X647997D01*
X656327Y2189331D02*
X657994Y2190997D01*
X661326D01*
X662992Y2189331D01*
Y2187664D01*
X661326Y2185998D01*
X659660D01*
X661326D01*
X662992Y2184332D01*
Y2182666D01*
X661326Y2181000D01*
X657994D01*
X656327Y2182666D01*
X662664Y2174331D02*
X660998Y2175997D01*
X657666D01*
X656000Y2174331D01*
Y2172664D01*
X657666Y2170998D01*
X660998D01*
X662664Y2169332D01*
Y2167666D01*
X660998Y2166000D01*
X657666D01*
X656000Y2167666D01*
X672661Y2174331D02*
X670995Y2175997D01*
X667663D01*
X665997Y2174331D01*
Y2167666D01*
X667663Y2166000D01*
X670995D01*
X672661Y2167666D01*
X675993Y2175997D02*
Y2166000D01*
Y2169332D01*
X682658Y2175997D01*
X677660Y2170998D01*
X682658Y2166000D01*
X661000Y2160997D02*
Y2151000D01*
X665998D01*
X667664Y2152666D01*
Y2159331D01*
X665998Y2160997D01*
X661000D01*
X675995D02*
X672663D01*
X670997Y2159331D01*
Y2152666D01*
X672663Y2151000D01*
X675995D01*
X677661Y2152666D01*
Y2159331D01*
X675995Y2160997D01*
X680994D02*
Y2152666D01*
X682660Y2151000D01*
X685992D01*
X687658Y2152666D01*
Y2160997D01*
X690990D02*
X697655D01*
X694323D01*
Y2151000D01*
X674000Y2193000D02*
Y2202997D01*
X677332Y2199664D01*
X680665Y2202997D01*
Y2193000D01*
X683997D02*
Y2199664D01*
X687329Y2202997D01*
X690661Y2199664D01*
Y2193000D01*
Y2197998D01*
X683997D01*
X700658Y2201331D02*
X698992Y2202997D01*
X695660D01*
X693994Y2201331D01*
Y2194666D01*
X695660Y2193000D01*
X698992D01*
X700658Y2194666D01*
Y2197998D01*
X697326D01*
X703990Y2193000D02*
X707323D01*
X705657D01*
Y2202997D01*
X703990Y2201331D01*
X661000Y2209000D02*
Y2218997D01*
X664332Y2215665D01*
X667664Y2218997D01*
Y2209000D01*
X670997D02*
Y2215665D01*
X674329Y2218997D01*
X677661Y2215665D01*
Y2209000D01*
Y2213998D01*
X670997D01*
X687658Y2217331D02*
X685992Y2218997D01*
X682660D01*
X680994Y2217331D01*
Y2210666D01*
X682660Y2209000D01*
X685992D01*
X687658Y2210666D01*
Y2213998D01*
X684326D01*
X697655Y2209000D02*
X690990D01*
X697655Y2215665D01*
Y2217331D01*
X695989Y2218997D01*
X692656D01*
X690990Y2217331D01*
X654665Y2231331D02*
X652998Y2232997D01*
X649666D01*
X648000Y2231331D01*
Y2224666D01*
X649666Y2223000D01*
X652998D01*
X654665Y2224666D01*
Y2227998D01*
X651332D01*
X657997Y2223000D02*
Y2232997D01*
X664661Y2223000D01*
Y2232997D01*
X667994D02*
Y2223000D01*
X672992D01*
X674658Y2224666D01*
Y2231331D01*
X672992Y2232997D01*
X667994D01*
X635000Y2237000D02*
Y2246997D01*
X638332Y2243665D01*
X641665Y2246997D01*
Y2237000D01*
X651661Y2245331D02*
X649995Y2246997D01*
X646663D01*
X644997Y2245331D01*
Y2243665D01*
X646663Y2241998D01*
X649995D01*
X651661Y2240332D01*
Y2238666D01*
X649995Y2237000D01*
X646663D01*
X644997Y2238666D01*
X654994Y2246997D02*
X658326D01*
X656660D01*
Y2237000D01*
X654994D01*
X658326D01*
X669989Y2245331D02*
X668323Y2246997D01*
X664990D01*
X663324Y2245331D01*
Y2238666D01*
X664990Y2237000D01*
X668323D01*
X669989Y2238666D01*
Y2241998D01*
X666656D01*
X620000Y2260997D02*
Y2254332D01*
X623332Y2251000D01*
X626665Y2254332D01*
Y2260997D01*
X636661Y2259331D02*
X634995Y2260997D01*
X631663D01*
X629997Y2259331D01*
Y2252666D01*
X631663Y2251000D01*
X634995D01*
X636661Y2252666D01*
X646658Y2259331D02*
X644992Y2260997D01*
X641660D01*
X639994Y2259331D01*
Y2252666D01*
X641660Y2251000D01*
X644992D01*
X646658Y2252666D01*
X559003Y2251000D02*
X569000D01*
Y2255998D01*
X567334Y2257664D01*
X560669D01*
X559003Y2255998D01*
Y2251000D01*
Y2265995D02*
Y2262663D01*
X560669Y2260997D01*
X567334D01*
X569000Y2262663D01*
Y2265995D01*
X567334Y2267661D01*
X560669D01*
X559003Y2265995D01*
Y2270994D02*
X567334D01*
X569000Y2272660D01*
Y2275992D01*
X567334Y2277658D01*
X559003D01*
Y2280990D02*
Y2287655D01*
Y2284323D01*
X569000D01*
X540669Y2278665D02*
X539003Y2276998D01*
Y2273666D01*
X540669Y2272000D01*
X542335D01*
X544002Y2273666D01*
Y2276998D01*
X545668Y2278665D01*
X547334D01*
X549000Y2276998D01*
Y2273666D01*
X547334Y2272000D01*
X540669Y2288661D02*
X539003Y2286995D01*
Y2283663D01*
X540669Y2281997D01*
X547334D01*
X549000Y2283663D01*
Y2286995D01*
X547334Y2288661D01*
X539003Y2291994D02*
X549000D01*
X545668D01*
X539003Y2298658D01*
X544002Y2293660D01*
X549000Y2298658D01*
X519669Y2273000D02*
X518003Y2274666D01*
Y2277998D01*
X519669Y2279664D01*
X521335D01*
X523002Y2277998D01*
Y2276332D01*
Y2277998D01*
X524668Y2279664D01*
X526334D01*
X528000Y2277998D01*
Y2274666D01*
X526334Y2273000D01*
X528000Y2282997D02*
X526334D01*
Y2284663D01*
X528000D01*
Y2282997D01*
X519669Y2291327D02*
X518003Y2292994D01*
Y2296326D01*
X519669Y2297992D01*
X521335D01*
X523002Y2296326D01*
Y2294660D01*
Y2296326D01*
X524668Y2297992D01*
X526334D01*
X528000Y2296326D01*
Y2292994D01*
X526334Y2291327D01*
X508000Y2271000D02*
X498003D01*
X501335Y2274332D01*
X498003Y2277664D01*
X508000D01*
Y2280997D02*
X501335D01*
X498003Y2284329D01*
X501335Y2287661D01*
X508000D01*
X503002D01*
Y2280997D01*
X499669Y2297658D02*
X498003Y2295992D01*
Y2292660D01*
X499669Y2290994D01*
X506334D01*
X508000Y2292660D01*
Y2295992D01*
X506334Y2297658D01*
X503002D01*
Y2294326D01*
X508000Y2300990D02*
Y2304323D01*
Y2302657D01*
X498003D01*
X499669Y2300990D01*
X489000Y2270000D02*
X479003D01*
X482336Y2273332D01*
X479003Y2276664D01*
X489000D01*
Y2279997D02*
X482336D01*
X479003Y2283329D01*
X482336Y2286661D01*
X489000D01*
X484002D01*
Y2279997D01*
X480669Y2296658D02*
X479003Y2294992D01*
Y2291660D01*
X480669Y2289994D01*
X487334D01*
X489000Y2291660D01*
Y2294992D01*
X487334Y2296658D01*
X484002D01*
Y2293326D01*
X489000Y2306655D02*
Y2299990D01*
X482336Y2306655D01*
X480669D01*
X479003Y2304989D01*
Y2301656D01*
X480669Y2299990D01*
X464669Y2281664D02*
X463003Y2279998D01*
Y2276666D01*
X464669Y2275000D01*
X471334D01*
X473000Y2276666D01*
Y2279998D01*
X471334Y2281664D01*
X468002D01*
Y2278332D01*
X473000Y2284997D02*
X463003D01*
X473000Y2291661D01*
X463003D01*
Y2294994D02*
X473000D01*
Y2299992D01*
X471334Y2301658D01*
X464669D01*
X463003Y2299992D01*
Y2294994D01*
X452000Y2275000D02*
X442003D01*
X445336Y2278332D01*
X442003Y2281664D01*
X452000D01*
X443669Y2291661D02*
X442003Y2289995D01*
Y2286663D01*
X443669Y2284997D01*
X445336D01*
X447002Y2286663D01*
Y2289995D01*
X448668Y2291661D01*
X450334D01*
X452000Y2289995D01*
Y2286663D01*
X450334Y2284997D01*
X442003Y2294993D02*
Y2298326D01*
Y2296660D01*
X452000D01*
Y2294993D01*
Y2298326D01*
X443669Y2309989D02*
X442003Y2308322D01*
Y2304990D01*
X443669Y2303324D01*
X450334D01*
X452000Y2304990D01*
Y2308322D01*
X450334Y2309989D01*
X447002D01*
Y2306656D01*
X423003Y2273000D02*
X429668D01*
X433000Y2276332D01*
X429668Y2279664D01*
X423003D01*
X424669Y2289661D02*
X423003Y2287995D01*
Y2284663D01*
X424669Y2282997D01*
X431334D01*
X433000Y2284663D01*
Y2287995D01*
X431334Y2289661D01*
X424669Y2299658D02*
X423003Y2297992D01*
Y2294660D01*
X424669Y2292994D01*
X431334D01*
X433000Y2294660D01*
Y2297992D01*
X431334Y2299658D01*
X328000Y2266997D02*
Y2257000D01*
X332998D01*
X334664Y2258666D01*
Y2265331D01*
X332998Y2266997D01*
X328000D01*
X342995D02*
X339663D01*
X337997Y2265331D01*
Y2258666D01*
X339663Y2257000D01*
X342995D01*
X344661Y2258666D01*
Y2265331D01*
X342995Y2266997D01*
X347994D02*
Y2258666D01*
X349660Y2257000D01*
X352992D01*
X354658Y2258666D01*
Y2266997D01*
X357990D02*
X364655D01*
X361323D01*
Y2257000D01*
X326665Y2251331D02*
X324998Y2252997D01*
X321666D01*
X320000Y2251331D01*
Y2249664D01*
X321666Y2247998D01*
X324998D01*
X326665Y2246332D01*
Y2244666D01*
X324998Y2243000D01*
X321666D01*
X320000Y2244666D01*
X336661Y2251331D02*
X334995Y2252997D01*
X331663D01*
X329997Y2251331D01*
Y2244666D01*
X331663Y2243000D01*
X334995D01*
X336661Y2244666D01*
X339994Y2252997D02*
Y2243000D01*
Y2246332D01*
X346658Y2252997D01*
X341660Y2247998D01*
X346658Y2243000D01*
X308000Y2237331D02*
X309666Y2238997D01*
X312998D01*
X314664Y2237331D01*
Y2235665D01*
X312998Y2233998D01*
X311332D01*
X312998D01*
X314664Y2232332D01*
Y2230666D01*
X312998Y2229000D01*
X309666D01*
X308000Y2230666D01*
X317997Y2229000D02*
Y2230666D01*
X319663D01*
Y2229000D01*
X317997D01*
X326327Y2237331D02*
X327994Y2238997D01*
X331326D01*
X332992Y2237331D01*
Y2235665D01*
X331326Y2233998D01*
X329660D01*
X331326D01*
X332992Y2232332D01*
Y2230666D01*
X331326Y2229000D01*
X327994D01*
X326327Y2230666D01*
X281000Y2215000D02*
Y2224997D01*
X284332Y2221664D01*
X287665Y2224997D01*
Y2215000D01*
X290997D02*
Y2221664D01*
X294329Y2224997D01*
X297661Y2221664D01*
Y2215000D01*
Y2219998D01*
X290997D01*
X307658Y2223331D02*
X305992Y2224997D01*
X302660D01*
X300994Y2223331D01*
Y2216666D01*
X302660Y2215000D01*
X305992D01*
X307658Y2216666D01*
Y2219998D01*
X304326D01*
X310990Y2215000D02*
X314323D01*
X312656D01*
Y2224997D01*
X310990Y2223331D01*
X266000Y2201000D02*
Y2210997D01*
X269332Y2207664D01*
X272665Y2210997D01*
Y2201000D01*
X275997D02*
Y2207664D01*
X279329Y2210997D01*
X282661Y2207664D01*
Y2201000D01*
Y2205998D01*
X275997D01*
X292658Y2209331D02*
X290992Y2210997D01*
X287660D01*
X285994Y2209331D01*
Y2202666D01*
X287660Y2201000D01*
X290992D01*
X292658Y2202666D01*
Y2205998D01*
X289326D01*
X302655Y2201000D02*
X295990D01*
X302655Y2207664D01*
Y2209331D01*
X300989Y2210997D01*
X297656D01*
X295990Y2209331D01*
X317665Y2192331D02*
X315998Y2193997D01*
X312666D01*
X311000Y2192331D01*
Y2185666D01*
X312666Y2184000D01*
X315998D01*
X317665Y2185666D01*
Y2188998D01*
X314332D01*
X320997Y2184000D02*
Y2193997D01*
X327661Y2184000D01*
Y2193997D01*
X330993D02*
Y2184000D01*
X335992D01*
X337658Y2185666D01*
Y2192331D01*
X335992Y2193997D01*
X330993D01*
X299000Y2167000D02*
Y2176997D01*
X302332Y2173665D01*
X305665Y2176997D01*
Y2167000D01*
X313995Y2176997D02*
X310663D01*
X308997Y2175331D01*
Y2168666D01*
X310663Y2167000D01*
X313995D01*
X315661Y2168666D01*
Y2175331D01*
X313995Y2176997D01*
X318993D02*
X325658D01*
X322326D01*
Y2167000D01*
X333989Y2176997D02*
X330657D01*
X328990Y2175331D01*
Y2168666D01*
X330657Y2167000D01*
X333989D01*
X335655Y2168666D01*
Y2175331D01*
X333989Y2176997D01*
X338987Y2167000D02*
Y2176997D01*
X343985D01*
X345652Y2175331D01*
Y2171998D01*
X343985Y2170332D01*
X338987D01*
X342319D02*
X345652Y2167000D01*
X348984Y2175331D02*
X350650Y2176997D01*
X353982D01*
X355648Y2175331D01*
Y2173665D01*
X353982Y2171998D01*
X352316D01*
X353982D01*
X355648Y2170332D01*
Y2168666D01*
X353982Y2167000D01*
X350650D01*
X348984Y2168666D01*
X289000Y2159997D02*
Y2153332D01*
X292332Y2150000D01*
X295665Y2153332D01*
Y2159997D01*
X305661Y2158331D02*
X303995Y2159997D01*
X300663D01*
X298997Y2158331D01*
Y2151666D01*
X300663Y2150000D01*
X303995D01*
X305661Y2151666D01*
X315658Y2158331D02*
X313992Y2159997D01*
X310660D01*
X308994Y2158331D01*
Y2151666D01*
X310660Y2150000D01*
X313992D01*
X315658Y2151666D01*
X265000Y2101997D02*
Y2092000D01*
X269998D01*
X271665Y2093666D01*
Y2100331D01*
X269998Y2101997D01*
X265000D01*
X279995D02*
X276663D01*
X274997Y2100331D01*
Y2093666D01*
X276663Y2092000D01*
X279995D01*
X281661Y2093666D01*
Y2100331D01*
X279995Y2101997D01*
X284994D02*
Y2093666D01*
X286660Y2092000D01*
X289992D01*
X291658Y2093666D01*
Y2101997D01*
X294990D02*
X301655D01*
X298323D01*
Y2092000D01*
X276000Y2062331D02*
X277666Y2063997D01*
X280998D01*
X282665Y2062331D01*
Y2060665D01*
X280998Y2058998D01*
X279332D01*
X280998D01*
X282665Y2057332D01*
Y2055666D01*
X280998Y2054000D01*
X277666D01*
X276000Y2055666D01*
X285997Y2054000D02*
Y2055666D01*
X287663D01*
Y2054000D01*
X285997D01*
X294327Y2062331D02*
X295994Y2063997D01*
X299326D01*
X300992Y2062331D01*
Y2060665D01*
X299326Y2058998D01*
X297660D01*
X299326D01*
X300992Y2057332D01*
Y2055666D01*
X299326Y2054000D01*
X295994D01*
X294327Y2055666D01*
X270000Y2034000D02*
Y2043997D01*
X273332Y2040665D01*
X276665Y2043997D01*
Y2034000D01*
X279997D02*
Y2040665D01*
X283329Y2043997D01*
X286661Y2040665D01*
Y2034000D01*
Y2038998D01*
X279997D01*
X296658Y2042331D02*
X294992Y2043997D01*
X291660D01*
X289994Y2042331D01*
Y2035666D01*
X291660Y2034000D01*
X294992D01*
X296658Y2035666D01*
Y2038998D01*
X293326D01*
X299990Y2034000D02*
X303323D01*
X301656D01*
Y2043997D01*
X299990Y2042331D01*
X263000Y2013000D02*
Y2022997D01*
X266332Y2019664D01*
X269664Y2022997D01*
Y2013000D01*
X272997D02*
Y2019664D01*
X276329Y2022997D01*
X279661Y2019664D01*
Y2013000D01*
Y2017998D01*
X272997D01*
X289658Y2021331D02*
X287992Y2022997D01*
X284660D01*
X282994Y2021331D01*
Y2014666D01*
X284660Y2013000D01*
X287992D01*
X289658Y2014666D01*
Y2017998D01*
X286326D01*
X299655Y2013000D02*
X292990D01*
X299655Y2019664D01*
Y2021331D01*
X297989Y2022997D01*
X294657D01*
X292990Y2021331D01*
X281665Y2002331D02*
X279998Y2003997D01*
X276666D01*
X275000Y2002331D01*
Y1995666D01*
X276666Y1994000D01*
X279998D01*
X281665Y1995666D01*
Y1998998D01*
X278332D01*
X284997Y1994000D02*
Y2003997D01*
X291661Y1994000D01*
Y2003997D01*
X294993D02*
Y1994000D01*
X299992D01*
X301658Y1995666D01*
Y2002331D01*
X299992Y2003997D01*
X294993D01*
X266000Y1975000D02*
Y1984997D01*
X269332Y1981664D01*
X272665Y1984997D01*
Y1975000D01*
X282661Y1983331D02*
X280995Y1984997D01*
X277663D01*
X275997Y1983331D01*
Y1981664D01*
X277663Y1979998D01*
X280995D01*
X282661Y1978332D01*
Y1976666D01*
X280995Y1975000D01*
X277663D01*
X275997Y1976666D01*
X285994Y1984997D02*
X289326D01*
X287660D01*
Y1975000D01*
X285994D01*
X289326D01*
X300989Y1983331D02*
X299323Y1984997D01*
X295990D01*
X294324Y1983331D01*
Y1976666D01*
X295990Y1975000D01*
X299323D01*
X300989Y1976666D01*
Y1979998D01*
X297656D01*
X273000Y1963997D02*
Y1957332D01*
X276332Y1954000D01*
X279664Y1957332D01*
Y1963997D01*
X289661Y1962331D02*
X287995Y1963997D01*
X284663D01*
X282997Y1962331D01*
Y1955666D01*
X284663Y1954000D01*
X287995D01*
X289661Y1955666D01*
X299658Y1962331D02*
X297992Y1963997D01*
X294660D01*
X292994Y1962331D01*
Y1955666D01*
X294660Y1954000D01*
X297992D01*
X299658Y1955666D01*
X279000Y1902000D02*
Y1911997D01*
X285665Y1902000D01*
Y1911997D01*
X295661Y1910331D02*
X293995Y1911997D01*
X290663D01*
X288997Y1910331D01*
Y1903666D01*
X290663Y1902000D01*
X293995D01*
X295661Y1903666D01*
X271000Y1891331D02*
X272666Y1892997D01*
X275998D01*
X277665Y1891331D01*
Y1889664D01*
X275998Y1887998D01*
X274332D01*
X275998D01*
X277665Y1886332D01*
Y1884666D01*
X275998Y1883000D01*
X272666D01*
X271000Y1884666D01*
X280997Y1883000D02*
Y1884666D01*
X282663D01*
Y1883000D01*
X280997D01*
X289327Y1891331D02*
X290994Y1892997D01*
X294326D01*
X295992Y1891331D01*
Y1889664D01*
X294326Y1887998D01*
X292660D01*
X294326D01*
X295992Y1886332D01*
Y1884666D01*
X294326Y1883000D01*
X290994D01*
X289327Y1884666D01*
X285665Y1872997D02*
X282332D01*
X283998D01*
Y1864666D01*
X282332Y1863000D01*
X280666D01*
X279000Y1864666D01*
X288997Y1872997D02*
X295661Y1863000D01*
Y1872997D02*
X288997Y1863000D01*
X285665Y1854997D02*
X282332D01*
X283998D01*
Y1846666D01*
X282332Y1845000D01*
X280666D01*
X279000Y1846666D01*
X288997Y1854997D02*
Y1853331D01*
X292329Y1849998D01*
X295661Y1853331D01*
Y1854997D01*
X292329Y1849998D02*
Y1845000D01*
X279000Y1811997D02*
Y1802000D01*
X283998D01*
X285665Y1803666D01*
Y1805332D01*
Y1806998D01*
X283998Y1808665D01*
X279000D01*
X290663D02*
X293995D01*
X295661Y1806998D01*
Y1802000D01*
X290663D01*
X288997Y1803666D01*
X290663Y1805332D01*
X295661D01*
D13*
X274697Y1835775D02*
X269618D01*
X272157D01*
Y1823079D01*
X269618Y1820540D01*
X267079D01*
X264540Y1823079D01*
X279775Y1835775D02*
Y1820540D01*
X287393D01*
X289932Y1823079D01*
Y1825618D01*
X287393Y1828158D01*
X279775D01*
X287393D01*
X289932Y1830697D01*
Y1833236D01*
X287393Y1835775D01*
X279775D01*
X279540Y1794537D02*
Y1784540D01*
X284538D01*
X286204Y1786206D01*
Y1787872D01*
Y1789538D01*
X284538Y1791205D01*
X279540D01*
X289537Y1794537D02*
Y1784540D01*
X294535D01*
X296201Y1786206D01*
Y1787872D01*
Y1789538D01*
X294535Y1791205D01*
X289537D01*
X611055Y1384491D02*
X621212Y1394648D01*
Y1384491D02*
X611055Y1394648D01*
X616133Y1384491D02*
Y1394648D01*
X621212Y1389569D02*
X611055D01*
X310035Y1115197D02*
Y1099962D01*
X302417D01*
X299878Y1102501D01*
Y1107579D01*
X302417Y1110119D01*
X310035D01*
X284643Y1115197D02*
X294800D01*
X284643Y1105040D01*
Y1102501D01*
X287182Y1099962D01*
X292261D01*
X294800Y1102501D01*
X505965Y1644003D02*
Y1659238D01*
X513582D01*
X516122Y1656699D01*
Y1651620D01*
X513582Y1649081D01*
X505965D01*
X521200Y1644003D02*
X526278D01*
X523739D01*
Y1659238D01*
X521200Y1656699D01*
X656927Y223906D02*
Y239141D01*
X649309D01*
X646770Y236602D01*
Y234063D01*
X649309Y231523D01*
X656927D01*
X649309D01*
X646770Y228984D01*
Y226445D01*
X649309Y223906D01*
X656927D01*
X631535Y239141D02*
X641692D01*
X631535Y228984D01*
Y226445D01*
X634074Y223906D01*
X639153D01*
X641692Y226445D01*
X521159Y2206423D02*
X523698Y2208962D01*
Y2214040D01*
X521159Y2216580D01*
X511002D01*
X508463Y2214040D01*
Y2208962D01*
X511002Y2206423D01*
X523698Y2191188D02*
Y2201344D01*
X516081D01*
X518620Y2196266D01*
Y2193727D01*
X516081Y2191188D01*
X511002D01*
X508463Y2193727D01*
Y2198805D01*
X511002Y2201344D01*
X549076Y2147891D02*
X546536Y2150430D01*
X541458D01*
X538919Y2147891D01*
Y2137734D01*
X541458Y2135195D01*
X546536D01*
X549076Y2137734D01*
X564311Y2150430D02*
X559232Y2147891D01*
X554154Y2142812D01*
Y2137734D01*
X556693Y2135195D01*
X561772D01*
X564311Y2137734D01*
Y2140273D01*
X561772Y2142812D01*
X554154D01*
X557159Y2097423D02*
X559698Y2099962D01*
Y2105040D01*
X557159Y2107580D01*
X547002D01*
X544463Y2105040D01*
Y2099962D01*
X547002Y2097423D01*
X559698Y2092345D02*
Y2082188D01*
X557159D01*
X547002Y2092345D01*
X544463D01*
X511076Y2250891D02*
X508536Y2253430D01*
X503458D01*
X500919Y2250891D01*
Y2240734D01*
X503458Y2238195D01*
X508536D01*
X511076Y2240734D01*
X516154Y2250891D02*
X518693Y2253430D01*
X523772D01*
X526311Y2250891D01*
Y2248352D01*
X523772Y2245813D01*
X526311Y2243273D01*
Y2240734D01*
X523772Y2238195D01*
X518693D01*
X516154Y2240734D01*
Y2243273D01*
X518693Y2245813D01*
X516154Y2248352D01*
Y2250891D01*
X518693Y2245813D02*
X523772D01*
X351858Y2077159D02*
X349319Y2079698D01*
X344241D01*
X341702Y2077159D01*
Y2067002D01*
X344241Y2064463D01*
X349319D01*
X351858Y2067002D01*
X356937D02*
X359476Y2064463D01*
X364554D01*
X367093Y2067002D01*
Y2077159D01*
X364554Y2079698D01*
X359476D01*
X356937Y2077159D01*
Y2074620D01*
X359476Y2072081D01*
X367093D01*
X413218Y2137159D02*
X410678Y2139698D01*
X405600D01*
X403061Y2137159D01*
Y2127002D01*
X405600Y2124463D01*
X410678D01*
X413218Y2127002D01*
X418296Y2124463D02*
X423374D01*
X420835D01*
Y2139698D01*
X418296Y2137159D01*
X430992D02*
X433531Y2139698D01*
X438610D01*
X441149Y2137159D01*
Y2127002D01*
X438610Y2124463D01*
X433531D01*
X430992Y2127002D01*
Y2137159D01*
X310117Y2071076D02*
X307578Y2068537D01*
Y2063458D01*
X310117Y2060919D01*
X320274D01*
X322813Y2063458D01*
Y2068537D01*
X320274Y2071076D01*
X322813Y2076154D02*
Y2081232D01*
Y2078693D01*
X307578D01*
X310117Y2076154D01*
X322813Y2088850D02*
Y2093928D01*
Y2091389D01*
X307578D01*
X310117Y2088850D01*
X367109Y2129076D02*
X364570Y2126537D01*
Y2121458D01*
X367109Y2118919D01*
X377266D01*
X379805Y2121458D01*
Y2126537D01*
X377266Y2129076D01*
X379805Y2134154D02*
Y2139232D01*
Y2136693D01*
X364570D01*
X367109Y2134154D01*
X379805Y2157007D02*
Y2146850D01*
X369648Y2157007D01*
X367109D01*
X364570Y2154467D01*
Y2149389D01*
X367109Y2146850D01*
X426841Y1965218D02*
X424302Y1962679D01*
Y1957600D01*
X426841Y1955061D01*
X436998D01*
X439537Y1957600D01*
Y1962679D01*
X436998Y1965218D01*
X439537Y1970296D02*
Y1975374D01*
Y1972835D01*
X424302D01*
X426841Y1970296D01*
Y1982992D02*
X424302Y1985531D01*
Y1990609D01*
X426841Y1993149D01*
X429380D01*
X431919Y1990609D01*
Y1988070D01*
Y1990609D01*
X434459Y1993149D01*
X436998D01*
X439537Y1990609D01*
Y1985531D01*
X436998Y1982992D01*
X434924Y1913109D02*
X437463Y1910570D01*
X442542D01*
X445081Y1913109D01*
Y1923266D01*
X442542Y1925805D01*
X437463D01*
X434924Y1923266D01*
X429846Y1925805D02*
X424768D01*
X427307D01*
Y1910570D01*
X429846Y1913109D01*
X409533Y1925805D02*
Y1910570D01*
X417150Y1918188D01*
X406993D01*
X719660Y1907410D02*
X724739D01*
X722199D01*
Y1920106D01*
X724739Y1922645D01*
X727278D01*
X729817Y1920106D01*
X714582Y1922645D02*
X709504D01*
X712043D01*
Y1907410D01*
X714582Y1909949D01*
X775758Y2158472D02*
X779349Y2162063D01*
X777553Y2160268D01*
X768576Y2169245D01*
Y2172836D01*
X770371Y2174632D01*
X773962D01*
X754212Y2158472D02*
X761394Y2165654D01*
Y2151290D01*
X763189Y2149495D01*
X766780D01*
X770371Y2153086D01*
Y2156677D01*
X612590Y2313660D02*
Y2318739D01*
Y2316199D01*
X599894D01*
X597355Y2318739D01*
Y2321278D01*
X599894Y2323817D01*
X610051Y2308582D02*
X612590Y2306043D01*
Y2300964D01*
X610051Y2298425D01*
X607512D01*
X604973Y2300964D01*
Y2303504D01*
Y2300964D01*
X602433Y2298425D01*
X599894D01*
X597355Y2300964D01*
Y2306043D01*
X599894Y2308582D01*
X370670Y2330900D02*
X367079Y2334491D01*
X368874Y2332695D01*
X359897Y2323718D01*
X356306D01*
X354510Y2325513D01*
Y2329104D01*
X368874Y2311150D02*
X379647Y2321923D01*
X368874D01*
X376056Y2314741D01*
X261340Y2147590D02*
X256261D01*
X258801D01*
Y2134894D01*
X256261Y2132355D01*
X253722D01*
X251183Y2134894D01*
X276575Y2147590D02*
X266418D01*
Y2139973D01*
X271496Y2142512D01*
X274036D01*
X276575Y2139973D01*
Y2134894D01*
X274036Y2132355D01*
X268957D01*
X266418Y2134894D01*
X256340Y1955590D02*
X251261D01*
X253801D01*
Y1942894D01*
X251261Y1940355D01*
X248722D01*
X246183Y1942894D01*
X271575Y1955590D02*
X266496Y1953051D01*
X261418Y1947973D01*
Y1942894D01*
X263957Y1940355D01*
X269036D01*
X271575Y1942894D01*
Y1945433D01*
X269036Y1947973D01*
X261418D01*
X734051Y956786D02*
Y969482D01*
X731512Y972021D01*
X726433D01*
X723894Y969482D01*
Y956786D01*
X718816Y972021D02*
X713738D01*
X716277D01*
Y956786D01*
X718816Y959325D01*
X735051Y1067586D02*
Y1080282D01*
X732512Y1082821D01*
X727433D01*
X724894Y1080282D01*
Y1067586D01*
X709659Y1082821D02*
X719816D01*
X709659Y1072664D01*
Y1070125D01*
X712198Y1067586D01*
X717277D01*
X719816Y1070125D01*
X640481Y2040602D02*
Y2053298D01*
X637942Y2055837D01*
X632864D01*
X630324Y2053298D01*
Y2040602D01*
X617628Y2055837D02*
Y2040602D01*
X625246Y2048219D01*
X615089D01*
X600481Y2149602D02*
Y2162298D01*
X597942Y2164837D01*
X592864D01*
X590324Y2162298D01*
Y2149602D01*
X575089D02*
X585246D01*
Y2157219D01*
X580168Y2154680D01*
X577628D01*
X575089Y2157219D01*
Y2162298D01*
X577628Y2164837D01*
X582707D01*
X585246Y2162298D01*
X408398Y2161481D02*
X395702D01*
X393163Y2158942D01*
Y2153863D01*
X395702Y2151324D01*
X408398D01*
Y2136089D02*
X405859Y2141167D01*
X400781Y2146246D01*
X395702D01*
X393163Y2143707D01*
Y2138628D01*
X395702Y2136089D01*
X398241D01*
X400781Y2138628D01*
Y2146246D01*
X475748Y2221320D02*
X463052D01*
X460513Y2218781D01*
Y2213703D01*
X463052Y2211164D01*
X475748D01*
Y2206085D02*
Y2195929D01*
X473209D01*
X463052Y2206085D01*
X460513D01*
X341519Y2020398D02*
Y2007702D01*
X344058Y2005163D01*
X349137D01*
X351676Y2007702D01*
Y2020398D01*
X356754Y2017859D02*
X359293Y2020398D01*
X364372D01*
X366911Y2017859D01*
Y2015320D01*
X364372Y2012780D01*
X366911Y2010241D01*
Y2007702D01*
X364372Y2005163D01*
X359293D01*
X356754Y2007702D01*
Y2010241D01*
X359293Y2012780D01*
X356754Y2015320D01*
Y2017859D01*
X359293Y2012780D02*
X364372D01*
D14*
X301000Y1399500D02*
Y1396114D01*
Y1397807D01*
X311157D01*
X309464Y1399500D01*
Y1391036D02*
X311157Y1389343D01*
Y1385958D01*
X309464Y1384265D01*
X302693D01*
X301000Y1385958D01*
Y1389343D01*
X302693Y1391036D01*
X309464D01*
X301000Y1623000D02*
Y1619614D01*
Y1621307D01*
X311157D01*
X309464Y1623000D01*
X301000Y1138729D02*
Y1145500D01*
X307771Y1138729D01*
X309464D01*
X311157Y1140422D01*
Y1143807D01*
X309464Y1145500D01*
Y1135343D02*
X311157Y1133651D01*
Y1130265D01*
X309464Y1128572D01*
X302693D01*
X301000Y1130265D01*
Y1133651D01*
X302693Y1135343D01*
X309464D01*
X515000Y1359700D02*
Y1363086D01*
Y1361393D01*
X504843D01*
X506536Y1359700D01*
Y1368164D02*
X504843Y1369857D01*
Y1373242D01*
X506536Y1374935D01*
X513307D01*
X515000Y1373242D01*
Y1369857D01*
X513307Y1368164D01*
X506536D01*
X515000Y1136200D02*
Y1139586D01*
Y1137893D01*
X504843D01*
X506536Y1136200D01*
X515000Y1620471D02*
Y1613700D01*
X508229Y1620471D01*
X506536D01*
X504843Y1618778D01*
Y1615393D01*
X506536Y1613700D01*
Y1623857D02*
X504843Y1625549D01*
Y1628935D01*
X506536Y1630628D01*
X513307D01*
X515000Y1628935D01*
Y1625549D01*
X513307Y1623857D01*
X506536D01*
M02*
