G04*
G04 #@! TF.GenerationSoftware,Altium Limited,Altium Designer,22.11.1 (43)*
G04*
G04 Layer_Color=16711935*
%FSLAX44Y44*%
%MOMM*%
G71*
G04*
G04 #@! TF.SameCoordinates,B6AE56F5-1224-44F4-9462-935C271CF011*
G04*
G04*
G04 #@! TF.FilePolarity,Negative*
G04*
G01*
G75*
%ADD25C,1.5532*%
%ADD26R,1.5532X1.5532*%
%ADD27C,1.8032*%
%ADD28R,1.8032X1.8032*%
%ADD29C,1.9032*%
%ADD30R,1.9032X1.9032*%
%ADD31P,2.1966X4X90.0*%
%ADD32R,1.5532X1.5532*%
%ADD33P,2.1966X4X360.0*%
%ADD34C,5.2032*%
%ADD35C,3.7032*%
%ADD36C,4.9032*%
%ADD37C,1.4732*%
%ADD38C,2.2032*%
%ADD39C,3.4532*%
%ADD61R,1.8062X1.3046*%
G04:AMPARAMS|DCode=64|XSize=1.7528mm|YSize=0.4149mm|CornerRadius=0.2075mm|HoleSize=0mm|Usage=FLASHONLY|Rotation=180.000|XOffset=0mm|YOffset=0mm|HoleType=Round|Shape=RoundedRectangle|*
%AMROUNDEDRECTD64*
21,1,1.7528,0.0000,0,0,180.0*
21,1,1.3379,0.4149,0,0,180.0*
1,1,0.4149,-0.6690,0.0000*
1,1,0.4149,0.6690,0.0000*
1,1,0.4149,0.6690,0.0000*
1,1,0.4149,-0.6690,0.0000*
%
%ADD64ROUNDEDRECTD64*%
G04:AMPARAMS|DCode=65|XSize=1.7528mm|YSize=0.4149mm|CornerRadius=0.2075mm|HoleSize=0mm|Usage=FLASHONLY|Rotation=90.000|XOffset=0mm|YOffset=0mm|HoleType=Round|Shape=RoundedRectangle|*
%AMROUNDEDRECTD65*
21,1,1.7528,0.0000,0,0,90.0*
21,1,1.3379,0.4149,0,0,90.0*
1,1,0.4149,0.0000,0.6690*
1,1,0.4149,0.0000,-0.6690*
1,1,0.4149,0.0000,-0.6690*
1,1,0.4149,0.0000,0.6690*
%
%ADD65ROUNDEDRECTD65*%
%ADD66R,1.7528X0.4149*%
%ADD67R,0.4149X1.7528*%
%ADD68R,1.3532X1.9032*%
%ADD69R,1.9032X1.3532*%
%ADD70R,1.7532X2.1032*%
D25*
X670000Y2076000D02*
D03*
Y2036000D02*
D03*
Y2016000D02*
D03*
Y1976000D02*
D03*
Y1956000D02*
D03*
Y1996000D02*
D03*
Y2056000D02*
D03*
X635574Y2228426D02*
D03*
X678000Y2186000D02*
D03*
X464000Y2264000D02*
D03*
X524000D02*
D03*
X300716Y2190716D02*
D03*
X343142Y2233142D02*
D03*
X311000Y1999000D02*
D03*
Y2059000D02*
D03*
X306000Y1887000D02*
D03*
Y1787000D02*
D03*
Y1807000D02*
D03*
Y1827000D02*
D03*
Y1847000D02*
D03*
Y1867000D02*
D03*
X706284Y2157716D02*
D03*
X692142Y2171858D02*
D03*
X663858Y2200142D02*
D03*
X649716Y2214284D02*
D03*
X621431Y2242569D02*
D03*
X564000Y2264000D02*
D03*
X544000D02*
D03*
X504000D02*
D03*
X484000D02*
D03*
X444000D02*
D03*
X371426Y2261426D02*
D03*
X357284Y2247284D02*
D03*
X329000Y2219000D02*
D03*
X314858Y2204858D02*
D03*
X286574Y2176574D02*
D03*
X311000Y2099000D02*
D03*
Y2079000D02*
D03*
Y2039000D02*
D03*
Y2019000D02*
D03*
Y1979000D02*
D03*
X306000Y1907000D02*
D03*
D26*
X670000Y2096000D02*
D03*
X306000Y1767000D02*
D03*
X311000Y1959000D02*
D03*
D27*
X284000Y1266200D02*
D03*
Y1342400D02*
D03*
Y1367800D02*
D03*
Y1393200D02*
D03*
Y1444000D02*
D03*
Y1469400D02*
D03*
Y1520200D02*
D03*
Y1571000D02*
D03*
Y1596400D02*
D03*
Y1545600D02*
D03*
Y1494800D02*
D03*
Y1418600D02*
D03*
Y1317000D02*
D03*
Y1291600D02*
D03*
Y1240800D02*
D03*
Y1215400D02*
D03*
Y1190000D02*
D03*
Y1164600D02*
D03*
Y1139200D02*
D03*
X532000Y1493000D02*
D03*
Y1416800D02*
D03*
Y1391400D02*
D03*
Y1366000D02*
D03*
Y1315200D02*
D03*
Y1289800D02*
D03*
Y1239000D02*
D03*
Y1188200D02*
D03*
Y1162800D02*
D03*
Y1213600D02*
D03*
Y1264400D02*
D03*
Y1340600D02*
D03*
Y1442200D02*
D03*
Y1467600D02*
D03*
Y1518400D02*
D03*
Y1543800D02*
D03*
Y1569200D02*
D03*
Y1594600D02*
D03*
Y1620000D02*
D03*
D28*
X284000Y1621800D02*
D03*
X532000Y1137400D02*
D03*
D29*
X707000Y1032600D02*
D03*
Y1007200D02*
D03*
X708000Y1143400D02*
D03*
Y1118000D02*
D03*
D30*
Y1168800D02*
D03*
X707000Y1058000D02*
D03*
D31*
X272432Y2162431D02*
D03*
D32*
X424000Y2264000D02*
D03*
D33*
X607289Y2256711D02*
D03*
D34*
X633520Y406850D02*
D03*
X283420Y958850D02*
D03*
D35*
Y324650D02*
D03*
D36*
X458470Y406850D02*
D03*
Y958850D02*
D03*
D37*
X350000Y2172000D02*
D03*
X368890Y2214000D02*
D03*
X377000Y2176920D02*
D03*
X613147Y1652016D02*
D03*
X666001Y1819216D02*
D03*
X418000Y1665000D02*
D03*
X367552Y1621448D02*
D03*
X431517Y1648532D02*
D03*
X491000Y1646000D02*
D03*
X456000Y1628000D02*
D03*
X506320Y1670320D02*
D03*
X486000Y1673747D02*
D03*
X459760Y1826913D02*
D03*
X399000Y1742000D02*
D03*
X671081Y1800331D02*
D03*
X459966Y2160689D02*
D03*
X500679Y2077509D02*
D03*
X396270Y2099213D02*
D03*
X452816Y2107184D02*
D03*
X475979Y2053000D02*
D03*
X393035Y1873621D02*
D03*
X486000Y2126000D02*
D03*
X586000Y2160000D02*
D03*
X485560Y2166641D02*
D03*
X462089Y2000110D02*
D03*
X626000Y2047000D02*
D03*
X614160Y1819216D02*
D03*
X612514Y1802429D02*
D03*
X594327Y1948953D02*
D03*
X530000Y1712000D02*
D03*
X373095Y2120845D02*
D03*
X407627Y2014991D02*
D03*
X357000Y2009000D02*
D03*
X598000Y1791000D02*
D03*
D38*
X711000Y1393000D02*
D03*
Y1432370D02*
D03*
X639880D02*
D03*
Y1393000D02*
D03*
X616000Y1203000D02*
D03*
X305000Y1088000D02*
D03*
D39*
X714000Y685000D02*
D03*
X715000Y273000D02*
D03*
X278000D02*
D03*
X273000Y2287000D02*
D03*
X716000D02*
D03*
D61*
X673000Y1083008D02*
D03*
Y1054992D02*
D03*
D64*
X397000Y1665500D02*
D03*
Y1672000D02*
D03*
Y1678500D02*
D03*
Y1685000D02*
D03*
Y1691500D02*
D03*
Y1659000D02*
D03*
X464503Y1691500D02*
D03*
Y1685000D02*
D03*
Y1672000D02*
D03*
Y1678500D02*
D03*
Y1665500D02*
D03*
Y1711000D02*
D03*
Y1704500D02*
D03*
Y1698000D02*
D03*
X397000D02*
D03*
Y1704500D02*
D03*
Y1711000D02*
D03*
Y1717500D02*
D03*
Y1652500D02*
D03*
Y1646000D02*
D03*
X464503D02*
D03*
Y1652500D02*
D03*
Y1659000D02*
D03*
D65*
X530250Y1746751D02*
D03*
X582250Y1679249D02*
D03*
X575750D02*
D03*
X569250D02*
D03*
X562750D02*
D03*
X556250D02*
D03*
X549750D02*
D03*
X543250D02*
D03*
X536750D02*
D03*
Y1746751D02*
D03*
X543250D02*
D03*
X549750D02*
D03*
X556250D02*
D03*
X562750D02*
D03*
X569250D02*
D03*
X575750D02*
D03*
X582250D02*
D03*
X588750D02*
D03*
X523750D02*
D03*
X517250D02*
D03*
Y1679249D02*
D03*
X523750D02*
D03*
X530250D02*
D03*
D66*
X464503Y1717500D02*
D03*
D67*
X588750Y1679249D02*
D03*
D68*
X652250Y1113000D02*
D03*
X677750D02*
D03*
D69*
X673000Y1030750D02*
D03*
Y1005250D02*
D03*
D70*
X646250Y1144000D02*
D03*
X675750D02*
D03*
M02*
