G04*
G04 #@! TF.GenerationSoftware,Altium Limited,Altium Designer,22.11.1 (43)*
G04*
G04 Layer_Color=8421504*
%FSLAX44Y44*%
%MOMM*%
G71*
G04*
G04 #@! TF.SameCoordinates,B6AE56F5-1224-44F4-9462-935C271CF011*
G04*
G04*
G04 #@! TF.FilePolarity,Positive*
G04*
G01*
G75*
%ADD15R,6.3500X7.3400*%
%ADD16R,1.5562X1.5781*%
%ADD17R,1.9062X1.5046*%
%ADD18R,1.5781X1.5562*%
%ADD19R,1.5046X1.9062*%
G04:AMPARAMS|DCode=20|XSize=1.8741mm|YSize=0.5421mm|CornerRadius=0.2711mm|HoleSize=0mm|Usage=FLASHONLY|Rotation=180.000|XOffset=0mm|YOffset=0mm|HoleType=Round|Shape=RoundedRectangle|*
%AMROUNDEDRECTD20*
21,1,1.8741,0.0000,0,0,180.0*
21,1,1.3319,0.5421,0,0,180.0*
1,1,0.5421,-0.6660,0.0000*
1,1,0.5421,0.6660,0.0000*
1,1,0.5421,0.6660,0.0000*
1,1,0.5421,-0.6660,0.0000*
%
%ADD20ROUNDEDRECTD20*%
G04:AMPARAMS|DCode=21|XSize=1.8741mm|YSize=0.5421mm|CornerRadius=0.2711mm|HoleSize=0mm|Usage=FLASHONLY|Rotation=270.000|XOffset=0mm|YOffset=0mm|HoleType=Round|Shape=RoundedRectangle|*
%AMROUNDEDRECTD21*
21,1,1.8741,0.0000,0,0,270.0*
21,1,1.3319,0.5421,0,0,270.0*
1,1,0.5421,0.0000,-0.6660*
1,1,0.5421,0.0000,0.6660*
1,1,0.5421,0.0000,0.6660*
1,1,0.5421,0.0000,-0.6660*
%
%ADD21ROUNDEDRECTD21*%
%ADD22R,1.8741X0.5421*%
%ADD23R,0.5421X1.8741*%
D15*
X362920Y1081100D02*
D03*
X554020Y284600D02*
D03*
X362920D02*
D03*
X554020Y1081100D02*
D03*
D16*
X487000Y2205281D02*
D03*
Y2188000D02*
D03*
X523000Y2096281D02*
D03*
Y2079000D02*
D03*
X461000Y1966359D02*
D03*
Y1983641D02*
D03*
D17*
X552000Y2114008D02*
D03*
X514000Y2217008D02*
D03*
X432000Y1946992D02*
D03*
X552000Y2083992D02*
D03*
X514000Y2186992D02*
D03*
X432000Y1977008D02*
D03*
D18*
X353000Y2043000D02*
D03*
X370281D02*
D03*
X414359Y2103000D02*
D03*
X431641D02*
D03*
D19*
X344000Y2074000D02*
D03*
X400992Y2132000D02*
D03*
X374016Y2074000D02*
D03*
X431008Y2132000D02*
D03*
D20*
X578839Y2109050D02*
D03*
Y2070950D02*
D03*
X538839Y2218050D02*
D03*
Y2179950D02*
D03*
X403161Y1951950D02*
D03*
Y1990050D02*
D03*
X578839Y2096350D02*
D03*
X538839Y2205350D02*
D03*
X403161Y1964650D02*
D03*
X578839Y2083650D02*
D03*
X538839Y2192650D02*
D03*
X403161Y1977350D02*
D03*
X356839Y1951950D02*
D03*
Y1964650D02*
D03*
X585161Y2205350D02*
D03*
Y2218050D02*
D03*
X625161Y2096350D02*
D03*
Y2109050D02*
D03*
X356839Y1977350D02*
D03*
X585161Y2192650D02*
D03*
X625161Y2083650D02*
D03*
D21*
X339950Y2099839D02*
D03*
X378050D02*
D03*
X407300Y2159679D02*
D03*
X445400D02*
D03*
X352650Y2099839D02*
D03*
X420000Y2159679D02*
D03*
X365350Y2099839D02*
D03*
X432700Y2159679D02*
D03*
X339950Y2146161D02*
D03*
X352650D02*
D03*
X407300Y2206000D02*
D03*
X420000D02*
D03*
X365350Y2146161D02*
D03*
X432700Y2206000D02*
D03*
D22*
X356839Y1990050D02*
D03*
X625161Y2070950D02*
D03*
X585161Y2179950D02*
D03*
D23*
X378050Y2146161D02*
D03*
X445400Y2206000D02*
D03*
M02*
