G04*
G04 #@! TF.GenerationSoftware,Altium Limited,Altium Designer,22.11.1 (43)*
G04*
G04 Layer_Physical_Order=1*
G04 Layer_Color=255*
%FSLAX44Y44*%
%MOMM*%
G71*
G04*
G04 #@! TF.SameCoordinates,B6AE56F5-1224-44F4-9462-935C271CF011*
G04*
G04*
G04 #@! TF.FilePolarity,Positive*
G04*
G01*
G75*
%ADD13C,0.2540*%
%ADD15R,6.3500X7.3400*%
%ADD16R,1.5562X1.5781*%
%ADD17R,1.9062X1.5046*%
%ADD18R,1.5781X1.5562*%
%ADD19R,1.5046X1.9062*%
G04:AMPARAMS|DCode=20|XSize=1.8741mm|YSize=0.5421mm|CornerRadius=0.2711mm|HoleSize=0mm|Usage=FLASHONLY|Rotation=180.000|XOffset=0mm|YOffset=0mm|HoleType=Round|Shape=RoundedRectangle|*
%AMROUNDEDRECTD20*
21,1,1.8741,0.0000,0,0,180.0*
21,1,1.3319,0.5421,0,0,180.0*
1,1,0.5421,-0.6660,0.0000*
1,1,0.5421,0.6660,0.0000*
1,1,0.5421,0.6660,0.0000*
1,1,0.5421,-0.6660,0.0000*
%
%ADD20ROUNDEDRECTD20*%
G04:AMPARAMS|DCode=21|XSize=1.8741mm|YSize=0.5421mm|CornerRadius=0.2711mm|HoleSize=0mm|Usage=FLASHONLY|Rotation=270.000|XOffset=0mm|YOffset=0mm|HoleType=Round|Shape=RoundedRectangle|*
%AMROUNDEDRECTD21*
21,1,1.8741,0.0000,0,0,270.0*
21,1,1.3319,0.5421,0,0,270.0*
1,1,0.5421,0.0000,-0.6660*
1,1,0.5421,0.0000,0.6660*
1,1,0.5421,0.0000,0.6660*
1,1,0.5421,0.0000,-0.6660*
%
%ADD21ROUNDEDRECTD21*%
%ADD22R,1.8741X0.5421*%
%ADD23R,0.5421X1.8741*%
%ADD40C,1.0000*%
%ADD41C,0.3810*%
%ADD42C,2.0000*%
%ADD43C,4.0000*%
%ADD44C,1.5000*%
%ADD45C,1.3500*%
%ADD46R,1.3500X1.3500*%
%ADD47C,1.6000*%
%ADD48R,1.6000X1.6000*%
%ADD49C,1.7000*%
%ADD50R,1.7000X1.7000*%
%ADD51P,1.9092X4X90.0*%
%ADD52R,1.3500X1.3500*%
%ADD53P,1.9092X4X360.0*%
%ADD54C,5.0000*%
%ADD55C,3.5000*%
%ADD56C,4.7000*%
%ADD57C,1.2700*%
%ADD58C,2.0000*%
%ADD59C,3.2500*%
D13*
X613147Y1652016D02*
Y1780731D01*
X680560Y1848144D02*
Y1965440D01*
X670000Y1976000D02*
X680560Y1965440D01*
X613147Y1780731D02*
X680560Y1848144D01*
X513000Y2217016D02*
X514034Y2218050D01*
X481400Y1517600D02*
X533000Y1466000D01*
X445840Y1448160D02*
X463000Y1431000D01*
X445840Y1448160D02*
Y1782094D01*
X259076Y1968859D02*
X445840Y1782094D01*
X486000Y1673747D02*
X487782Y1671965D01*
X501160Y1639061D02*
Y1650208D01*
X487782Y1663587D02*
Y1671965D01*
Y1663587D02*
X501160Y1650208D01*
Y1639061D02*
X506629Y1633592D01*
X471240Y1773781D02*
Y1891608D01*
X475840Y1764013D02*
X481400Y1769573D01*
X465680Y1641977D02*
Y1768221D01*
X481400Y1769573D02*
Y1887400D01*
X470760Y1644082D02*
X476320Y1638522D01*
X470760Y1644082D02*
Y1766117D01*
X476320Y1501522D02*
Y1638522D01*
Y1889504D02*
X597100Y2010284D01*
X465680Y1768221D02*
X471240Y1773781D01*
X475840Y1646186D02*
Y1764013D01*
X481400Y1517600D02*
Y1640626D01*
X466160Y1457240D02*
Y1632208D01*
Y1457240D02*
X532000Y1391400D01*
X465680Y1641977D02*
X471240Y1636417D01*
X475840Y1646186D02*
X481400Y1640626D01*
X471240Y1477560D02*
Y1636417D01*
X476320Y1501522D02*
X532000Y1445842D01*
X481400Y1887400D02*
X670000Y2076000D01*
X476320Y1771677D02*
Y1889504D01*
X470760Y1766117D02*
X476320Y1771677D01*
X460600Y1637768D02*
Y1774518D01*
X471240Y1891608D02*
X472591Y1892959D01*
X471240Y1477560D02*
X532000Y1416800D01*
X460600Y1637768D02*
X466160Y1632208D01*
X465819Y2102593D02*
X470126Y2106900D01*
X528984Y1712000D02*
X530000D01*
X506629Y1633592D02*
X522408D01*
X465819Y2010749D02*
Y2102593D01*
X444000Y2224869D02*
X470126Y2198744D01*
X300440Y1934678D02*
X460600Y1774518D01*
X472591Y1892959D02*
Y2003976D01*
X465819Y2010749D02*
X472591Y2003976D01*
X470126Y2106900D02*
Y2198744D01*
X463000Y1431000D02*
X467000D01*
X532000Y1366000D01*
Y1442200D02*
Y1445842D01*
X439743Y1826913D02*
X459760D01*
X259076Y1968859D02*
Y2164010D01*
X300440Y1934678D02*
Y1968440D01*
X311000Y1979000D01*
X259076Y2164010D02*
X271639Y2176574D01*
X286574D01*
X444000Y2224869D02*
Y2264000D01*
X475979Y2053000D02*
X576771D01*
X597100Y2010284D02*
Y2096870D01*
X625335Y2125106D01*
X688608D01*
X716844Y2153342D01*
Y2162090D01*
X636366Y2242569D02*
X716844Y2162090D01*
X621431Y2242569D02*
X636366D01*
X576771Y2053000D02*
X592020Y2068249D01*
Y2073651D01*
X567928Y2077471D02*
X588200D01*
X592020Y2073651D01*
X635574Y2192682D02*
Y2228426D01*
X584229Y2141338D02*
X635574Y2192682D01*
X584229Y2110381D02*
Y2141338D01*
X459000Y2161655D02*
Y2173512D01*
Y2161655D02*
X459966Y2160689D01*
X500679Y2077509D02*
X521512D01*
X523000Y2078997D02*
Y2079000D01*
X521512Y2077509D02*
X523000Y2078997D01*
Y2078891D02*
Y2078997D01*
X378676Y2099213D02*
X396270D01*
X378050Y2099839D02*
X378676Y2099213D01*
X393035Y1873621D02*
X439743Y1826913D01*
X457512Y2175000D02*
X459000Y2173512D01*
X441362Y2175000D02*
X457512D01*
X486000Y2126000D02*
X511878D01*
X547878Y2162000D01*
X550000D01*
X552020Y2164020D01*
X485560Y2166641D02*
Y2186451D01*
X487000Y2187891D01*
X565341Y2080058D02*
X567928Y2077471D01*
X565341Y2080058D02*
Y2082162D01*
X549465Y2072380D02*
X550895Y2070950D01*
X578839D01*
X565341Y2082162D02*
X566829Y2083650D01*
X578839D01*
X529511Y2072380D02*
X549465D01*
X461000Y1983641D02*
X462089Y1984729D01*
Y2000110D01*
X523000Y2078891D02*
X529511Y2072380D01*
X594603Y1948953D02*
X601649Y1956000D01*
X670000D01*
X594327Y1948953D02*
X594603D01*
X552000Y2083992D02*
X554008D01*
X560261Y2090245D01*
Y2090952D01*
X565659Y2096350D01*
X578839D01*
X514000Y2186992D02*
X516008D01*
X522261Y2193245D01*
Y2195431D01*
X532180Y2205350D01*
X538839D01*
X352650Y2093180D02*
X363569Y2082261D01*
X352650Y2093180D02*
Y2099839D01*
X363569Y2082261D02*
X367762D01*
X374016Y2074000D02*
Y2076008D01*
X367762Y2082261D02*
X374016Y2076008D01*
X420000Y2153799D02*
Y2159679D01*
Y2153799D02*
X421331Y2152468D01*
X423881D01*
X431008Y2132000D02*
Y2145341D01*
X423881Y2152468D02*
X431008Y2145341D01*
X409820Y1964650D02*
X416341Y1971171D01*
X403161Y1964650D02*
X409820D01*
X412692Y1983700D02*
X413131Y1983261D01*
X416341Y1971171D02*
Y1974690D01*
X418659Y1977008D01*
X432000D01*
X413131Y1983261D02*
X425747D01*
X432000Y1977008D01*
X552020Y2164020D02*
Y2186129D01*
X545499Y2192650D02*
X552020Y2186129D01*
X538839Y2192650D02*
X545499D01*
X365350Y2113099D02*
X373095Y2120845D01*
X365350Y2099839D02*
Y2113099D01*
X432700Y2166338D02*
X441362Y2175000D01*
X432700Y2159679D02*
Y2166338D01*
X407618Y2015000D02*
X407627Y2014991D01*
X406000Y2015000D02*
X407618D01*
X389980Y1998980D02*
X406000Y2015000D01*
X389980Y1983871D02*
Y1998980D01*
Y1983871D02*
X396501Y1977350D01*
X403161D01*
X344000Y2074000D02*
Y2088350D01*
Y2052000D02*
Y2074000D01*
X339950Y2092400D02*
X344000Y2088350D01*
Y2052000D02*
X346380Y2049620D01*
X339950Y2092400D02*
Y2099839D01*
X346380Y2049511D02*
Y2049620D01*
Y2049511D02*
X352891Y2043000D01*
X353000Y2042891D02*
X358581Y2037310D01*
X353000Y2042891D02*
Y2043000D01*
Y2027368D02*
Y2042891D01*
X311000Y2001109D02*
X352891Y2043000D01*
X358581Y2033641D02*
Y2037310D01*
X353000Y2027368D02*
X370020Y2010349D01*
X311000Y1999000D02*
Y2001109D01*
X358581Y2033641D02*
X360813Y2031409D01*
X370020Y1978431D02*
Y2010349D01*
X360813Y2031409D02*
X379750D01*
X370020Y1978431D02*
X396501Y1951950D01*
X379750Y2031409D02*
X414359Y2066019D01*
X396501Y1951950D02*
X403161D01*
X414359Y2066019D02*
Y2103000D01*
X403161Y1951950D02*
X409820D01*
X414359Y2103000D02*
Y2116625D01*
X409820Y1951950D02*
X414778Y1946992D01*
X400992Y2129992D02*
X414359Y2116625D01*
X414778Y1946992D02*
X432000D01*
X400992Y2129992D02*
Y2132000D01*
Y2146711D01*
X432000Y1946992D02*
X438253Y1953245D01*
X400992Y2146711D02*
X407300Y2153019D01*
X438253Y1953245D02*
X447995D01*
X407300Y2153019D02*
Y2159679D01*
X447995Y1953245D02*
X461000Y1966250D01*
Y1966359D01*
X466581Y1971940D01*
X582898Y2109050D02*
X584229Y2110381D01*
X578839Y2109050D02*
X582898D01*
X556958D02*
X578839D01*
X552000Y2114008D02*
X556958Y2109050D01*
X549992Y2114008D02*
X552000D01*
X539006Y2103022D02*
X549992Y2114008D01*
X539006Y2101014D02*
Y2103022D01*
X534273Y2096281D02*
X539006Y2101014D01*
X523000Y2096281D02*
X534273D01*
X464000Y2252000D02*
Y2264000D01*
Y2252000D02*
X487000Y2229000D01*
Y2205391D02*
Y2229000D01*
Y2205391D02*
X498625Y2217016D01*
X487000Y2205281D02*
Y2205391D01*
X498625Y2217016D02*
X513000D01*
X514034Y2218050D02*
X538839D01*
X431641Y2103000D02*
Y2114591D01*
X434790Y2117741D01*
X439191D01*
X445400Y2123950D01*
Y2159679D01*
X522408Y1633592D02*
X523780Y1632220D01*
X542000D01*
X544780Y1635000D01*
X531524Y2179950D02*
X538839D01*
X527241Y2175667D02*
X531524Y2179950D01*
X370391Y2043000D02*
X385349Y2057958D01*
X370281Y2043000D02*
X370391D01*
X487000Y2187891D02*
X499224Y2175667D01*
X378050Y2093180D02*
X385349Y2085881D01*
X378050Y2093180D02*
Y2099839D01*
X385349Y2057958D02*
Y2085881D01*
X447809Y1983641D02*
X461000D01*
X441400Y1990050D02*
X447809Y1983641D01*
X403161Y1990050D02*
X441400D01*
X499224Y2175667D02*
X527241D01*
D15*
X362920Y1081100D02*
D03*
X554020Y284600D02*
D03*
X362920D02*
D03*
X554020Y1081100D02*
D03*
D16*
X487000Y2205281D02*
D03*
Y2188000D02*
D03*
X523000Y2096281D02*
D03*
Y2079000D02*
D03*
X461000Y1966359D02*
D03*
Y1983641D02*
D03*
D17*
X552000Y2114008D02*
D03*
X514000Y2217008D02*
D03*
X432000Y1946992D02*
D03*
X552000Y2083992D02*
D03*
X514000Y2186992D02*
D03*
X432000Y1977008D02*
D03*
D18*
X353000Y2043000D02*
D03*
X370281D02*
D03*
X414359Y2103000D02*
D03*
X431641D02*
D03*
D19*
X344000Y2074000D02*
D03*
X400992Y2132000D02*
D03*
X374016Y2074000D02*
D03*
X431008Y2132000D02*
D03*
D20*
X578839Y2109050D02*
D03*
Y2070950D02*
D03*
X538839Y2218050D02*
D03*
Y2179950D02*
D03*
X403161Y1951950D02*
D03*
Y1990050D02*
D03*
X578839Y2096350D02*
D03*
X538839Y2205350D02*
D03*
X403161Y1964650D02*
D03*
X578839Y2083650D02*
D03*
X538839Y2192650D02*
D03*
X403161Y1977350D02*
D03*
X356839Y1951950D02*
D03*
Y1964650D02*
D03*
X585161Y2205350D02*
D03*
Y2218050D02*
D03*
X625161Y2096350D02*
D03*
Y2109050D02*
D03*
X356839Y1977350D02*
D03*
X585161Y2192650D02*
D03*
X625161Y2083650D02*
D03*
D21*
X339950Y2099839D02*
D03*
X378050D02*
D03*
X407300Y2159679D02*
D03*
X445400D02*
D03*
X352650Y2099839D02*
D03*
X420000Y2159679D02*
D03*
X365350Y2099839D02*
D03*
X432700Y2159679D02*
D03*
X339950Y2146161D02*
D03*
X352650D02*
D03*
X407300Y2206000D02*
D03*
X420000D02*
D03*
X365350Y2146161D02*
D03*
X432700Y2206000D02*
D03*
D22*
X356839Y1990050D02*
D03*
X625161Y2070950D02*
D03*
X585161Y2179950D02*
D03*
D23*
X378050Y2146161D02*
D03*
X445400Y2206000D02*
D03*
D40*
X378050Y2177437D02*
Y2180219D01*
Y2146161D02*
Y2177437D01*
X377517D02*
X378050D01*
X396787D01*
X377000Y2176920D02*
X377517Y2177437D01*
X625580Y2047420D02*
Y2083230D01*
X585580Y2160420D02*
Y2192230D01*
X356920Y1977430D02*
Y2008920D01*
X625161Y2100560D02*
Y2109050D01*
Y2096350D02*
Y2100560D01*
X403350Y2184000D02*
X419156D01*
X396787Y2177437D02*
X403350Y2184000D01*
X585580Y2160420D02*
X586000Y2160000D01*
X625580Y2047420D02*
X626000Y2047000D01*
X625161Y2083650D02*
X625580Y2083230D01*
X311000Y1959000D02*
X318050Y1951950D01*
X356839D02*
Y1964650D01*
X318050Y1951950D02*
X356839D01*
X272432Y2162431D02*
X288702Y2146161D01*
X339950D01*
X352650D01*
X407300Y2206000D02*
X420000D01*
X407300D02*
Y2247300D01*
X424000Y2264000D01*
X627031Y2098690D02*
X657031D01*
X625161Y2100560D02*
X627031Y2098690D01*
X657031D02*
X659721Y2096000D01*
X356839Y1977350D02*
X356920Y1977430D01*
Y2008920D02*
X357000Y2009000D01*
X365350Y2146161D02*
X378050D01*
X419156Y2184000D02*
X432540Y2197384D01*
Y2205840D01*
X432700Y2206000D01*
X445400D01*
X554020Y1081100D02*
X683900D01*
X707000Y1058000D01*
X585161Y2192650D02*
X585580Y2192230D01*
D41*
X369820Y1088000D02*
X392765Y1110945D01*
X362920Y1081100D02*
X369820Y1088000D01*
D42*
X372000D01*
X305000D02*
X369820D01*
X554020Y1081100D02*
Y1086050D01*
X616000Y1148030D01*
Y1203000D01*
D43*
X362920Y284600D02*
X554020D01*
D44*
X585161Y2234582D02*
X607289Y2256711D01*
X585161Y2208000D02*
Y2218050D01*
Y2234582D01*
X659721Y2096000D02*
X670000D01*
D45*
Y2076000D02*
D03*
Y2036000D02*
D03*
Y2016000D02*
D03*
Y1976000D02*
D03*
Y1956000D02*
D03*
Y1996000D02*
D03*
Y2056000D02*
D03*
X635574Y2228426D02*
D03*
X678000Y2186000D02*
D03*
X464000Y2264000D02*
D03*
X524000D02*
D03*
X300716Y2190716D02*
D03*
X343142Y2233142D02*
D03*
X311000Y1999000D02*
D03*
Y2059000D02*
D03*
X306000Y1887000D02*
D03*
Y1787000D02*
D03*
Y1807000D02*
D03*
Y1827000D02*
D03*
Y1847000D02*
D03*
Y1867000D02*
D03*
X706284Y2157716D02*
D03*
X692142Y2171858D02*
D03*
X663858Y2200142D02*
D03*
X649716Y2214284D02*
D03*
X621431Y2242569D02*
D03*
X564000Y2264000D02*
D03*
X544000D02*
D03*
X504000D02*
D03*
X484000D02*
D03*
X444000D02*
D03*
X371426Y2261426D02*
D03*
X357284Y2247284D02*
D03*
X329000Y2219000D02*
D03*
X314858Y2204858D02*
D03*
X286574Y2176574D02*
D03*
X311000Y2099000D02*
D03*
Y2079000D02*
D03*
Y2039000D02*
D03*
Y2019000D02*
D03*
Y1979000D02*
D03*
X306000Y1907000D02*
D03*
D46*
X670000Y2096000D02*
D03*
X306000Y1767000D02*
D03*
X311000Y1959000D02*
D03*
D47*
X284000Y1266200D02*
D03*
Y1342400D02*
D03*
Y1367800D02*
D03*
Y1393200D02*
D03*
Y1444000D02*
D03*
Y1469400D02*
D03*
Y1520200D02*
D03*
Y1571000D02*
D03*
Y1596400D02*
D03*
Y1545600D02*
D03*
Y1494800D02*
D03*
Y1418600D02*
D03*
Y1317000D02*
D03*
Y1291600D02*
D03*
Y1240800D02*
D03*
Y1215400D02*
D03*
Y1190000D02*
D03*
Y1164600D02*
D03*
Y1139200D02*
D03*
X532000Y1493000D02*
D03*
Y1416800D02*
D03*
Y1391400D02*
D03*
Y1366000D02*
D03*
Y1315200D02*
D03*
Y1289800D02*
D03*
Y1239000D02*
D03*
Y1188200D02*
D03*
Y1162800D02*
D03*
Y1213600D02*
D03*
Y1264400D02*
D03*
Y1340600D02*
D03*
Y1442200D02*
D03*
Y1467600D02*
D03*
Y1518400D02*
D03*
Y1543800D02*
D03*
Y1569200D02*
D03*
Y1594600D02*
D03*
Y1620000D02*
D03*
D48*
X284000Y1621800D02*
D03*
X532000Y1137400D02*
D03*
D49*
X707000Y1032600D02*
D03*
Y1007200D02*
D03*
X708000Y1143400D02*
D03*
Y1118000D02*
D03*
D50*
Y1168800D02*
D03*
X707000Y1058000D02*
D03*
D51*
X272432Y2162431D02*
D03*
D52*
X424000Y2264000D02*
D03*
D53*
X607289Y2256711D02*
D03*
D54*
X633520Y406850D02*
D03*
X283420Y958850D02*
D03*
D55*
Y324650D02*
D03*
D56*
X458470Y406850D02*
D03*
Y958850D02*
D03*
D57*
X350000Y2172000D02*
D03*
X368890Y2214000D02*
D03*
X377000Y2176920D02*
D03*
X613147Y1652016D02*
D03*
X666001Y1819216D02*
D03*
X418000Y1665000D02*
D03*
X367552Y1621448D02*
D03*
X431517Y1648532D02*
D03*
X491000Y1646000D02*
D03*
X456000Y1628000D02*
D03*
X506320Y1670320D02*
D03*
X486000Y1673747D02*
D03*
X459760Y1826913D02*
D03*
X399000Y1742000D02*
D03*
X671081Y1800331D02*
D03*
X459966Y2160689D02*
D03*
X500679Y2077509D02*
D03*
X396270Y2099213D02*
D03*
X452816Y2107184D02*
D03*
X475979Y2053000D02*
D03*
X393035Y1873621D02*
D03*
X486000Y2126000D02*
D03*
X586000Y2160000D02*
D03*
X485560Y2166641D02*
D03*
X462089Y2000110D02*
D03*
X626000Y2047000D02*
D03*
X614160Y1819216D02*
D03*
X612514Y1802429D02*
D03*
X594327Y1948953D02*
D03*
X530000Y1712000D02*
D03*
X373095Y2120845D02*
D03*
X407627Y2014991D02*
D03*
X357000Y2009000D02*
D03*
X598000Y1791000D02*
D03*
D58*
X711000Y1393000D02*
D03*
Y1432370D02*
D03*
X639880D02*
D03*
Y1393000D02*
D03*
X616000Y1203000D02*
D03*
X305000Y1088000D02*
D03*
D59*
X714000Y685000D02*
D03*
X715000Y273000D02*
D03*
X278000D02*
D03*
X273000Y2287000D02*
D03*
X716000D02*
D03*
M02*
