G04*
G04 #@! TF.GenerationSoftware,Altium Limited,Altium Designer,22.11.1 (43)*
G04*
G04 Layer_Physical_Order=3*
G04 Layer_Color=16440176*
%FSLAX44Y44*%
%MOMM*%
G71*
G04*
G04 #@! TF.SameCoordinates,B6AE56F5-1224-44F4-9462-935C271CF011*
G04*
G04*
G04 #@! TF.FilePolarity,Positive*
G04*
G01*
G75*
%ADD45C,1.3500*%
%ADD47C,1.6000*%
%ADD48R,1.6000X1.6000*%
%ADD49C,1.7000*%
%ADD50R,1.7000X1.7000*%
%ADD54C,5.0000*%
%ADD55C,3.5000*%
%ADD56C,4.7000*%
%ADD57C,1.2700*%
%ADD58C,2.0000*%
%ADD59C,3.2500*%
G36*
X700450Y2297550D02*
X699349Y2295900D01*
X697932Y2292481D01*
X697210Y2288851D01*
Y2288270D01*
X716000D01*
Y2287000D01*
X717270D01*
Y2268210D01*
X717851D01*
X721481Y2268932D01*
X724900Y2270349D01*
X726550Y2271450D01*
X727755Y2270245D01*
X732689Y692299D01*
X731420Y692045D01*
X730651Y693900D01*
X728595Y696978D01*
X725978Y699595D01*
X722900Y701652D01*
X719481Y703068D01*
X715851Y703790D01*
X715270D01*
Y685000D01*
Y666210D01*
X715851D01*
X719481Y666932D01*
X722900Y668348D01*
X725978Y670405D01*
X728595Y673022D01*
X730651Y676100D01*
X731464Y678061D01*
X732735Y677810D01*
X733980Y279598D01*
X732711Y279343D01*
X731652Y281900D01*
X729595Y284978D01*
X726978Y287595D01*
X723900Y289652D01*
X720481Y291068D01*
X716851Y291790D01*
X716270D01*
Y273000D01*
X715000D01*
Y271730D01*
X696210D01*
Y271149D01*
X696932Y267519D01*
X698348Y264100D01*
X700405Y261022D01*
X703022Y258405D01*
X706100Y256348D01*
X708036Y255546D01*
X707777Y254279D01*
X291922Y258693D01*
X291442Y259869D01*
X292595Y261022D01*
X294652Y264100D01*
X296068Y267519D01*
X296790Y271149D01*
Y271730D01*
X259210D01*
Y271149D01*
X259932Y267519D01*
X261348Y264100D01*
X263405Y261022D01*
X263609Y260818D01*
X263156Y259475D01*
X262601Y259399D01*
X255000Y267000D01*
Y954120D01*
X256270Y954220D01*
X256558Y952401D01*
X257898Y948278D01*
X259866Y944416D01*
X262414Y940909D01*
X265479Y937844D01*
X268986Y935296D01*
X272848Y933328D01*
X276971Y931988D01*
X281252Y931310D01*
X285588D01*
X289869Y931988D01*
X293992Y933328D01*
X297854Y935296D01*
X301361Y937844D01*
X304426Y940909D01*
X306974Y944416D01*
X308942Y948278D01*
X310282Y952401D01*
X310960Y956683D01*
Y961018D01*
X310282Y965299D01*
X308942Y969422D01*
X306974Y973284D01*
X304426Y976791D01*
X301361Y979856D01*
X297854Y982404D01*
X293992Y984372D01*
X289869Y985712D01*
X285588Y986390D01*
X281252D01*
X276971Y985712D01*
X272848Y984372D01*
X268986Y982404D01*
X265479Y979856D01*
X262414Y976791D01*
X259866Y973284D01*
X257898Y969422D01*
X256558Y965299D01*
X256270Y963480D01*
X255000Y963580D01*
Y2278100D01*
X256246Y2278348D01*
X256348Y2278100D01*
X258405Y2275022D01*
X261022Y2272405D01*
X264100Y2270349D01*
X267519Y2268932D01*
X271149Y2268210D01*
X271730D01*
Y2287000D01*
X273000D01*
Y2288270D01*
X291790D01*
Y2288851D01*
X291068Y2292481D01*
X289652Y2295900D01*
X287595Y2298978D01*
X284978Y2301595D01*
X281900Y2303651D01*
X279297Y2304730D01*
X279549Y2306000D01*
X692000D01*
X700450Y2297550D01*
D02*
G37*
%LPC*%
G36*
X714730Y2285730D02*
X697210D01*
Y2285149D01*
X697932Y2281519D01*
X699349Y2278100D01*
X701405Y2275022D01*
X704022Y2272405D01*
X707100Y2270349D01*
X710519Y2268932D01*
X714149Y2268210D01*
X714730D01*
Y2285730D01*
D02*
G37*
G36*
X291790D02*
X274270D01*
Y2268210D01*
X274851D01*
X278481Y2268932D01*
X281900Y2270349D01*
X284978Y2272405D01*
X287595Y2275022D01*
X289652Y2278100D01*
X291068Y2281519D01*
X291790Y2285149D01*
Y2285730D01*
D02*
G37*
G36*
X465270Y2273277D02*
Y2265270D01*
X473277D01*
X472657Y2267586D01*
X471434Y2269704D01*
X469704Y2271434D01*
X467586Y2272657D01*
X465270Y2273277D01*
D02*
G37*
G36*
X462730D02*
X460414Y2272657D01*
X458296Y2271434D01*
X456566Y2269704D01*
X455343Y2267586D01*
X454723Y2265270D01*
X462730D01*
Y2273277D01*
D02*
G37*
G36*
X473277Y2262730D02*
X465270D01*
Y2254723D01*
X467586Y2255343D01*
X469704Y2256566D01*
X471434Y2258296D01*
X472657Y2260414D01*
X473277Y2262730D01*
D02*
G37*
G36*
X462730D02*
X454723D01*
X455343Y2260414D01*
X456566Y2258296D01*
X458296Y2256566D01*
X460414Y2255343D01*
X462730Y2254723D01*
Y2262730D01*
D02*
G37*
G36*
X565223Y2273290D02*
X562777D01*
X560414Y2272657D01*
X558296Y2271434D01*
X556566Y2269704D01*
X555343Y2267586D01*
X554710Y2265223D01*
Y2262777D01*
X555343Y2260414D01*
X556566Y2258296D01*
X558296Y2256566D01*
X560414Y2255343D01*
X562777Y2254710D01*
X565223D01*
X567586Y2255343D01*
X569704Y2256566D01*
X571434Y2258296D01*
X572657Y2260414D01*
X573290Y2262777D01*
Y2265223D01*
X572657Y2267586D01*
X571434Y2269704D01*
X569704Y2271434D01*
X567586Y2272657D01*
X565223Y2273290D01*
D02*
G37*
G36*
X545223D02*
X542777D01*
X540414Y2272657D01*
X538296Y2271434D01*
X536566Y2269704D01*
X535343Y2267586D01*
X534710Y2265223D01*
Y2262777D01*
X535343Y2260414D01*
X536566Y2258296D01*
X538296Y2256566D01*
X540414Y2255343D01*
X542777Y2254710D01*
X545223D01*
X547586Y2255343D01*
X549704Y2256566D01*
X551434Y2258296D01*
X552657Y2260414D01*
X553290Y2262777D01*
Y2265223D01*
X552657Y2267586D01*
X551434Y2269704D01*
X549704Y2271434D01*
X547586Y2272657D01*
X545223Y2273290D01*
D02*
G37*
G36*
X525223D02*
X522777D01*
X520414Y2272657D01*
X518296Y2271434D01*
X516566Y2269704D01*
X515343Y2267586D01*
X514710Y2265223D01*
Y2262777D01*
X515343Y2260414D01*
X516566Y2258296D01*
X518296Y2256566D01*
X520414Y2255343D01*
X522777Y2254710D01*
X525223D01*
X527586Y2255343D01*
X529704Y2256566D01*
X531434Y2258296D01*
X532657Y2260414D01*
X533290Y2262777D01*
Y2265223D01*
X532657Y2267586D01*
X531434Y2269704D01*
X529704Y2271434D01*
X527586Y2272657D01*
X525223Y2273290D01*
D02*
G37*
G36*
X505223D02*
X502777D01*
X500414Y2272657D01*
X498296Y2271434D01*
X496566Y2269704D01*
X495343Y2267586D01*
X494710Y2265223D01*
Y2262777D01*
X495343Y2260414D01*
X496566Y2258296D01*
X498296Y2256566D01*
X500414Y2255343D01*
X502777Y2254710D01*
X505223D01*
X507586Y2255343D01*
X509704Y2256566D01*
X511434Y2258296D01*
X512657Y2260414D01*
X513290Y2262777D01*
Y2265223D01*
X512657Y2267586D01*
X511434Y2269704D01*
X509704Y2271434D01*
X507586Y2272657D01*
X505223Y2273290D01*
D02*
G37*
G36*
X485223D02*
X482777D01*
X480414Y2272657D01*
X478296Y2271434D01*
X476566Y2269704D01*
X475343Y2267586D01*
X474710Y2265223D01*
Y2262777D01*
X475343Y2260414D01*
X476566Y2258296D01*
X478296Y2256566D01*
X480414Y2255343D01*
X482777Y2254710D01*
X485223D01*
X487586Y2255343D01*
X489704Y2256566D01*
X491434Y2258296D01*
X492657Y2260414D01*
X493290Y2262777D01*
Y2265223D01*
X492657Y2267586D01*
X491434Y2269704D01*
X489704Y2271434D01*
X487586Y2272657D01*
X485223Y2273290D01*
D02*
G37*
G36*
X445223D02*
X442777D01*
X440414Y2272657D01*
X438296Y2271434D01*
X436566Y2269704D01*
X435343Y2267586D01*
X434710Y2265223D01*
Y2262777D01*
X435343Y2260414D01*
X436566Y2258296D01*
X438296Y2256566D01*
X440414Y2255343D01*
X442777Y2254710D01*
X445223D01*
X447586Y2255343D01*
X449704Y2256566D01*
X451434Y2258296D01*
X452657Y2260414D01*
X453290Y2262777D01*
Y2265223D01*
X452657Y2267586D01*
X451434Y2269704D01*
X449704Y2271434D01*
X447586Y2272657D01*
X445223Y2273290D01*
D02*
G37*
G36*
X425223D02*
X422777D01*
X420414Y2272657D01*
X418296Y2271434D01*
X416566Y2269704D01*
X415343Y2267586D01*
X414710Y2265223D01*
Y2262777D01*
X415343Y2260414D01*
X416566Y2258296D01*
X418296Y2256566D01*
X420414Y2255343D01*
X422777Y2254710D01*
X425223D01*
X427586Y2255343D01*
X429704Y2256566D01*
X431434Y2258296D01*
X432657Y2260414D01*
X433290Y2262777D01*
Y2265223D01*
X432657Y2267586D01*
X431434Y2269704D01*
X429704Y2271434D01*
X427586Y2272657D01*
X425223Y2273290D01*
D02*
G37*
G36*
X372649Y2270716D02*
X370203D01*
X367841Y2270083D01*
X365722Y2268860D01*
X363993Y2267131D01*
X362770Y2265012D01*
X362136Y2262649D01*
Y2260203D01*
X362770Y2257841D01*
X363993Y2255722D01*
X365722Y2253993D01*
X367841Y2252769D01*
X370203Y2252136D01*
X372649D01*
X375012Y2252769D01*
X377131Y2253993D01*
X378860Y2255722D01*
X380083Y2257841D01*
X380716Y2260203D01*
Y2262649D01*
X380083Y2265012D01*
X378860Y2267131D01*
X377131Y2268860D01*
X375012Y2270083D01*
X372649Y2270716D01*
D02*
G37*
G36*
X608512Y2266001D02*
X606066D01*
X603703Y2265368D01*
X601585Y2264144D01*
X599855Y2262415D01*
X598632Y2260296D01*
X597999Y2257934D01*
Y2255488D01*
X598632Y2253125D01*
X599855Y2251006D01*
X601585Y2249277D01*
X603703Y2248054D01*
X606066Y2247421D01*
X608512D01*
X610875Y2248054D01*
X612994Y2249277D01*
X614723Y2251006D01*
X615946Y2253125D01*
X616579Y2255488D01*
Y2257934D01*
X615946Y2260296D01*
X614723Y2262415D01*
X612994Y2264144D01*
X610875Y2265368D01*
X608512Y2266001D01*
D02*
G37*
G36*
X358507Y2256574D02*
X356061D01*
X353699Y2255941D01*
X351580Y2254718D01*
X349850Y2252988D01*
X348627Y2250870D01*
X347994Y2248507D01*
Y2246061D01*
X348627Y2243698D01*
X349850Y2241580D01*
X351580Y2239850D01*
X353699Y2238627D01*
X356061Y2237994D01*
X358507D01*
X360870Y2238627D01*
X362989Y2239850D01*
X364718Y2241580D01*
X365941Y2243698D01*
X366574Y2246061D01*
Y2248507D01*
X365941Y2250870D01*
X364718Y2252988D01*
X362989Y2254718D01*
X360870Y2255941D01*
X358507Y2256574D01*
D02*
G37*
G36*
X622654Y2251859D02*
X620208D01*
X617846Y2251225D01*
X615727Y2250002D01*
X613998Y2248273D01*
X612775Y2246154D01*
X612141Y2243792D01*
Y2241346D01*
X612775Y2238983D01*
X613998Y2236864D01*
X615727Y2235135D01*
X617846Y2233912D01*
X620208Y2233279D01*
X622654D01*
X625017Y2233912D01*
X627136Y2235135D01*
X628865Y2236864D01*
X630088Y2238983D01*
X630721Y2241346D01*
Y2243792D01*
X630088Y2246154D01*
X628865Y2248273D01*
X627136Y2250002D01*
X625017Y2251225D01*
X622654Y2251859D01*
D02*
G37*
G36*
X636797Y2237716D02*
X634351D01*
X631988Y2237083D01*
X629911Y2235885D01*
X635574Y2230222D01*
X641236Y2235885D01*
X639159Y2237083D01*
X636797Y2237716D01*
D02*
G37*
G36*
X344365Y2242432D02*
X341919D01*
X339556Y2241799D01*
X337438Y2240576D01*
X335708Y2238846D01*
X334485Y2236728D01*
X333852Y2234365D01*
Y2231919D01*
X334485Y2229556D01*
X335708Y2227438D01*
X337438Y2225708D01*
X339556Y2224485D01*
X341919Y2223852D01*
X344365D01*
X346728Y2224485D01*
X348846Y2225708D01*
X350576Y2227438D01*
X351799Y2229556D01*
X352432Y2231919D01*
Y2234365D01*
X351799Y2236728D01*
X350576Y2238846D01*
X348846Y2240576D01*
X346728Y2241799D01*
X344365Y2242432D01*
D02*
G37*
G36*
X643032Y2234088D02*
X637370Y2228426D01*
X643032Y2222764D01*
X644230Y2224841D01*
X644864Y2227203D01*
Y2229649D01*
X644230Y2232012D01*
X643032Y2234088D01*
D02*
G37*
G36*
X628116Y2234088D02*
X626917Y2232012D01*
X626284Y2229649D01*
Y2227203D01*
X626917Y2224841D01*
X628116Y2222764D01*
X633778Y2228426D01*
X628116Y2234088D01*
D02*
G37*
G36*
X635574Y2226630D02*
X629911Y2220968D01*
X631988Y2219769D01*
X634351Y2219136D01*
X636797D01*
X639159Y2219769D01*
X641236Y2220968D01*
X635574Y2226630D01*
D02*
G37*
G36*
X330223Y2228290D02*
X327777D01*
X325414Y2227657D01*
X323296Y2226434D01*
X321566Y2224704D01*
X320343Y2222586D01*
X319710Y2220223D01*
Y2217777D01*
X320343Y2215414D01*
X321566Y2213296D01*
X323296Y2211566D01*
X325414Y2210343D01*
X327777Y2209710D01*
X330223D01*
X332586Y2210343D01*
X334704Y2211566D01*
X336434Y2213296D01*
X337657Y2215414D01*
X338290Y2217777D01*
Y2220223D01*
X337657Y2222586D01*
X336434Y2224704D01*
X334704Y2226434D01*
X332586Y2227657D01*
X330223Y2228290D01*
D02*
G37*
G36*
X370060Y2222890D02*
X367720D01*
X365459Y2222284D01*
X363431Y2221114D01*
X361776Y2219459D01*
X360606Y2217431D01*
X360000Y2215170D01*
Y2212830D01*
X360606Y2210569D01*
X361776Y2208541D01*
X363431Y2206886D01*
X365459Y2205716D01*
X367720Y2205110D01*
X370060D01*
X372321Y2205716D01*
X374349Y2206886D01*
X376004Y2208541D01*
X377174Y2210569D01*
X377780Y2212830D01*
Y2215170D01*
X377174Y2217431D01*
X376004Y2219459D01*
X374349Y2221114D01*
X372321Y2222284D01*
X370060Y2222890D01*
D02*
G37*
G36*
X650939Y2223574D02*
X648493D01*
X646130Y2222941D01*
X644012Y2221718D01*
X642282Y2219988D01*
X641059Y2217870D01*
X640426Y2215507D01*
Y2213061D01*
X641059Y2210698D01*
X642282Y2208580D01*
X644012Y2206850D01*
X646130Y2205627D01*
X648493Y2204994D01*
X650939D01*
X653301Y2205627D01*
X655420Y2206850D01*
X657150Y2208580D01*
X658373Y2210698D01*
X659006Y2213061D01*
Y2215507D01*
X658373Y2217870D01*
X657150Y2219988D01*
X655420Y2221718D01*
X653301Y2222941D01*
X650939Y2223574D01*
D02*
G37*
G36*
X316081Y2214148D02*
X313635D01*
X311272Y2213515D01*
X309154Y2212292D01*
X307424Y2210562D01*
X306201Y2208444D01*
X305568Y2206081D01*
Y2203635D01*
X306201Y2201272D01*
X307424Y2199154D01*
X309154Y2197424D01*
X311272Y2196201D01*
X313635Y2195568D01*
X316081D01*
X318444Y2196201D01*
X320562Y2197424D01*
X322292Y2199154D01*
X323515Y2201272D01*
X324148Y2203635D01*
Y2206081D01*
X323515Y2208444D01*
X322292Y2210562D01*
X320562Y2212292D01*
X318444Y2213515D01*
X316081Y2214148D01*
D02*
G37*
G36*
X301939Y2200006D02*
X299493D01*
X297130Y2199373D01*
X295054Y2198174D01*
X300716Y2192512D01*
X306378Y2198174D01*
X304302Y2199373D01*
X301939Y2200006D01*
D02*
G37*
G36*
X665081Y2209432D02*
X662635D01*
X660272Y2208799D01*
X658154Y2207576D01*
X656424Y2205846D01*
X655201Y2203728D01*
X654568Y2201365D01*
Y2198919D01*
X655201Y2196556D01*
X656424Y2194438D01*
X658154Y2192708D01*
X660272Y2191485D01*
X662635Y2190852D01*
X665081D01*
X667444Y2191485D01*
X669562Y2192708D01*
X671292Y2194438D01*
X672515Y2196556D01*
X673148Y2198919D01*
Y2201365D01*
X672515Y2203728D01*
X671292Y2205846D01*
X669562Y2207576D01*
X667444Y2208799D01*
X665081Y2209432D01*
D02*
G37*
G36*
X293258Y2196378D02*
X292059Y2194302D01*
X291426Y2191939D01*
Y2189493D01*
X292059Y2187130D01*
X293258Y2185054D01*
X298920Y2190716D01*
X293258Y2196378D01*
D02*
G37*
G36*
X308174Y2196378D02*
X302512Y2190716D01*
X308174Y2185054D01*
X309373Y2187130D01*
X310006Y2189493D01*
Y2191939D01*
X309373Y2194302D01*
X308174Y2196378D01*
D02*
G37*
G36*
X300716Y2188920D02*
X295054Y2183258D01*
X297130Y2182059D01*
X299493Y2181426D01*
X301939D01*
X304302Y2182059D01*
X306378Y2183258D01*
X300716Y2188920D01*
D02*
G37*
G36*
X679223Y2195290D02*
X676777D01*
X674414Y2194657D01*
X672296Y2193434D01*
X670566Y2191704D01*
X669343Y2189586D01*
X668710Y2187223D01*
Y2184777D01*
X669343Y2182414D01*
X670566Y2180296D01*
X672296Y2178566D01*
X674414Y2177343D01*
X676777Y2176710D01*
X679223D01*
X681586Y2177343D01*
X683704Y2178566D01*
X685434Y2180296D01*
X686657Y2182414D01*
X687290Y2184777D01*
Y2187223D01*
X686657Y2189586D01*
X685434Y2191704D01*
X683704Y2193434D01*
X681586Y2194657D01*
X679223Y2195290D01*
D02*
G37*
G36*
X378170Y2185810D02*
X375830D01*
X373569Y2185204D01*
X371541Y2184034D01*
X369886Y2182379D01*
X368716Y2180351D01*
X368110Y2178090D01*
Y2175750D01*
X368716Y2173489D01*
X369886Y2171461D01*
X371541Y2169806D01*
X373569Y2168636D01*
X375830Y2168030D01*
X378170D01*
X380431Y2168636D01*
X382459Y2169806D01*
X384114Y2171461D01*
X385284Y2173489D01*
X385890Y2175750D01*
Y2178090D01*
X385284Y2180351D01*
X384114Y2182379D01*
X382459Y2184034D01*
X380431Y2185204D01*
X378170Y2185810D01*
D02*
G37*
G36*
X287797Y2185864D02*
X285351D01*
X282988Y2185231D01*
X280869Y2184007D01*
X279140Y2182278D01*
X277917Y2180159D01*
X277284Y2177797D01*
Y2175351D01*
X277917Y2172988D01*
X279140Y2170869D01*
X280869Y2169140D01*
X282988Y2167917D01*
X285351Y2167284D01*
X287797D01*
X290159Y2167917D01*
X292278Y2169140D01*
X294007Y2170869D01*
X295231Y2172988D01*
X295864Y2175351D01*
Y2177797D01*
X295231Y2180159D01*
X294007Y2182278D01*
X292278Y2184007D01*
X290159Y2185231D01*
X287797Y2185864D01*
D02*
G37*
G36*
X351170Y2180890D02*
X348830D01*
X346569Y2180284D01*
X344541Y2179114D01*
X342886Y2177459D01*
X341716Y2175431D01*
X341110Y2173170D01*
Y2170830D01*
X341716Y2168569D01*
X342886Y2166541D01*
X344541Y2164886D01*
X346569Y2163716D01*
X348830Y2163110D01*
X351170D01*
X353431Y2163716D01*
X355459Y2164886D01*
X357114Y2166541D01*
X358284Y2168569D01*
X358890Y2170830D01*
Y2173170D01*
X358284Y2175431D01*
X357114Y2177459D01*
X355459Y2179114D01*
X353431Y2180284D01*
X351170Y2180890D01*
D02*
G37*
G36*
X693365Y2181148D02*
X690919D01*
X688556Y2180515D01*
X686438Y2179292D01*
X684708Y2177562D01*
X683485Y2175444D01*
X682852Y2173081D01*
Y2170635D01*
X683485Y2168272D01*
X684708Y2166154D01*
X686438Y2164424D01*
X688556Y2163201D01*
X690919Y2162568D01*
X693365D01*
X695728Y2163201D01*
X697846Y2164424D01*
X699576Y2166154D01*
X700799Y2168272D01*
X701432Y2170635D01*
Y2173081D01*
X700799Y2175444D01*
X699576Y2177562D01*
X697846Y2179292D01*
X695728Y2180515D01*
X693365Y2181148D01*
D02*
G37*
G36*
X486731Y2175531D02*
X484390D01*
X482129Y2174925D01*
X480102Y2173754D01*
X478447Y2172099D01*
X477276Y2170072D01*
X476670Y2167811D01*
Y2165470D01*
X477276Y2163209D01*
X478447Y2161182D01*
X480102Y2159527D01*
X482129Y2158357D01*
X484390Y2157751D01*
X486731D01*
X488992Y2158357D01*
X491019Y2159527D01*
X492674Y2161182D01*
X493844Y2163209D01*
X494450Y2165470D01*
Y2167811D01*
X493844Y2170072D01*
X492674Y2172099D01*
X491019Y2173754D01*
X488992Y2174925D01*
X486731Y2175531D01*
D02*
G37*
G36*
X273654Y2171721D02*
X271208D01*
X268846Y2171088D01*
X266727Y2169865D01*
X264998Y2168136D01*
X263775Y2166017D01*
X263141Y2163654D01*
Y2161208D01*
X263775Y2158846D01*
X264998Y2156727D01*
X266727Y2154998D01*
X268846Y2153775D01*
X271208Y2153141D01*
X273654D01*
X276017Y2153775D01*
X278136Y2154998D01*
X279865Y2156727D01*
X281088Y2158846D01*
X281721Y2161208D01*
Y2163654D01*
X281088Y2166017D01*
X279865Y2168136D01*
X278136Y2169865D01*
X276017Y2171088D01*
X273654Y2171721D01*
D02*
G37*
G36*
X461136Y2169579D02*
X458795D01*
X456534Y2168973D01*
X454507Y2167803D01*
X452852Y2166148D01*
X451681Y2164120D01*
X451076Y2161859D01*
Y2159519D01*
X451681Y2157258D01*
X452852Y2155231D01*
X454507Y2153575D01*
X456534Y2152405D01*
X458795Y2151799D01*
X461136D01*
X463397Y2152405D01*
X465424Y2153575D01*
X467079Y2155231D01*
X468250Y2157258D01*
X468856Y2159519D01*
Y2161859D01*
X468250Y2164120D01*
X467079Y2166148D01*
X465424Y2167803D01*
X463397Y2168973D01*
X461136Y2169579D01*
D02*
G37*
G36*
X587170Y2168890D02*
X584830D01*
X582569Y2168284D01*
X580541Y2167114D01*
X578886Y2165459D01*
X577716Y2163431D01*
X577110Y2161170D01*
Y2158830D01*
X577716Y2156569D01*
X578886Y2154541D01*
X580541Y2152886D01*
X582569Y2151716D01*
X584830Y2151110D01*
X587170D01*
X589431Y2151716D01*
X591459Y2152886D01*
X593114Y2154541D01*
X594284Y2156569D01*
X594890Y2158830D01*
Y2161170D01*
X594284Y2163431D01*
X593114Y2165459D01*
X591459Y2167114D01*
X589431Y2168284D01*
X587170Y2168890D01*
D02*
G37*
G36*
X707507Y2167006D02*
X705061D01*
X702698Y2166373D01*
X700580Y2165150D01*
X698850Y2163420D01*
X697627Y2161302D01*
X696994Y2158939D01*
Y2156493D01*
X697627Y2154130D01*
X698850Y2152012D01*
X700580Y2150282D01*
X702698Y2149059D01*
X705061Y2148426D01*
X707507D01*
X709870Y2149059D01*
X711988Y2150282D01*
X713718Y2152012D01*
X714941Y2154130D01*
X715574Y2156493D01*
Y2158939D01*
X714941Y2161302D01*
X713718Y2163420D01*
X711988Y2165150D01*
X709870Y2166373D01*
X707507Y2167006D01*
D02*
G37*
G36*
X487170Y2134890D02*
X484830D01*
X482569Y2134284D01*
X480541Y2133114D01*
X478886Y2131459D01*
X477716Y2129431D01*
X477110Y2127170D01*
Y2124830D01*
X477716Y2122569D01*
X478886Y2120541D01*
X480541Y2118886D01*
X482569Y2117716D01*
X484830Y2117110D01*
X487170D01*
X489431Y2117716D01*
X491459Y2118886D01*
X493114Y2120541D01*
X494284Y2122569D01*
X494890Y2124830D01*
Y2127170D01*
X494284Y2129431D01*
X493114Y2131459D01*
X491459Y2133114D01*
X489431Y2134284D01*
X487170Y2134890D01*
D02*
G37*
G36*
X374266Y2129735D02*
X371925D01*
X369664Y2129129D01*
X367637Y2127959D01*
X365982Y2126303D01*
X364811Y2124276D01*
X364205Y2122015D01*
Y2119674D01*
X364811Y2117413D01*
X365982Y2115386D01*
X367637Y2113731D01*
X369664Y2112561D01*
X371925Y2111955D01*
X374266D01*
X376527Y2112561D01*
X378554Y2113731D01*
X380209Y2115386D01*
X381380Y2117413D01*
X381985Y2119674D01*
Y2122015D01*
X381380Y2124276D01*
X380209Y2126303D01*
X378554Y2127959D01*
X376527Y2129129D01*
X374266Y2129735D01*
D02*
G37*
G36*
X453986Y2116074D02*
X451645D01*
X449384Y2115468D01*
X447357Y2114298D01*
X445702Y2112643D01*
X444532Y2110616D01*
X443926Y2108355D01*
Y2106014D01*
X444532Y2103753D01*
X445702Y2101726D01*
X447357Y2100070D01*
X449384Y2098900D01*
X451645Y2098294D01*
X453986D01*
X456247Y2098900D01*
X458274Y2100070D01*
X459930Y2101726D01*
X461100Y2103753D01*
X461706Y2106014D01*
Y2108355D01*
X461100Y2110616D01*
X459930Y2112643D01*
X458274Y2114298D01*
X456247Y2115468D01*
X453986Y2116074D01*
D02*
G37*
G36*
X397440Y2108103D02*
X395100D01*
X392839Y2107497D01*
X390811Y2106327D01*
X389156Y2104671D01*
X387986Y2102644D01*
X387380Y2100383D01*
Y2098042D01*
X387986Y2095782D01*
X389156Y2093754D01*
X390811Y2092099D01*
X392839Y2090929D01*
X395100Y2090323D01*
X397440D01*
X399701Y2090929D01*
X401729Y2092099D01*
X403384Y2093754D01*
X404554Y2095782D01*
X405160Y2098042D01*
Y2100383D01*
X404554Y2102644D01*
X403384Y2104671D01*
X401729Y2106327D01*
X399701Y2107497D01*
X397440Y2108103D01*
D02*
G37*
G36*
X312223Y2108290D02*
X309777D01*
X307414Y2107657D01*
X305296Y2106434D01*
X303566Y2104704D01*
X302343Y2102586D01*
X301710Y2100223D01*
Y2097777D01*
X302343Y2095414D01*
X303566Y2093296D01*
X305296Y2091566D01*
X307414Y2090343D01*
X309777Y2089710D01*
X312223D01*
X314586Y2090343D01*
X316704Y2091566D01*
X318434Y2093296D01*
X319657Y2095414D01*
X320290Y2097777D01*
Y2100223D01*
X319657Y2102586D01*
X318434Y2104704D01*
X316704Y2106434D01*
X314586Y2107657D01*
X312223Y2108290D01*
D02*
G37*
G36*
X671223Y2105290D02*
X668777D01*
X666414Y2104657D01*
X664296Y2103434D01*
X662566Y2101704D01*
X661343Y2099586D01*
X660710Y2097223D01*
Y2094777D01*
X661343Y2092414D01*
X662566Y2090296D01*
X664296Y2088566D01*
X666414Y2087343D01*
X668777Y2086710D01*
X671223D01*
X673586Y2087343D01*
X675704Y2088566D01*
X677434Y2090296D01*
X678657Y2092414D01*
X679290Y2094777D01*
Y2097223D01*
X678657Y2099586D01*
X677434Y2101704D01*
X675704Y2103434D01*
X673586Y2104657D01*
X671223Y2105290D01*
D02*
G37*
G36*
X312223Y2088290D02*
X309777D01*
X307414Y2087657D01*
X305296Y2086434D01*
X303566Y2084704D01*
X302343Y2082586D01*
X301710Y2080223D01*
Y2077777D01*
X302343Y2075414D01*
X303566Y2073296D01*
X305296Y2071566D01*
X307414Y2070343D01*
X309777Y2069710D01*
X312223D01*
X314586Y2070343D01*
X316704Y2071566D01*
X318434Y2073296D01*
X319657Y2075414D01*
X320290Y2077777D01*
Y2080223D01*
X319657Y2082586D01*
X318434Y2084704D01*
X316704Y2086434D01*
X314586Y2087657D01*
X312223Y2088290D01*
D02*
G37*
G36*
X501849Y2086399D02*
X499509D01*
X497247Y2085793D01*
X495220Y2084622D01*
X493565Y2082967D01*
X492395Y2080940D01*
X491789Y2078679D01*
Y2076338D01*
X492395Y2074077D01*
X493565Y2072050D01*
X495220Y2070395D01*
X497247Y2069225D01*
X499509Y2068619D01*
X501849D01*
X504110Y2069225D01*
X506137Y2070395D01*
X507793Y2072050D01*
X508963Y2074077D01*
X509569Y2076338D01*
Y2078679D01*
X508963Y2080940D01*
X507793Y2082967D01*
X506137Y2084622D01*
X504110Y2085793D01*
X501849Y2086399D01*
D02*
G37*
G36*
X671223Y2085290D02*
X668777D01*
X666414Y2084657D01*
X664296Y2083434D01*
X662566Y2081704D01*
X661343Y2079586D01*
X660710Y2077223D01*
Y2074777D01*
X661343Y2072414D01*
X662566Y2070296D01*
X664296Y2068566D01*
X666414Y2067343D01*
X668777Y2066710D01*
X671223D01*
X673586Y2067343D01*
X675704Y2068566D01*
X677434Y2070296D01*
X678657Y2072414D01*
X679290Y2074777D01*
Y2077223D01*
X678657Y2079586D01*
X677434Y2081704D01*
X675704Y2083434D01*
X673586Y2084657D01*
X671223Y2085290D01*
D02*
G37*
G36*
X671270Y2065277D02*
Y2057270D01*
X679277D01*
X678657Y2059586D01*
X677434Y2061704D01*
X675704Y2063434D01*
X673586Y2064657D01*
X671270Y2065277D01*
D02*
G37*
G36*
X668730D02*
X666414Y2064657D01*
X664296Y2063434D01*
X662566Y2061704D01*
X661343Y2059586D01*
X660723Y2057270D01*
X668730D01*
Y2065277D01*
D02*
G37*
G36*
X312223Y2068290D02*
X309777D01*
X307414Y2067657D01*
X305296Y2066434D01*
X303566Y2064704D01*
X302343Y2062586D01*
X301710Y2060223D01*
Y2057777D01*
X302343Y2055414D01*
X303566Y2053296D01*
X305296Y2051566D01*
X307414Y2050343D01*
X309777Y2049710D01*
X312223D01*
X314586Y2050343D01*
X316704Y2051566D01*
X318434Y2053296D01*
X319657Y2055414D01*
X320290Y2057777D01*
Y2060223D01*
X319657Y2062586D01*
X318434Y2064704D01*
X316704Y2066434D01*
X314586Y2067657D01*
X312223Y2068290D01*
D02*
G37*
G36*
X679277Y2054730D02*
X671270D01*
Y2046723D01*
X673586Y2047343D01*
X675704Y2048566D01*
X677434Y2050296D01*
X678657Y2052414D01*
X679277Y2054730D01*
D02*
G37*
G36*
X668730D02*
X660723D01*
X661343Y2052414D01*
X662566Y2050296D01*
X664296Y2048566D01*
X666414Y2047343D01*
X668730Y2046723D01*
Y2054730D01*
D02*
G37*
G36*
X477149Y2061890D02*
X474808D01*
X472547Y2061284D01*
X470520Y2060114D01*
X468865Y2058459D01*
X467695Y2056431D01*
X467089Y2054170D01*
Y2051830D01*
X467695Y2049569D01*
X468865Y2047541D01*
X470520Y2045886D01*
X472547Y2044716D01*
X474808Y2044110D01*
X477149D01*
X479410Y2044716D01*
X481437Y2045886D01*
X483092Y2047541D01*
X484263Y2049569D01*
X484869Y2051830D01*
Y2054170D01*
X484263Y2056431D01*
X483092Y2058459D01*
X481437Y2060114D01*
X479410Y2061284D01*
X477149Y2061890D01*
D02*
G37*
G36*
X627170Y2055890D02*
X624830D01*
X622569Y2055284D01*
X620541Y2054114D01*
X618886Y2052459D01*
X617716Y2050431D01*
X617110Y2048170D01*
Y2045830D01*
X617716Y2043569D01*
X618886Y2041541D01*
X620541Y2039886D01*
X622569Y2038716D01*
X624830Y2038110D01*
X627170D01*
X629431Y2038716D01*
X631459Y2039886D01*
X633114Y2041541D01*
X634284Y2043569D01*
X634890Y2045830D01*
Y2048170D01*
X634284Y2050431D01*
X633114Y2052459D01*
X631459Y2054114D01*
X629431Y2055284D01*
X627170Y2055890D01*
D02*
G37*
G36*
X312223Y2048290D02*
X309777D01*
X307414Y2047657D01*
X305296Y2046434D01*
X303566Y2044704D01*
X302343Y2042586D01*
X301710Y2040223D01*
Y2037777D01*
X302343Y2035414D01*
X303566Y2033296D01*
X305296Y2031566D01*
X307414Y2030343D01*
X309777Y2029710D01*
X312223D01*
X314586Y2030343D01*
X316704Y2031566D01*
X318434Y2033296D01*
X319657Y2035414D01*
X320290Y2037777D01*
Y2040223D01*
X319657Y2042586D01*
X318434Y2044704D01*
X316704Y2046434D01*
X314586Y2047657D01*
X312223Y2048290D01*
D02*
G37*
G36*
X671223Y2045290D02*
X668777D01*
X666414Y2044657D01*
X664296Y2043434D01*
X662566Y2041704D01*
X661343Y2039586D01*
X660710Y2037223D01*
Y2034777D01*
X661343Y2032414D01*
X662566Y2030296D01*
X664296Y2028566D01*
X666414Y2027343D01*
X668777Y2026710D01*
X671223D01*
X673586Y2027343D01*
X675704Y2028566D01*
X677434Y2030296D01*
X678657Y2032414D01*
X679290Y2034777D01*
Y2037223D01*
X678657Y2039586D01*
X677434Y2041704D01*
X675704Y2043434D01*
X673586Y2044657D01*
X671223Y2045290D01*
D02*
G37*
G36*
X312223Y2028290D02*
X309777D01*
X307414Y2027657D01*
X305296Y2026434D01*
X303566Y2024704D01*
X302343Y2022586D01*
X301710Y2020223D01*
Y2017777D01*
X302343Y2015414D01*
X303566Y2013296D01*
X305296Y2011566D01*
X307414Y2010343D01*
X309777Y2009710D01*
X312223D01*
X314586Y2010343D01*
X316704Y2011566D01*
X318434Y2013296D01*
X319657Y2015414D01*
X320290Y2017777D01*
Y2020223D01*
X319657Y2022586D01*
X318434Y2024704D01*
X316704Y2026434D01*
X314586Y2027657D01*
X312223Y2028290D01*
D02*
G37*
G36*
X671223Y2025290D02*
X668777D01*
X666414Y2024657D01*
X664296Y2023434D01*
X662566Y2021704D01*
X661343Y2019586D01*
X660710Y2017223D01*
Y2014777D01*
X661343Y2012414D01*
X662566Y2010296D01*
X664296Y2008566D01*
X666414Y2007343D01*
X668777Y2006710D01*
X671223D01*
X673586Y2007343D01*
X675704Y2008566D01*
X677434Y2010296D01*
X678657Y2012414D01*
X679290Y2014777D01*
Y2017223D01*
X678657Y2019586D01*
X677434Y2021704D01*
X675704Y2023434D01*
X673586Y2024657D01*
X671223Y2025290D01*
D02*
G37*
G36*
X408797Y2023881D02*
X406456D01*
X404196Y2023275D01*
X402168Y2022105D01*
X400513Y2020450D01*
X399343Y2018422D01*
X398737Y2016161D01*
Y2013821D01*
X399343Y2011559D01*
X400513Y2009532D01*
X402168Y2007877D01*
X404196Y2006707D01*
X406456Y2006101D01*
X408797D01*
X411058Y2006707D01*
X413086Y2007877D01*
X414741Y2009532D01*
X415911Y2011559D01*
X416517Y2013821D01*
Y2016161D01*
X415911Y2018422D01*
X414741Y2020450D01*
X413086Y2022105D01*
X411058Y2023275D01*
X408797Y2023881D01*
D02*
G37*
G36*
X312270Y2008277D02*
Y2000270D01*
X320277D01*
X319657Y2002586D01*
X318434Y2004704D01*
X316704Y2006434D01*
X314586Y2007657D01*
X312270Y2008277D01*
D02*
G37*
G36*
X309730Y2008277D02*
X307414Y2007657D01*
X305296Y2006434D01*
X303566Y2004704D01*
X302343Y2002586D01*
X301723Y2000270D01*
X309730D01*
Y2008277D01*
D02*
G37*
G36*
X358170Y2017890D02*
X355830D01*
X353569Y2017284D01*
X351541Y2016114D01*
X349886Y2014459D01*
X348716Y2012431D01*
X348110Y2010170D01*
Y2007830D01*
X348716Y2005569D01*
X349886Y2003541D01*
X351541Y2001886D01*
X353569Y2000716D01*
X355830Y2000110D01*
X358170D01*
X360431Y2000716D01*
X362459Y2001886D01*
X364114Y2003541D01*
X365284Y2005569D01*
X365890Y2007830D01*
Y2010170D01*
X365284Y2012431D01*
X364114Y2014459D01*
X362459Y2016114D01*
X360431Y2017284D01*
X358170Y2017890D01*
D02*
G37*
G36*
X463259Y2009000D02*
X460918D01*
X458657Y2008395D01*
X456630Y2007224D01*
X454975Y2005569D01*
X453805Y2003542D01*
X453199Y2001281D01*
Y1998940D01*
X453805Y1996679D01*
X454975Y1994652D01*
X456630Y1992997D01*
X458657Y1991826D01*
X460918Y1991220D01*
X463259D01*
X465520Y1991826D01*
X467547Y1992997D01*
X469202Y1994652D01*
X470373Y1996679D01*
X470979Y1998940D01*
Y2001281D01*
X470373Y2003542D01*
X469202Y2005569D01*
X467547Y2007224D01*
X465520Y2008395D01*
X463259Y2009000D01*
D02*
G37*
G36*
X309730Y1997730D02*
X301723D01*
X302343Y1995414D01*
X303566Y1993296D01*
X305296Y1991566D01*
X307414Y1990343D01*
X309730Y1989723D01*
Y1997730D01*
D02*
G37*
G36*
X320277D02*
X312270D01*
Y1989722D01*
X314586Y1990343D01*
X316704Y1991566D01*
X318434Y1993296D01*
X319657Y1995414D01*
X320277Y1997730D01*
D02*
G37*
G36*
X671223Y2005290D02*
X668777D01*
X666414Y2004657D01*
X664296Y2003434D01*
X662566Y2001704D01*
X661343Y1999586D01*
X660710Y1997223D01*
Y1994777D01*
X661343Y1992414D01*
X662566Y1990296D01*
X664296Y1988566D01*
X666414Y1987343D01*
X668777Y1986710D01*
X671223D01*
X673586Y1987343D01*
X675704Y1988566D01*
X677434Y1990296D01*
X678657Y1992414D01*
X679290Y1994777D01*
Y1997223D01*
X678657Y1999586D01*
X677434Y2001704D01*
X675704Y2003434D01*
X673586Y2004657D01*
X671223Y2005290D01*
D02*
G37*
G36*
X312223Y1988290D02*
X309777D01*
X307414Y1987657D01*
X305296Y1986434D01*
X303566Y1984704D01*
X302343Y1982586D01*
X301710Y1980223D01*
Y1977777D01*
X302343Y1975414D01*
X303566Y1973296D01*
X305296Y1971566D01*
X307414Y1970343D01*
X309777Y1969710D01*
X312223D01*
X314586Y1970343D01*
X316704Y1971566D01*
X318434Y1973296D01*
X319657Y1975414D01*
X320290Y1977777D01*
Y1980223D01*
X319657Y1982586D01*
X318434Y1984704D01*
X316704Y1986434D01*
X314586Y1987657D01*
X312223Y1988290D01*
D02*
G37*
G36*
X671223Y1985290D02*
X668777D01*
X666414Y1984657D01*
X664296Y1983434D01*
X662566Y1981704D01*
X661343Y1979586D01*
X660710Y1977223D01*
Y1974777D01*
X661343Y1972414D01*
X662566Y1970296D01*
X664296Y1968566D01*
X666414Y1967343D01*
X668777Y1966710D01*
X671223D01*
X673586Y1967343D01*
X675704Y1968566D01*
X677434Y1970296D01*
X678657Y1972414D01*
X679290Y1974777D01*
Y1977223D01*
X678657Y1979586D01*
X677434Y1981704D01*
X675704Y1983434D01*
X673586Y1984657D01*
X671223Y1985290D01*
D02*
G37*
G36*
X312223Y1968290D02*
X309777D01*
X307414Y1967657D01*
X305296Y1966434D01*
X303566Y1964704D01*
X302343Y1962586D01*
X301710Y1960223D01*
Y1957777D01*
X302343Y1955414D01*
X303566Y1953296D01*
X305296Y1951566D01*
X307414Y1950343D01*
X309777Y1949710D01*
X312223D01*
X314586Y1950343D01*
X316704Y1951566D01*
X318434Y1953296D01*
X319657Y1955414D01*
X320290Y1957777D01*
Y1960223D01*
X319657Y1962586D01*
X318434Y1964704D01*
X316704Y1966434D01*
X314586Y1967657D01*
X312223Y1968290D01*
D02*
G37*
G36*
X671223Y1965290D02*
X668777D01*
X666414Y1964657D01*
X664296Y1963434D01*
X662566Y1961704D01*
X661343Y1959586D01*
X660710Y1957223D01*
Y1954777D01*
X661343Y1952414D01*
X662566Y1950296D01*
X664296Y1948566D01*
X666414Y1947343D01*
X668777Y1946710D01*
X671223D01*
X673586Y1947343D01*
X675704Y1948566D01*
X677434Y1950296D01*
X678657Y1952414D01*
X679290Y1954777D01*
Y1957223D01*
X678657Y1959586D01*
X677434Y1961704D01*
X675704Y1963434D01*
X673586Y1964657D01*
X671223Y1965290D01*
D02*
G37*
G36*
X595498Y1957843D02*
X593157D01*
X590896Y1957238D01*
X588869Y1956067D01*
X587214Y1954412D01*
X586043Y1952385D01*
X585437Y1950124D01*
Y1947783D01*
X586043Y1945522D01*
X587214Y1943495D01*
X588869Y1941840D01*
X590896Y1940669D01*
X593157Y1940063D01*
X595498D01*
X597759Y1940669D01*
X599786Y1941840D01*
X601441Y1943495D01*
X602612Y1945522D01*
X603217Y1947783D01*
Y1950124D01*
X602612Y1952385D01*
X601441Y1954412D01*
X599786Y1956067D01*
X597759Y1957238D01*
X595498Y1957843D01*
D02*
G37*
G36*
X307223Y1916290D02*
X304777D01*
X302414Y1915657D01*
X300296Y1914434D01*
X298566Y1912704D01*
X297343Y1910586D01*
X296710Y1908223D01*
Y1905777D01*
X297343Y1903414D01*
X298566Y1901296D01*
X300296Y1899566D01*
X302414Y1898343D01*
X304777Y1897710D01*
X307223D01*
X309586Y1898343D01*
X311704Y1899566D01*
X313434Y1901296D01*
X314657Y1903414D01*
X315290Y1905777D01*
Y1908223D01*
X314657Y1910586D01*
X313434Y1912704D01*
X311704Y1914434D01*
X309586Y1915657D01*
X307223Y1916290D01*
D02*
G37*
G36*
Y1896290D02*
X304777D01*
X302414Y1895657D01*
X300296Y1894434D01*
X298566Y1892704D01*
X297343Y1890586D01*
X296710Y1888223D01*
Y1885777D01*
X297343Y1883414D01*
X298566Y1881296D01*
X300296Y1879566D01*
X302414Y1878343D01*
X304777Y1877710D01*
X307223D01*
X309586Y1878343D01*
X311704Y1879566D01*
X313434Y1881296D01*
X314657Y1883414D01*
X315290Y1885777D01*
Y1888223D01*
X314657Y1890586D01*
X313434Y1892704D01*
X311704Y1894434D01*
X309586Y1895657D01*
X307223Y1896290D01*
D02*
G37*
G36*
X394206Y1882511D02*
X391865D01*
X389604Y1881905D01*
X387577Y1880735D01*
X385922Y1879080D01*
X384751Y1877052D01*
X384145Y1874791D01*
Y1872451D01*
X384751Y1870190D01*
X385922Y1868163D01*
X387577Y1866507D01*
X389604Y1865337D01*
X391865Y1864731D01*
X394206D01*
X396467Y1865337D01*
X398494Y1866507D01*
X400149Y1868163D01*
X401319Y1870190D01*
X401925Y1872451D01*
Y1874791D01*
X401319Y1877052D01*
X400149Y1879080D01*
X398494Y1880735D01*
X396467Y1881905D01*
X394206Y1882511D01*
D02*
G37*
G36*
X307223Y1876290D02*
X304777D01*
X302414Y1875657D01*
X300296Y1874434D01*
X298566Y1872704D01*
X297343Y1870586D01*
X296710Y1868223D01*
Y1865777D01*
X297343Y1863414D01*
X298566Y1861296D01*
X300296Y1859566D01*
X302414Y1858343D01*
X304777Y1857710D01*
X307223D01*
X309586Y1858343D01*
X311704Y1859566D01*
X313434Y1861296D01*
X314657Y1863414D01*
X315290Y1865777D01*
Y1868223D01*
X314657Y1870586D01*
X313434Y1872704D01*
X311704Y1874434D01*
X309586Y1875657D01*
X307223Y1876290D01*
D02*
G37*
G36*
Y1856290D02*
X304777D01*
X302414Y1855657D01*
X300296Y1854434D01*
X298566Y1852704D01*
X297343Y1850586D01*
X296710Y1848223D01*
Y1845777D01*
X297343Y1843414D01*
X298566Y1841296D01*
X300296Y1839566D01*
X302414Y1838343D01*
X304777Y1837710D01*
X307223D01*
X309586Y1838343D01*
X311704Y1839566D01*
X313434Y1841296D01*
X314657Y1843414D01*
X315290Y1845777D01*
Y1848223D01*
X314657Y1850586D01*
X313434Y1852704D01*
X311704Y1854434D01*
X309586Y1855657D01*
X307223Y1856290D01*
D02*
G37*
G36*
X460930Y1835803D02*
X458590D01*
X456329Y1835197D01*
X454301Y1834027D01*
X452646Y1832372D01*
X451476Y1830345D01*
X450870Y1828083D01*
Y1825743D01*
X451476Y1823482D01*
X452646Y1821454D01*
X454301Y1819799D01*
X456329Y1818629D01*
X458590Y1818023D01*
X460930D01*
X463191Y1818629D01*
X465219Y1819799D01*
X466874Y1821454D01*
X468044Y1823482D01*
X468650Y1825743D01*
Y1828083D01*
X468044Y1830345D01*
X466874Y1832372D01*
X465219Y1834027D01*
X463191Y1835197D01*
X460930Y1835803D01*
D02*
G37*
G36*
X307223Y1836290D02*
X304777D01*
X302414Y1835657D01*
X300296Y1834434D01*
X298566Y1832704D01*
X297343Y1830586D01*
X296710Y1828223D01*
Y1825777D01*
X297343Y1823414D01*
X298566Y1821296D01*
X300296Y1819566D01*
X302414Y1818343D01*
X304777Y1817710D01*
X307223D01*
X309586Y1818343D01*
X311704Y1819566D01*
X313434Y1821296D01*
X314657Y1823414D01*
X315290Y1825777D01*
Y1828223D01*
X314657Y1830586D01*
X313434Y1832704D01*
X311704Y1834434D01*
X309586Y1835657D01*
X307223Y1836290D01*
D02*
G37*
G36*
X667171Y1828106D02*
X664830D01*
X662569Y1827500D01*
X660542Y1826330D01*
X658887Y1824675D01*
X657717Y1822648D01*
X657111Y1820387D01*
Y1818046D01*
X657717Y1815785D01*
X658887Y1813758D01*
X660542Y1812103D01*
X662569Y1810932D01*
X664830Y1810326D01*
X667171D01*
X669432Y1810932D01*
X671459Y1812103D01*
X673115Y1813758D01*
X674285Y1815785D01*
X674891Y1818046D01*
Y1820387D01*
X674285Y1822648D01*
X673115Y1824675D01*
X671459Y1826330D01*
X669432Y1827500D01*
X667171Y1828106D01*
D02*
G37*
G36*
X615330D02*
X612990D01*
X610729Y1827500D01*
X608701Y1826330D01*
X607046Y1824675D01*
X605876Y1822648D01*
X605270Y1820387D01*
Y1818046D01*
X605876Y1815785D01*
X607046Y1813758D01*
X608701Y1812103D01*
X609062Y1811894D01*
X608825Y1810565D01*
X607055Y1809543D01*
X605400Y1807888D01*
X604229Y1805860D01*
X603624Y1803600D01*
Y1801259D01*
X604209Y1799073D01*
X604076Y1798903D01*
X604052Y1798875D01*
X603181Y1798274D01*
X601431Y1799284D01*
X599170Y1799890D01*
X596830D01*
X594569Y1799284D01*
X592541Y1798114D01*
X590886Y1796459D01*
X589716Y1794431D01*
X589110Y1792170D01*
Y1789830D01*
X589716Y1787569D01*
X590886Y1785541D01*
X592541Y1783886D01*
X594569Y1782716D01*
X596830Y1782110D01*
X599170D01*
X601431Y1782716D01*
X603459Y1783886D01*
X605114Y1785541D01*
X606284Y1787569D01*
X606890Y1789830D01*
Y1792170D01*
X606304Y1794356D01*
X606437Y1794526D01*
X606462Y1794554D01*
X607333Y1795155D01*
X609082Y1794145D01*
X611343Y1793539D01*
X613684D01*
X615945Y1794145D01*
X617972Y1795315D01*
X619627Y1796971D01*
X620798Y1798998D01*
X621404Y1801259D01*
Y1803600D01*
X620798Y1805860D01*
X619627Y1807888D01*
X617972Y1809543D01*
X617611Y1809751D01*
X617849Y1811081D01*
X619619Y1812103D01*
X621274Y1813758D01*
X622444Y1815785D01*
X623050Y1818046D01*
Y1820387D01*
X622444Y1822648D01*
X621274Y1824675D01*
X619619Y1826330D01*
X617591Y1827500D01*
X615330Y1828106D01*
D02*
G37*
G36*
X307223Y1816290D02*
X304777D01*
X302414Y1815657D01*
X300296Y1814434D01*
X298566Y1812704D01*
X297343Y1810586D01*
X296710Y1808223D01*
Y1805777D01*
X297343Y1803414D01*
X298566Y1801296D01*
X300296Y1799566D01*
X302414Y1798343D01*
X304777Y1797710D01*
X307223D01*
X309586Y1798343D01*
X311704Y1799566D01*
X313434Y1801296D01*
X314657Y1803414D01*
X315290Y1805777D01*
Y1808223D01*
X314657Y1810586D01*
X313434Y1812704D01*
X311704Y1814434D01*
X309586Y1815657D01*
X307223Y1816290D01*
D02*
G37*
G36*
X672251Y1809221D02*
X669910D01*
X667649Y1808615D01*
X665622Y1807444D01*
X663967Y1805789D01*
X662797Y1803762D01*
X662191Y1801501D01*
Y1799160D01*
X662797Y1796899D01*
X663967Y1794872D01*
X665622Y1793217D01*
X667649Y1792047D01*
X669910Y1791441D01*
X672251D01*
X674512Y1792047D01*
X676539Y1793217D01*
X678195Y1794872D01*
X679365Y1796899D01*
X679971Y1799160D01*
Y1801501D01*
X679365Y1803762D01*
X678195Y1805789D01*
X676539Y1807444D01*
X674512Y1808615D01*
X672251Y1809221D01*
D02*
G37*
G36*
X307223Y1796290D02*
X304777D01*
X302414Y1795657D01*
X300296Y1794434D01*
X298566Y1792704D01*
X297343Y1790586D01*
X296710Y1788223D01*
Y1785777D01*
X297343Y1783414D01*
X298566Y1781296D01*
X300296Y1779566D01*
X302414Y1778343D01*
X304777Y1777710D01*
X307223D01*
X309586Y1778343D01*
X311704Y1779566D01*
X313434Y1781296D01*
X314657Y1783414D01*
X315290Y1785777D01*
Y1788223D01*
X314657Y1790586D01*
X313434Y1792704D01*
X311704Y1794434D01*
X309586Y1795657D01*
X307223Y1796290D01*
D02*
G37*
G36*
X307270Y1776277D02*
Y1768270D01*
X315277D01*
X314657Y1770586D01*
X313434Y1772704D01*
X311704Y1774434D01*
X309586Y1775657D01*
X307270Y1776277D01*
D02*
G37*
G36*
X304730D02*
X302414Y1775657D01*
X300296Y1774434D01*
X298566Y1772704D01*
X297343Y1770586D01*
X296723Y1768270D01*
X304730D01*
Y1776277D01*
D02*
G37*
G36*
Y1765730D02*
X296723D01*
X297343Y1763414D01*
X298566Y1761296D01*
X300296Y1759566D01*
X302414Y1758343D01*
X304730Y1757723D01*
Y1765730D01*
D02*
G37*
G36*
X315277D02*
X307270D01*
Y1757723D01*
X309586Y1758343D01*
X311704Y1759566D01*
X313434Y1761296D01*
X314657Y1763414D01*
X315277Y1765730D01*
D02*
G37*
G36*
X400170Y1750890D02*
X397830D01*
X395569Y1750284D01*
X393541Y1749114D01*
X391886Y1747459D01*
X390716Y1745431D01*
X390110Y1743170D01*
Y1740830D01*
X390716Y1738569D01*
X391886Y1736541D01*
X393541Y1734886D01*
X395569Y1733716D01*
X397830Y1733110D01*
X400170D01*
X402431Y1733716D01*
X404459Y1734886D01*
X406114Y1736541D01*
X407284Y1738569D01*
X407890Y1740830D01*
Y1743170D01*
X407284Y1745431D01*
X406114Y1747459D01*
X404459Y1749114D01*
X402431Y1750284D01*
X400170Y1750890D01*
D02*
G37*
G36*
X531170Y1720890D02*
X528830D01*
X526569Y1720284D01*
X524541Y1719114D01*
X522886Y1717459D01*
X521716Y1715431D01*
X521110Y1713170D01*
Y1710830D01*
X521716Y1708569D01*
X522886Y1706541D01*
X524541Y1704886D01*
X526569Y1703716D01*
X528830Y1703110D01*
X531170D01*
X533431Y1703716D01*
X535459Y1704886D01*
X537114Y1706541D01*
X538284Y1708569D01*
X538890Y1710830D01*
Y1713170D01*
X538284Y1715431D01*
X537114Y1717459D01*
X535459Y1719114D01*
X533431Y1720284D01*
X531170Y1720890D01*
D02*
G37*
G36*
X507590Y1679183D02*
Y1671590D01*
X515183D01*
X514604Y1673751D01*
X513434Y1675779D01*
X511779Y1677434D01*
X509751Y1678604D01*
X507590Y1679183D01*
D02*
G37*
G36*
X505050D02*
X502889Y1678604D01*
X500861Y1677434D01*
X499206Y1675779D01*
X498036Y1673751D01*
X497457Y1671590D01*
X505050D01*
Y1679183D01*
D02*
G37*
G36*
X487170Y1682637D02*
X484830D01*
X482569Y1682031D01*
X480541Y1680860D01*
X478886Y1679205D01*
X477716Y1677178D01*
X477110Y1674917D01*
Y1672576D01*
X477716Y1670315D01*
X478886Y1668288D01*
X480541Y1666633D01*
X482569Y1665462D01*
X484830Y1664857D01*
X487170D01*
X489431Y1665462D01*
X491459Y1666633D01*
X493114Y1668288D01*
X494284Y1670315D01*
X494890Y1672576D01*
Y1674917D01*
X494284Y1677178D01*
X493114Y1679205D01*
X491459Y1680860D01*
X489431Y1682031D01*
X487170Y1682637D01*
D02*
G37*
G36*
X515183Y1669050D02*
X507590D01*
Y1661457D01*
X509751Y1662036D01*
X511779Y1663206D01*
X513434Y1664861D01*
X514604Y1666889D01*
X515183Y1669050D01*
D02*
G37*
G36*
X505050D02*
X497457D01*
X498036Y1666889D01*
X499206Y1664861D01*
X500861Y1663206D01*
X502889Y1662036D01*
X505050Y1661457D01*
Y1669050D01*
D02*
G37*
G36*
X419170Y1673890D02*
X416830D01*
X414569Y1673284D01*
X412541Y1672114D01*
X410886Y1670459D01*
X409716Y1668431D01*
X409110Y1666170D01*
Y1663830D01*
X409716Y1661569D01*
X410886Y1659541D01*
X412541Y1657886D01*
X414569Y1656716D01*
X416830Y1656110D01*
X419170D01*
X421431Y1656716D01*
X423459Y1657886D01*
X425114Y1659541D01*
X426284Y1661569D01*
X426890Y1663830D01*
Y1666170D01*
X426284Y1668431D01*
X425114Y1670459D01*
X423459Y1672114D01*
X421431Y1673284D01*
X419170Y1673890D01*
D02*
G37*
G36*
X614318Y1660906D02*
X611977D01*
X609716Y1660300D01*
X607688Y1659130D01*
X606033Y1657474D01*
X604863Y1655447D01*
X604257Y1653186D01*
Y1650845D01*
X604863Y1648584D01*
X606033Y1646557D01*
X607688Y1644902D01*
X609716Y1643732D01*
X611977Y1643126D01*
X614318D01*
X616578Y1643732D01*
X618606Y1644902D01*
X620261Y1646557D01*
X621431Y1648584D01*
X622037Y1650845D01*
Y1653186D01*
X621431Y1655447D01*
X620261Y1657474D01*
X618606Y1659130D01*
X616578Y1660300D01*
X614318Y1660906D01*
D02*
G37*
G36*
X432687Y1657422D02*
X430346D01*
X428085Y1656816D01*
X426058Y1655646D01*
X424403Y1653991D01*
X423232Y1651964D01*
X422627Y1649702D01*
Y1647362D01*
X423232Y1645101D01*
X424403Y1643073D01*
X426058Y1641418D01*
X428085Y1640248D01*
X430346Y1639642D01*
X432687D01*
X434948Y1640248D01*
X436975Y1641418D01*
X438630Y1643073D01*
X439801Y1645101D01*
X440407Y1647362D01*
Y1649702D01*
X439801Y1651964D01*
X438630Y1653991D01*
X436975Y1655646D01*
X434948Y1656816D01*
X432687Y1657422D01*
D02*
G37*
G36*
X492170Y1654890D02*
X489830D01*
X487569Y1654284D01*
X485541Y1653114D01*
X483886Y1651459D01*
X482716Y1649431D01*
X482110Y1647170D01*
Y1644830D01*
X482716Y1642569D01*
X483886Y1640541D01*
X485541Y1638886D01*
X487569Y1637716D01*
X489830Y1637110D01*
X492170D01*
X494431Y1637716D01*
X496459Y1638886D01*
X498114Y1640541D01*
X499284Y1642569D01*
X499890Y1644830D01*
Y1647170D01*
X499284Y1649431D01*
X498114Y1651459D01*
X496459Y1653114D01*
X494431Y1654284D01*
X492170Y1654890D01*
D02*
G37*
G36*
X457270Y1636863D02*
Y1629270D01*
X464863D01*
X464284Y1631431D01*
X463114Y1633459D01*
X461459Y1635114D01*
X459431Y1636284D01*
X457270Y1636863D01*
D02*
G37*
G36*
X454730D02*
X452569Y1636284D01*
X450541Y1635114D01*
X448886Y1633459D01*
X447716Y1631431D01*
X447137Y1629270D01*
X454730D01*
Y1636863D01*
D02*
G37*
G36*
X464863Y1626730D02*
X457270D01*
Y1619137D01*
X459431Y1619716D01*
X461459Y1620886D01*
X463114Y1622541D01*
X464284Y1624569D01*
X464863Y1626730D01*
D02*
G37*
G36*
X454730D02*
X447137D01*
X447716Y1624569D01*
X448886Y1622541D01*
X450541Y1620886D01*
X452569Y1619716D01*
X454730Y1619137D01*
Y1626730D01*
D02*
G37*
G36*
X368723Y1630338D02*
X366382D01*
X364121Y1629732D01*
X362094Y1628562D01*
X360438Y1626906D01*
X359268Y1624879D01*
X358662Y1622618D01*
Y1620277D01*
X359268Y1618016D01*
X360438Y1615989D01*
X362094Y1614334D01*
X364121Y1613164D01*
X366382Y1612558D01*
X368723D01*
X370984Y1613164D01*
X373011Y1614334D01*
X374666Y1615989D01*
X375836Y1618016D01*
X376442Y1620277D01*
Y1622618D01*
X375836Y1624879D01*
X374666Y1626906D01*
X373011Y1628562D01*
X370984Y1629732D01*
X368723Y1630338D01*
D02*
G37*
G36*
X294540Y1632340D02*
X273460D01*
Y1611260D01*
X294540D01*
Y1632340D01*
D02*
G37*
G36*
X533388Y1630540D02*
X530612D01*
X527932Y1629822D01*
X525528Y1628434D01*
X523566Y1626472D01*
X522178Y1624068D01*
X521460Y1621388D01*
Y1618612D01*
X522178Y1615932D01*
X523566Y1613528D01*
X525528Y1611566D01*
X527932Y1610178D01*
X530612Y1609460D01*
X533388D01*
X536068Y1610178D01*
X538472Y1611566D01*
X540434Y1613528D01*
X541822Y1615932D01*
X542540Y1618612D01*
Y1621388D01*
X541822Y1624068D01*
X540434Y1626472D01*
X538472Y1628434D01*
X536068Y1629822D01*
X533388Y1630540D01*
D02*
G37*
G36*
X285388Y1606940D02*
X282612D01*
X279932Y1606222D01*
X277528Y1604834D01*
X275566Y1602872D01*
X274178Y1600468D01*
X273460Y1597788D01*
Y1595012D01*
X274178Y1592332D01*
X275566Y1589928D01*
X277528Y1587966D01*
X279932Y1586578D01*
X282612Y1585860D01*
X285388D01*
X288068Y1586578D01*
X290472Y1587966D01*
X292434Y1589928D01*
X293822Y1592332D01*
X294540Y1595012D01*
Y1597788D01*
X293822Y1600468D01*
X292434Y1602872D01*
X290472Y1604834D01*
X288068Y1606222D01*
X285388Y1606940D01*
D02*
G37*
G36*
X533388Y1605140D02*
X530612D01*
X527932Y1604422D01*
X525528Y1603034D01*
X523566Y1601072D01*
X522178Y1598668D01*
X521460Y1595988D01*
Y1593212D01*
X522178Y1590532D01*
X523566Y1588128D01*
X525528Y1586166D01*
X527932Y1584778D01*
X530612Y1584060D01*
X533388D01*
X536068Y1584778D01*
X538472Y1586166D01*
X540434Y1588128D01*
X541822Y1590532D01*
X542540Y1593212D01*
Y1595988D01*
X541822Y1598668D01*
X540434Y1601072D01*
X538472Y1603034D01*
X536068Y1604422D01*
X533388Y1605140D01*
D02*
G37*
G36*
X285388Y1581540D02*
X282612D01*
X279932Y1580822D01*
X277528Y1579434D01*
X275566Y1577472D01*
X274178Y1575068D01*
X273460Y1572388D01*
Y1569612D01*
X274178Y1566932D01*
X275566Y1564528D01*
X277528Y1562566D01*
X279932Y1561178D01*
X282612Y1560460D01*
X285388D01*
X288068Y1561178D01*
X290472Y1562566D01*
X292434Y1564528D01*
X293822Y1566932D01*
X294540Y1569612D01*
Y1572388D01*
X293822Y1575068D01*
X292434Y1577472D01*
X290472Y1579434D01*
X288068Y1580822D01*
X285388Y1581540D01*
D02*
G37*
G36*
X533388Y1579740D02*
X530612D01*
X527932Y1579022D01*
X525528Y1577634D01*
X523566Y1575672D01*
X522178Y1573268D01*
X521460Y1570588D01*
Y1567812D01*
X522178Y1565132D01*
X523566Y1562728D01*
X525528Y1560766D01*
X527932Y1559378D01*
X530612Y1558660D01*
X533388D01*
X536068Y1559378D01*
X538472Y1560766D01*
X540434Y1562728D01*
X541822Y1565132D01*
X542540Y1567812D01*
Y1570588D01*
X541822Y1573268D01*
X540434Y1575672D01*
X538472Y1577634D01*
X536068Y1579022D01*
X533388Y1579740D01*
D02*
G37*
G36*
X285388Y1556140D02*
X282612D01*
X279932Y1555422D01*
X277528Y1554034D01*
X275566Y1552072D01*
X274178Y1549668D01*
X273460Y1546988D01*
Y1544212D01*
X274178Y1541532D01*
X275566Y1539128D01*
X277528Y1537166D01*
X279932Y1535778D01*
X282612Y1535060D01*
X285388D01*
X288068Y1535778D01*
X290472Y1537166D01*
X292434Y1539128D01*
X293822Y1541532D01*
X294540Y1544212D01*
Y1546988D01*
X293822Y1549668D01*
X292434Y1552072D01*
X290472Y1554034D01*
X288068Y1555422D01*
X285388Y1556140D01*
D02*
G37*
G36*
X533388Y1554340D02*
X530612D01*
X527932Y1553622D01*
X525528Y1552234D01*
X523566Y1550272D01*
X522178Y1547868D01*
X521460Y1545188D01*
Y1542412D01*
X522178Y1539732D01*
X523566Y1537328D01*
X525528Y1535366D01*
X527932Y1533978D01*
X530612Y1533260D01*
X533388D01*
X536068Y1533978D01*
X538472Y1535366D01*
X540434Y1537328D01*
X541822Y1539732D01*
X542540Y1542412D01*
Y1545188D01*
X541822Y1547868D01*
X540434Y1550272D01*
X538472Y1552234D01*
X536068Y1553622D01*
X533388Y1554340D01*
D02*
G37*
G36*
X285388Y1530740D02*
X282612D01*
X279932Y1530022D01*
X277528Y1528634D01*
X275566Y1526672D01*
X274178Y1524268D01*
X273460Y1521588D01*
Y1518812D01*
X274178Y1516132D01*
X275566Y1513728D01*
X277528Y1511766D01*
X279932Y1510378D01*
X282612Y1509660D01*
X285388D01*
X288068Y1510378D01*
X290472Y1511766D01*
X292434Y1513728D01*
X293822Y1516132D01*
X294540Y1518812D01*
Y1521588D01*
X293822Y1524268D01*
X292434Y1526672D01*
X290472Y1528634D01*
X288068Y1530022D01*
X285388Y1530740D01*
D02*
G37*
G36*
X533388Y1528940D02*
X530612D01*
X527932Y1528222D01*
X525528Y1526834D01*
X523566Y1524872D01*
X522178Y1522468D01*
X521460Y1519788D01*
Y1517012D01*
X522178Y1514332D01*
X523566Y1511928D01*
X525528Y1509966D01*
X527932Y1508578D01*
X530612Y1507860D01*
X533388D01*
X536068Y1508578D01*
X538472Y1509966D01*
X540434Y1511928D01*
X541822Y1514332D01*
X542540Y1517012D01*
Y1519788D01*
X541822Y1522468D01*
X540434Y1524872D01*
X538472Y1526834D01*
X536068Y1528222D01*
X533388Y1528940D01*
D02*
G37*
G36*
Y1503540D02*
X533270D01*
Y1494270D01*
X542540D01*
Y1494388D01*
X541822Y1497068D01*
X540434Y1499472D01*
X538472Y1501434D01*
X536068Y1502822D01*
X533388Y1503540D01*
D02*
G37*
G36*
X530730D02*
X530612D01*
X527932Y1502822D01*
X525528Y1501434D01*
X523566Y1499472D01*
X522178Y1497068D01*
X521460Y1494388D01*
Y1494270D01*
X530730D01*
Y1503540D01*
D02*
G37*
G36*
X285388Y1505340D02*
X282612D01*
X279932Y1504622D01*
X277528Y1503234D01*
X275566Y1501272D01*
X274178Y1498868D01*
X273460Y1496188D01*
Y1493412D01*
X274178Y1490732D01*
X275566Y1488328D01*
X277528Y1486366D01*
X279932Y1484978D01*
X282612Y1484260D01*
X285388D01*
X288068Y1484978D01*
X290472Y1486366D01*
X292434Y1488328D01*
X293822Y1490732D01*
X294540Y1493412D01*
Y1496188D01*
X293822Y1498868D01*
X292434Y1501272D01*
X290472Y1503234D01*
X288068Y1504622D01*
X285388Y1505340D01*
D02*
G37*
G36*
X542540Y1491730D02*
X533270D01*
Y1482460D01*
X533388D01*
X536068Y1483178D01*
X538472Y1484566D01*
X540434Y1486528D01*
X541822Y1488932D01*
X542540Y1491612D01*
Y1491730D01*
D02*
G37*
G36*
X530730D02*
X521460D01*
Y1491612D01*
X522178Y1488932D01*
X523566Y1486528D01*
X525528Y1484566D01*
X527932Y1483178D01*
X530612Y1482460D01*
X530730D01*
Y1491730D01*
D02*
G37*
G36*
X285388Y1479940D02*
X282612D01*
X279932Y1479222D01*
X277528Y1477834D01*
X275566Y1475872D01*
X274178Y1473468D01*
X273460Y1470788D01*
Y1468012D01*
X274178Y1465332D01*
X275566Y1462928D01*
X277528Y1460966D01*
X279932Y1459578D01*
X282612Y1458860D01*
X285388D01*
X288068Y1459578D01*
X290472Y1460966D01*
X292434Y1462928D01*
X293822Y1465332D01*
X294540Y1468012D01*
Y1470788D01*
X293822Y1473468D01*
X292434Y1475872D01*
X290472Y1477834D01*
X288068Y1479222D01*
X285388Y1479940D01*
D02*
G37*
G36*
X533388Y1478140D02*
X530612D01*
X527932Y1477422D01*
X525528Y1476034D01*
X523566Y1474072D01*
X522178Y1471668D01*
X521460Y1468988D01*
Y1466212D01*
X522178Y1463532D01*
X523566Y1461128D01*
X525528Y1459166D01*
X527932Y1457778D01*
X530612Y1457060D01*
X533388D01*
X536068Y1457778D01*
X538472Y1459166D01*
X540434Y1461128D01*
X541822Y1463532D01*
X542540Y1466212D01*
Y1468988D01*
X541822Y1471668D01*
X540434Y1474072D01*
X538472Y1476034D01*
X536068Y1477422D01*
X533388Y1478140D01*
D02*
G37*
G36*
X285388Y1454540D02*
X282612D01*
X279932Y1453822D01*
X277528Y1452434D01*
X275566Y1450472D01*
X274178Y1448068D01*
X273460Y1445388D01*
Y1442612D01*
X274178Y1439932D01*
X275566Y1437528D01*
X277528Y1435566D01*
X279932Y1434178D01*
X282612Y1433460D01*
X285388D01*
X288068Y1434178D01*
X290472Y1435566D01*
X292434Y1437528D01*
X293822Y1439932D01*
X294540Y1442612D01*
Y1445388D01*
X293822Y1448068D01*
X292434Y1450472D01*
X290472Y1452434D01*
X288068Y1453822D01*
X285388Y1454540D01*
D02*
G37*
G36*
X533388Y1452740D02*
X530612D01*
X527932Y1452022D01*
X525528Y1450634D01*
X523566Y1448672D01*
X522178Y1446268D01*
X521460Y1443588D01*
Y1440812D01*
X522178Y1438132D01*
X523566Y1435728D01*
X525528Y1433766D01*
X527932Y1432378D01*
X530612Y1431660D01*
X533388D01*
X536068Y1432378D01*
X538472Y1433766D01*
X540434Y1435728D01*
X541822Y1438132D01*
X542540Y1440812D01*
Y1443588D01*
X541822Y1446268D01*
X540434Y1448672D01*
X538472Y1450634D01*
X536068Y1452022D01*
X533388Y1452740D01*
D02*
G37*
G36*
X712651Y1444910D02*
X709349D01*
X706160Y1444055D01*
X703300Y1442404D01*
X700965Y1440070D01*
X699315Y1437210D01*
X698460Y1434021D01*
Y1430719D01*
X699315Y1427530D01*
X700965Y1424670D01*
X703300Y1422336D01*
X706160Y1420685D01*
X709349Y1419830D01*
X712651D01*
X715840Y1420685D01*
X718700Y1422336D01*
X721034Y1424670D01*
X722685Y1427530D01*
X723540Y1430719D01*
Y1434021D01*
X722685Y1437210D01*
X721034Y1440070D01*
X718700Y1442404D01*
X715840Y1444055D01*
X712651Y1444910D01*
D02*
G37*
G36*
X641531D02*
X638229D01*
X635040Y1444055D01*
X632180Y1442404D01*
X629846Y1440070D01*
X628195Y1437210D01*
X627340Y1434021D01*
Y1430719D01*
X628195Y1427530D01*
X629846Y1424670D01*
X632180Y1422336D01*
X635040Y1420685D01*
X638229Y1419830D01*
X641531D01*
X644720Y1420685D01*
X647580Y1422336D01*
X649914Y1424670D01*
X651565Y1427530D01*
X652420Y1430719D01*
Y1434021D01*
X651565Y1437210D01*
X649914Y1440070D01*
X647580Y1442404D01*
X644720Y1444055D01*
X641531Y1444910D01*
D02*
G37*
G36*
X285388Y1429140D02*
X282612D01*
X279932Y1428422D01*
X277528Y1427034D01*
X275566Y1425072D01*
X274178Y1422668D01*
X273460Y1419988D01*
Y1417212D01*
X274178Y1414532D01*
X275566Y1412128D01*
X277528Y1410166D01*
X279932Y1408778D01*
X282612Y1408060D01*
X285388D01*
X288068Y1408778D01*
X290472Y1410166D01*
X292434Y1412128D01*
X293822Y1414532D01*
X294540Y1417212D01*
Y1419988D01*
X293822Y1422668D01*
X292434Y1425072D01*
X290472Y1427034D01*
X288068Y1428422D01*
X285388Y1429140D01*
D02*
G37*
G36*
X533388Y1427340D02*
X530612D01*
X527932Y1426622D01*
X525528Y1425234D01*
X523566Y1423272D01*
X522178Y1420868D01*
X521460Y1418188D01*
Y1415412D01*
X522178Y1412732D01*
X523566Y1410328D01*
X525528Y1408366D01*
X527932Y1406978D01*
X530612Y1406260D01*
X533388D01*
X536068Y1406978D01*
X538472Y1408366D01*
X540434Y1410328D01*
X541822Y1412732D01*
X542540Y1415412D01*
Y1418188D01*
X541822Y1420868D01*
X540434Y1423272D01*
X538472Y1425234D01*
X536068Y1426622D01*
X533388Y1427340D01*
D02*
G37*
G36*
X285388Y1403740D02*
X282612D01*
X279932Y1403022D01*
X277528Y1401634D01*
X275566Y1399672D01*
X274178Y1397268D01*
X273460Y1394588D01*
Y1391812D01*
X274178Y1389132D01*
X275566Y1386728D01*
X277528Y1384766D01*
X279932Y1383378D01*
X282612Y1382660D01*
X285388D01*
X288068Y1383378D01*
X290472Y1384766D01*
X292434Y1386728D01*
X293822Y1389132D01*
X294540Y1391812D01*
Y1394588D01*
X293822Y1397268D01*
X292434Y1399672D01*
X290472Y1401634D01*
X288068Y1403022D01*
X285388Y1403740D01*
D02*
G37*
G36*
X533388Y1401940D02*
X530612D01*
X527932Y1401222D01*
X525528Y1399834D01*
X523566Y1397872D01*
X522178Y1395468D01*
X521460Y1392788D01*
Y1390012D01*
X522178Y1387332D01*
X523566Y1384928D01*
X525528Y1382966D01*
X527932Y1381578D01*
X530612Y1380860D01*
X533388D01*
X536068Y1381578D01*
X538472Y1382966D01*
X540434Y1384928D01*
X541822Y1387332D01*
X542540Y1390012D01*
Y1392788D01*
X541822Y1395468D01*
X540434Y1397872D01*
X538472Y1399834D01*
X536068Y1401222D01*
X533388Y1401940D01*
D02*
G37*
G36*
X712651Y1405540D02*
X709349D01*
X706160Y1404685D01*
X703300Y1403035D01*
X700965Y1400700D01*
X699315Y1397840D01*
X698460Y1394651D01*
Y1391349D01*
X699315Y1388160D01*
X700965Y1385300D01*
X703300Y1382966D01*
X706160Y1381315D01*
X709349Y1380460D01*
X712651D01*
X715840Y1381315D01*
X718700Y1382966D01*
X721034Y1385300D01*
X722685Y1388160D01*
X723540Y1391349D01*
Y1394651D01*
X722685Y1397840D01*
X721034Y1400700D01*
X718700Y1403035D01*
X715840Y1404685D01*
X712651Y1405540D01*
D02*
G37*
G36*
X641531D02*
X638229D01*
X635040Y1404685D01*
X632180Y1403035D01*
X629846Y1400700D01*
X628195Y1397840D01*
X627340Y1394651D01*
Y1391349D01*
X628195Y1388160D01*
X629846Y1385300D01*
X632180Y1382966D01*
X635040Y1381315D01*
X638229Y1380460D01*
X641531D01*
X644720Y1381315D01*
X647580Y1382966D01*
X649914Y1385300D01*
X651565Y1388160D01*
X652420Y1391349D01*
Y1394651D01*
X651565Y1397840D01*
X649914Y1400700D01*
X647580Y1403035D01*
X644720Y1404685D01*
X641531Y1405540D01*
D02*
G37*
G36*
X285388Y1378340D02*
X282612D01*
X279932Y1377622D01*
X277528Y1376234D01*
X275566Y1374272D01*
X274178Y1371868D01*
X273460Y1369188D01*
Y1366412D01*
X274178Y1363732D01*
X275566Y1361328D01*
X277528Y1359366D01*
X279932Y1357978D01*
X282612Y1357260D01*
X285388D01*
X288068Y1357978D01*
X290472Y1359366D01*
X292434Y1361328D01*
X293822Y1363732D01*
X294540Y1366412D01*
Y1369188D01*
X293822Y1371868D01*
X292434Y1374272D01*
X290472Y1376234D01*
X288068Y1377622D01*
X285388Y1378340D01*
D02*
G37*
G36*
X533388Y1376540D02*
X530612D01*
X527932Y1375822D01*
X525528Y1374434D01*
X523566Y1372472D01*
X522178Y1370068D01*
X521460Y1367388D01*
Y1364612D01*
X522178Y1361932D01*
X523566Y1359528D01*
X525528Y1357566D01*
X527932Y1356178D01*
X530612Y1355460D01*
X533388D01*
X536068Y1356178D01*
X538472Y1357566D01*
X540434Y1359528D01*
X541822Y1361932D01*
X542540Y1364612D01*
Y1367388D01*
X541822Y1370068D01*
X540434Y1372472D01*
X538472Y1374434D01*
X536068Y1375822D01*
X533388Y1376540D01*
D02*
G37*
G36*
X285388Y1352940D02*
X282612D01*
X279932Y1352222D01*
X277528Y1350834D01*
X275566Y1348872D01*
X274178Y1346468D01*
X273460Y1343788D01*
Y1341012D01*
X274178Y1338332D01*
X275566Y1335928D01*
X277528Y1333966D01*
X279932Y1332578D01*
X282612Y1331860D01*
X285388D01*
X288068Y1332578D01*
X290472Y1333966D01*
X292434Y1335928D01*
X293822Y1338332D01*
X294540Y1341012D01*
Y1343788D01*
X293822Y1346468D01*
X292434Y1348872D01*
X290472Y1350834D01*
X288068Y1352222D01*
X285388Y1352940D01*
D02*
G37*
G36*
X533388Y1351140D02*
X530612D01*
X527932Y1350422D01*
X525528Y1349034D01*
X523566Y1347072D01*
X522178Y1344668D01*
X521460Y1341988D01*
Y1339212D01*
X522178Y1336532D01*
X523566Y1334128D01*
X525528Y1332166D01*
X527932Y1330778D01*
X530612Y1330060D01*
X533388D01*
X536068Y1330778D01*
X538472Y1332166D01*
X540434Y1334128D01*
X541822Y1336532D01*
X542540Y1339212D01*
Y1341988D01*
X541822Y1344668D01*
X540434Y1347072D01*
X538472Y1349034D01*
X536068Y1350422D01*
X533388Y1351140D01*
D02*
G37*
G36*
X285388Y1327540D02*
X282612D01*
X279932Y1326822D01*
X277528Y1325434D01*
X275566Y1323472D01*
X274178Y1321068D01*
X273460Y1318388D01*
Y1315612D01*
X274178Y1312932D01*
X275566Y1310528D01*
X277528Y1308566D01*
X279932Y1307178D01*
X282612Y1306460D01*
X285388D01*
X288068Y1307178D01*
X290472Y1308566D01*
X292434Y1310528D01*
X293822Y1312932D01*
X294540Y1315612D01*
Y1318388D01*
X293822Y1321068D01*
X292434Y1323472D01*
X290472Y1325434D01*
X288068Y1326822D01*
X285388Y1327540D01*
D02*
G37*
G36*
X533388Y1325740D02*
X530612D01*
X527932Y1325022D01*
X525528Y1323634D01*
X523566Y1321672D01*
X522178Y1319268D01*
X521460Y1316588D01*
Y1313812D01*
X522178Y1311132D01*
X523566Y1308728D01*
X525528Y1306766D01*
X527932Y1305378D01*
X530612Y1304660D01*
X533388D01*
X536068Y1305378D01*
X538472Y1306766D01*
X540434Y1308728D01*
X541822Y1311132D01*
X542540Y1313812D01*
Y1316588D01*
X541822Y1319268D01*
X540434Y1321672D01*
X538472Y1323634D01*
X536068Y1325022D01*
X533388Y1325740D01*
D02*
G37*
G36*
X285388Y1302140D02*
X285270D01*
Y1292870D01*
X294540D01*
Y1292988D01*
X293822Y1295668D01*
X292434Y1298072D01*
X290472Y1300034D01*
X288068Y1301422D01*
X285388Y1302140D01*
D02*
G37*
G36*
X282730D02*
X282612D01*
X279932Y1301422D01*
X277528Y1300034D01*
X275566Y1298072D01*
X274178Y1295668D01*
X273460Y1292988D01*
Y1292870D01*
X282730D01*
Y1302140D01*
D02*
G37*
G36*
X294540Y1290330D02*
X285270D01*
Y1281060D01*
X285388D01*
X288068Y1281778D01*
X290472Y1283166D01*
X292434Y1285128D01*
X293822Y1287532D01*
X294540Y1290212D01*
Y1290330D01*
D02*
G37*
G36*
X282730D02*
X273460D01*
Y1290212D01*
X274178Y1287532D01*
X275566Y1285128D01*
X277528Y1283166D01*
X279932Y1281778D01*
X282612Y1281060D01*
X282730D01*
Y1290330D01*
D02*
G37*
G36*
X533388Y1300340D02*
X530612D01*
X527932Y1299622D01*
X525528Y1298234D01*
X523566Y1296272D01*
X522178Y1293868D01*
X521460Y1291188D01*
Y1288412D01*
X522178Y1285732D01*
X523566Y1283328D01*
X525528Y1281366D01*
X527932Y1279978D01*
X530612Y1279260D01*
X533388D01*
X536068Y1279978D01*
X538472Y1281366D01*
X540434Y1283328D01*
X541822Y1285732D01*
X542540Y1288412D01*
Y1291188D01*
X541822Y1293868D01*
X540434Y1296272D01*
X538472Y1298234D01*
X536068Y1299622D01*
X533388Y1300340D01*
D02*
G37*
G36*
X285388Y1276740D02*
X282612D01*
X279932Y1276022D01*
X277528Y1274634D01*
X275566Y1272672D01*
X274178Y1270268D01*
X273460Y1267588D01*
Y1264812D01*
X274178Y1262132D01*
X275566Y1259728D01*
X277528Y1257766D01*
X279932Y1256378D01*
X282612Y1255660D01*
X285388D01*
X288068Y1256378D01*
X290472Y1257766D01*
X292434Y1259728D01*
X293822Y1262132D01*
X294540Y1264812D01*
Y1267588D01*
X293822Y1270268D01*
X292434Y1272672D01*
X290472Y1274634D01*
X288068Y1276022D01*
X285388Y1276740D01*
D02*
G37*
G36*
X533388Y1274940D02*
X530612D01*
X527932Y1274222D01*
X525528Y1272834D01*
X523566Y1270872D01*
X522178Y1268468D01*
X521460Y1265788D01*
Y1263012D01*
X522178Y1260332D01*
X523566Y1257928D01*
X525528Y1255966D01*
X527932Y1254578D01*
X530612Y1253860D01*
X533388D01*
X536068Y1254578D01*
X538472Y1255966D01*
X540434Y1257928D01*
X541822Y1260332D01*
X542540Y1263012D01*
Y1265788D01*
X541822Y1268468D01*
X540434Y1270872D01*
X538472Y1272834D01*
X536068Y1274222D01*
X533388Y1274940D01*
D02*
G37*
G36*
X285388Y1251340D02*
X282612D01*
X279932Y1250622D01*
X277528Y1249234D01*
X275566Y1247272D01*
X274178Y1244868D01*
X273460Y1242188D01*
Y1239412D01*
X274178Y1236732D01*
X275566Y1234328D01*
X277528Y1232366D01*
X279932Y1230978D01*
X282612Y1230260D01*
X285388D01*
X288068Y1230978D01*
X290472Y1232366D01*
X292434Y1234328D01*
X293822Y1236732D01*
X294540Y1239412D01*
Y1242188D01*
X293822Y1244868D01*
X292434Y1247272D01*
X290472Y1249234D01*
X288068Y1250622D01*
X285388Y1251340D01*
D02*
G37*
G36*
X533388Y1249540D02*
X530612D01*
X527932Y1248822D01*
X525528Y1247434D01*
X523566Y1245472D01*
X522178Y1243068D01*
X521460Y1240388D01*
Y1237612D01*
X522178Y1234932D01*
X523566Y1232528D01*
X525528Y1230566D01*
X527932Y1229178D01*
X530612Y1228460D01*
X533388D01*
X536068Y1229178D01*
X538472Y1230566D01*
X540434Y1232528D01*
X541822Y1234932D01*
X542540Y1237612D01*
Y1240388D01*
X541822Y1243068D01*
X540434Y1245472D01*
X538472Y1247434D01*
X536068Y1248822D01*
X533388Y1249540D01*
D02*
G37*
G36*
X285388Y1225940D02*
X282612D01*
X279932Y1225222D01*
X277528Y1223834D01*
X275566Y1221872D01*
X274178Y1219468D01*
X273460Y1216788D01*
Y1214012D01*
X274178Y1211332D01*
X275566Y1208928D01*
X277528Y1206966D01*
X279932Y1205578D01*
X282612Y1204860D01*
X285388D01*
X288068Y1205578D01*
X290472Y1206966D01*
X292434Y1208928D01*
X293822Y1211332D01*
X294540Y1214012D01*
Y1216788D01*
X293822Y1219468D01*
X292434Y1221872D01*
X290472Y1223834D01*
X288068Y1225222D01*
X285388Y1225940D01*
D02*
G37*
G36*
X533388Y1224140D02*
X530612D01*
X527932Y1223422D01*
X525528Y1222034D01*
X523566Y1220072D01*
X522178Y1217668D01*
X521460Y1214988D01*
Y1212212D01*
X522178Y1209532D01*
X523566Y1207128D01*
X525528Y1205166D01*
X527932Y1203778D01*
X530612Y1203060D01*
X533388D01*
X536068Y1203778D01*
X538472Y1205166D01*
X540434Y1207128D01*
X541822Y1209532D01*
X542540Y1212212D01*
Y1214988D01*
X541822Y1217668D01*
X540434Y1220072D01*
X538472Y1222034D01*
X536068Y1223422D01*
X533388Y1224140D01*
D02*
G37*
G36*
X617651Y1215540D02*
X614349D01*
X611160Y1214685D01*
X608300Y1213035D01*
X605965Y1210700D01*
X604315Y1207840D01*
X603460Y1204651D01*
Y1201349D01*
X604315Y1198160D01*
X605965Y1195300D01*
X608300Y1192965D01*
X611160Y1191315D01*
X614349Y1190460D01*
X617651D01*
X620840Y1191315D01*
X623700Y1192965D01*
X626035Y1195300D01*
X627685Y1198160D01*
X628540Y1201349D01*
Y1204651D01*
X627685Y1207840D01*
X626035Y1210700D01*
X623700Y1213035D01*
X620840Y1214685D01*
X617651Y1215540D01*
D02*
G37*
G36*
X285388Y1200540D02*
X282612D01*
X279932Y1199822D01*
X277528Y1198434D01*
X275566Y1196472D01*
X274178Y1194068D01*
X273460Y1191388D01*
Y1188612D01*
X274178Y1185932D01*
X275566Y1183528D01*
X277528Y1181566D01*
X279932Y1180178D01*
X282612Y1179460D01*
X285388D01*
X288068Y1180178D01*
X290472Y1181566D01*
X292434Y1183528D01*
X293822Y1185932D01*
X294540Y1188612D01*
Y1191388D01*
X293822Y1194068D01*
X292434Y1196472D01*
X290472Y1198434D01*
X288068Y1199822D01*
X285388Y1200540D01*
D02*
G37*
G36*
X533388Y1198740D02*
X530612D01*
X527932Y1198022D01*
X525528Y1196634D01*
X523566Y1194672D01*
X522178Y1192268D01*
X521460Y1189588D01*
Y1186812D01*
X522178Y1184132D01*
X523566Y1181728D01*
X525528Y1179766D01*
X527932Y1178378D01*
X530612Y1177660D01*
X533388D01*
X536068Y1178378D01*
X538472Y1179766D01*
X540434Y1181728D01*
X541822Y1184132D01*
X542540Y1186812D01*
Y1189588D01*
X541822Y1192268D01*
X540434Y1194672D01*
X538472Y1196634D01*
X536068Y1198022D01*
X533388Y1198740D01*
D02*
G37*
G36*
X719040Y1179840D02*
X709270D01*
Y1170070D01*
X719040D01*
Y1179840D01*
D02*
G37*
G36*
X706730D02*
X696960D01*
Y1170070D01*
X706730D01*
Y1179840D01*
D02*
G37*
G36*
X719040Y1167530D02*
X709270D01*
Y1157760D01*
X719040D01*
Y1167530D01*
D02*
G37*
G36*
X706730D02*
X696960D01*
Y1157760D01*
X706730D01*
Y1167530D01*
D02*
G37*
G36*
X285388Y1175140D02*
X282612D01*
X279932Y1174422D01*
X277528Y1173034D01*
X275566Y1171072D01*
X274178Y1168668D01*
X273460Y1165988D01*
Y1163212D01*
X274178Y1160532D01*
X275566Y1158128D01*
X277528Y1156166D01*
X279932Y1154778D01*
X282612Y1154060D01*
X285388D01*
X288068Y1154778D01*
X290472Y1156166D01*
X292434Y1158128D01*
X293822Y1160532D01*
X294540Y1163212D01*
Y1165988D01*
X293822Y1168668D01*
X292434Y1171072D01*
X290472Y1173034D01*
X288068Y1174422D01*
X285388Y1175140D01*
D02*
G37*
G36*
X533388Y1173340D02*
X530612D01*
X527932Y1172622D01*
X525528Y1171234D01*
X523566Y1169272D01*
X522178Y1166868D01*
X521460Y1164188D01*
Y1161412D01*
X522178Y1158732D01*
X523566Y1156328D01*
X525528Y1154366D01*
X527932Y1152978D01*
X530612Y1152260D01*
X533388D01*
X536068Y1152978D01*
X538472Y1154366D01*
X540434Y1156328D01*
X541822Y1158732D01*
X542540Y1161412D01*
Y1164188D01*
X541822Y1166868D01*
X540434Y1169272D01*
X538472Y1171234D01*
X536068Y1172622D01*
X533388Y1173340D01*
D02*
G37*
G36*
X285388Y1149740D02*
X285270D01*
Y1140470D01*
X294540D01*
Y1140588D01*
X293822Y1143268D01*
X292434Y1145672D01*
X290472Y1147634D01*
X288068Y1149022D01*
X285388Y1149740D01*
D02*
G37*
G36*
X282730D02*
X282612D01*
X279932Y1149022D01*
X277528Y1147634D01*
X275566Y1145672D01*
X274178Y1143268D01*
X273460Y1140588D01*
Y1140470D01*
X282730D01*
Y1149740D01*
D02*
G37*
G36*
X709453Y1154440D02*
X706547D01*
X703739Y1153688D01*
X701221Y1152234D01*
X699166Y1150179D01*
X697712Y1147661D01*
X696960Y1144853D01*
Y1141947D01*
X697712Y1139139D01*
X699166Y1136621D01*
X701221Y1134566D01*
X703739Y1133112D01*
X706547Y1132360D01*
X709453D01*
X712261Y1133112D01*
X714779Y1134566D01*
X716834Y1136621D01*
X718288Y1139139D01*
X719040Y1141947D01*
Y1144853D01*
X718288Y1147661D01*
X716834Y1150179D01*
X714779Y1152234D01*
X712261Y1153688D01*
X709453Y1154440D01*
D02*
G37*
G36*
X294540Y1137930D02*
X285270D01*
Y1128660D01*
X285388D01*
X288068Y1129378D01*
X290472Y1130766D01*
X292434Y1132728D01*
X293822Y1135132D01*
X294540Y1137812D01*
Y1137930D01*
D02*
G37*
G36*
X282730D02*
X273460D01*
Y1137812D01*
X274178Y1135132D01*
X275566Y1132728D01*
X277528Y1130766D01*
X279932Y1129378D01*
X282612Y1128660D01*
X282730D01*
Y1137930D01*
D02*
G37*
G36*
X542540Y1147940D02*
X521460D01*
Y1126860D01*
X542540D01*
Y1147940D01*
D02*
G37*
G36*
X709453Y1129040D02*
X706547D01*
X703739Y1128288D01*
X701221Y1126834D01*
X699166Y1124779D01*
X697712Y1122261D01*
X696960Y1119453D01*
Y1116547D01*
X697712Y1113739D01*
X699166Y1111221D01*
X701221Y1109166D01*
X703739Y1107712D01*
X706547Y1106960D01*
X709453D01*
X712261Y1107712D01*
X714779Y1109166D01*
X716834Y1111221D01*
X718288Y1113739D01*
X719040Y1116547D01*
Y1119453D01*
X718288Y1122261D01*
X716834Y1124779D01*
X714779Y1126834D01*
X712261Y1128288D01*
X709453Y1129040D01*
D02*
G37*
G36*
X306651Y1100540D02*
X306270D01*
Y1089270D01*
X317540D01*
Y1089651D01*
X316685Y1092840D01*
X315035Y1095700D01*
X312700Y1098035D01*
X309840Y1099685D01*
X306651Y1100540D01*
D02*
G37*
G36*
X303730D02*
X303349D01*
X300160Y1099685D01*
X297300Y1098035D01*
X294965Y1095700D01*
X293315Y1092840D01*
X292460Y1089651D01*
Y1089270D01*
X303730D01*
Y1100540D01*
D02*
G37*
G36*
X317540Y1086730D02*
X306270D01*
Y1075460D01*
X306651D01*
X309840Y1076315D01*
X312700Y1077965D01*
X315035Y1080300D01*
X316685Y1083160D01*
X317540Y1086349D01*
Y1086730D01*
D02*
G37*
G36*
X303730D02*
X292460D01*
Y1086349D01*
X293315Y1083160D01*
X294965Y1080300D01*
X297300Y1077965D01*
X300160Y1076315D01*
X303349Y1075460D01*
X303730D01*
Y1086730D01*
D02*
G37*
G36*
X718040Y1069040D02*
X695960D01*
Y1046960D01*
X718040D01*
Y1069040D01*
D02*
G37*
G36*
X708453Y1043640D02*
X708270D01*
Y1033870D01*
X718040D01*
Y1034053D01*
X717288Y1036861D01*
X715834Y1039379D01*
X713779Y1041434D01*
X711261Y1042888D01*
X708453Y1043640D01*
D02*
G37*
G36*
X705730D02*
X705547D01*
X702739Y1042888D01*
X700221Y1041434D01*
X698166Y1039379D01*
X696712Y1036861D01*
X695960Y1034053D01*
Y1033870D01*
X705730D01*
Y1043640D01*
D02*
G37*
G36*
X718040Y1031330D02*
X708270D01*
Y1021560D01*
X708453D01*
X711261Y1022312D01*
X713779Y1023766D01*
X715834Y1025821D01*
X717288Y1028339D01*
X718040Y1031147D01*
Y1031330D01*
D02*
G37*
G36*
X705730D02*
X695960D01*
Y1031147D01*
X696712Y1028339D01*
X698166Y1025821D01*
X700221Y1023766D01*
X702739Y1022312D01*
X705547Y1021560D01*
X705730D01*
Y1031330D01*
D02*
G37*
G36*
X708453Y1018240D02*
X705547D01*
X702739Y1017488D01*
X700221Y1016034D01*
X698166Y1013979D01*
X696712Y1011461D01*
X695960Y1008653D01*
Y1005747D01*
X696712Y1002939D01*
X698166Y1000421D01*
X700221Y998366D01*
X702739Y996912D01*
X705547Y996160D01*
X708453D01*
X711261Y996912D01*
X713779Y998366D01*
X715834Y1000421D01*
X717288Y1002939D01*
X718040Y1005747D01*
Y1008653D01*
X717288Y1011461D01*
X715834Y1013979D01*
X713779Y1016034D01*
X711261Y1017488D01*
X708453Y1018240D01*
D02*
G37*
G36*
X461035Y984890D02*
X455905D01*
X450874Y983889D01*
X446135Y981926D01*
X441870Y979077D01*
X438243Y975450D01*
X435394Y971185D01*
X433431Y966446D01*
X432430Y961415D01*
Y956285D01*
X433431Y951254D01*
X435394Y946515D01*
X438243Y942251D01*
X441870Y938623D01*
X446135Y935774D01*
X450874Y933811D01*
X455905Y932810D01*
X461035D01*
X466066Y933811D01*
X470805Y935774D01*
X475070Y938623D01*
X478697Y942251D01*
X481546Y946515D01*
X483509Y951254D01*
X484510Y956285D01*
Y961415D01*
X483509Y966446D01*
X481546Y971185D01*
X478697Y975450D01*
X475070Y979077D01*
X470805Y981926D01*
X466066Y983889D01*
X461035Y984890D01*
D02*
G37*
G36*
X712730Y703790D02*
X712149D01*
X708519Y703068D01*
X705100Y701652D01*
X702022Y699595D01*
X699405Y696978D01*
X697348Y693900D01*
X695932Y690481D01*
X695210Y686851D01*
Y686270D01*
X712730D01*
Y703790D01*
D02*
G37*
G36*
Y683730D02*
X695210D01*
Y683149D01*
X695932Y679519D01*
X697348Y676100D01*
X699405Y673022D01*
X702022Y670405D01*
X705100Y668348D01*
X708519Y666932D01*
X712149Y666210D01*
X712730D01*
Y683730D01*
D02*
G37*
G36*
X461035Y432890D02*
X455905D01*
X450874Y431889D01*
X446135Y429926D01*
X441870Y427077D01*
X438243Y423450D01*
X435394Y419185D01*
X433431Y414446D01*
X432430Y409415D01*
Y404285D01*
X433431Y399254D01*
X435394Y394515D01*
X438243Y390251D01*
X441870Y386623D01*
X446135Y383774D01*
X450874Y381811D01*
X455905Y380810D01*
X461035D01*
X466066Y381811D01*
X470805Y383774D01*
X475070Y386623D01*
X478697Y390251D01*
X481546Y394515D01*
X483509Y399254D01*
X484510Y404285D01*
Y409415D01*
X483509Y414446D01*
X481546Y419185D01*
X478697Y423450D01*
X475070Y427077D01*
X470805Y429926D01*
X466066Y431889D01*
X461035Y432890D01*
D02*
G37*
G36*
X635687Y434390D02*
X631353D01*
X627071Y433712D01*
X622948Y432372D01*
X619086Y430404D01*
X615579Y427856D01*
X612514Y424791D01*
X609966Y421284D01*
X607998Y417422D01*
X606658Y413299D01*
X605980Y409017D01*
Y404683D01*
X606658Y400401D01*
X607998Y396278D01*
X609966Y392416D01*
X612514Y388909D01*
X615579Y385844D01*
X619086Y383296D01*
X622948Y381328D01*
X627071Y379988D01*
X631353Y379310D01*
X635687D01*
X639969Y379988D01*
X644092Y381328D01*
X647954Y383296D01*
X651461Y385844D01*
X654526Y388909D01*
X657074Y392416D01*
X659042Y396278D01*
X660382Y400401D01*
X661060Y404683D01*
Y409017D01*
X660382Y413299D01*
X659042Y417422D01*
X657074Y421284D01*
X654526Y424791D01*
X651461Y427856D01*
X647954Y430404D01*
X644092Y432372D01*
X639969Y433712D01*
X635687Y434390D01*
D02*
G37*
G36*
X285394Y344690D02*
X281446D01*
X277575Y343920D01*
X273927Y342409D01*
X270645Y340216D01*
X267854Y337425D01*
X265661Y334142D01*
X264150Y330495D01*
X263380Y326624D01*
Y322676D01*
X264150Y318804D01*
X265661Y315158D01*
X267854Y311875D01*
X270645Y309084D01*
X273927Y306891D01*
X277575Y305380D01*
X281446Y304610D01*
X285394D01*
X289265Y305380D01*
X292913Y306891D01*
X296195Y309084D01*
X298986Y311875D01*
X301179Y315158D01*
X302690Y318804D01*
X303460Y322676D01*
Y326624D01*
X302690Y330495D01*
X301179Y334142D01*
X298986Y337425D01*
X296195Y340216D01*
X292913Y342409D01*
X289265Y343920D01*
X285394Y344690D01*
D02*
G37*
G36*
X713730Y291790D02*
X713149D01*
X709519Y291068D01*
X706100Y289652D01*
X703022Y287595D01*
X700405Y284978D01*
X698348Y281900D01*
X696932Y278481D01*
X696210Y274851D01*
Y274270D01*
X713730D01*
Y291790D01*
D02*
G37*
G36*
X279851D02*
X279270D01*
Y274270D01*
X296790D01*
Y274851D01*
X296068Y278481D01*
X294652Y281900D01*
X292595Y284978D01*
X289978Y287595D01*
X286900Y289652D01*
X283481Y291068D01*
X279851Y291790D01*
D02*
G37*
G36*
X276730D02*
X276149D01*
X272519Y291068D01*
X269100Y289652D01*
X266022Y287595D01*
X263405Y284978D01*
X261348Y281900D01*
X259932Y278481D01*
X259210Y274851D01*
Y274270D01*
X276730D01*
Y291790D01*
D02*
G37*
%LPD*%
D45*
X670000Y2076000D02*
D03*
Y2036000D02*
D03*
Y2016000D02*
D03*
Y1976000D02*
D03*
Y1956000D02*
D03*
Y2096000D02*
D03*
Y1996000D02*
D03*
Y2056000D02*
D03*
X635574Y2228426D02*
D03*
X678000Y2186000D02*
D03*
X464000Y2264000D02*
D03*
X524000D02*
D03*
X300716Y2190716D02*
D03*
X343142Y2233142D02*
D03*
X311000Y1999000D02*
D03*
Y2059000D02*
D03*
X306000Y1767000D02*
D03*
Y1887000D02*
D03*
Y1787000D02*
D03*
Y1807000D02*
D03*
Y1827000D02*
D03*
Y1847000D02*
D03*
Y1867000D02*
D03*
X311000Y1959000D02*
D03*
X272432Y2162431D02*
D03*
X424000Y2264000D02*
D03*
X607289Y2256711D02*
D03*
X706284Y2157716D02*
D03*
X692142Y2171858D02*
D03*
X663858Y2200142D02*
D03*
X649716Y2214284D02*
D03*
X621431Y2242569D02*
D03*
X564000Y2264000D02*
D03*
X544000D02*
D03*
X504000D02*
D03*
X484000D02*
D03*
X444000D02*
D03*
X371426Y2261426D02*
D03*
X357284Y2247284D02*
D03*
X329000Y2219000D02*
D03*
X314858Y2204858D02*
D03*
X286574Y2176574D02*
D03*
X311000Y2099000D02*
D03*
Y2079000D02*
D03*
Y2039000D02*
D03*
Y2019000D02*
D03*
Y1979000D02*
D03*
X306000Y1907000D02*
D03*
D47*
X284000Y1266200D02*
D03*
Y1342400D02*
D03*
Y1367800D02*
D03*
Y1393200D02*
D03*
Y1444000D02*
D03*
Y1469400D02*
D03*
Y1520200D02*
D03*
Y1571000D02*
D03*
Y1596400D02*
D03*
Y1545600D02*
D03*
Y1494800D02*
D03*
Y1418600D02*
D03*
Y1317000D02*
D03*
Y1291600D02*
D03*
Y1240800D02*
D03*
Y1215400D02*
D03*
Y1190000D02*
D03*
Y1164600D02*
D03*
Y1139200D02*
D03*
X532000Y1493000D02*
D03*
Y1416800D02*
D03*
Y1391400D02*
D03*
Y1366000D02*
D03*
Y1315200D02*
D03*
Y1289800D02*
D03*
Y1239000D02*
D03*
Y1188200D02*
D03*
Y1162800D02*
D03*
Y1213600D02*
D03*
Y1264400D02*
D03*
Y1340600D02*
D03*
Y1442200D02*
D03*
Y1467600D02*
D03*
Y1518400D02*
D03*
Y1543800D02*
D03*
Y1569200D02*
D03*
Y1594600D02*
D03*
Y1620000D02*
D03*
D48*
X284000Y1621800D02*
D03*
X532000Y1137400D02*
D03*
D49*
X707000Y1032600D02*
D03*
Y1007200D02*
D03*
X708000Y1143400D02*
D03*
Y1118000D02*
D03*
D50*
Y1168800D02*
D03*
X707000Y1058000D02*
D03*
D54*
X633520Y406850D02*
D03*
X283420Y958850D02*
D03*
D55*
Y324650D02*
D03*
D56*
X458470Y406850D02*
D03*
Y958850D02*
D03*
D57*
X350000Y2172000D02*
D03*
X368890Y2214000D02*
D03*
X377000Y2176920D02*
D03*
X613147Y1652016D02*
D03*
X666001Y1819216D02*
D03*
X418000Y1665000D02*
D03*
X367552Y1621448D02*
D03*
X431517Y1648532D02*
D03*
X491000Y1646000D02*
D03*
X456000Y1628000D02*
D03*
X506320Y1670320D02*
D03*
X486000Y1673747D02*
D03*
X459760Y1826913D02*
D03*
X399000Y1742000D02*
D03*
X671081Y1800331D02*
D03*
X459966Y2160689D02*
D03*
X500679Y2077509D02*
D03*
X396270Y2099213D02*
D03*
X452816Y2107184D02*
D03*
X475979Y2053000D02*
D03*
X393035Y1873621D02*
D03*
X486000Y2126000D02*
D03*
X586000Y2160000D02*
D03*
X485560Y2166641D02*
D03*
X462089Y2000110D02*
D03*
X626000Y2047000D02*
D03*
X614160Y1819216D02*
D03*
X612514Y1802429D02*
D03*
X594327Y1948953D02*
D03*
X530000Y1712000D02*
D03*
X373095Y2120845D02*
D03*
X407627Y2014991D02*
D03*
X357000Y2009000D02*
D03*
X598000Y1791000D02*
D03*
D58*
X711000Y1393000D02*
D03*
Y1432370D02*
D03*
X639880D02*
D03*
Y1393000D02*
D03*
X616000Y1203000D02*
D03*
X305000Y1088000D02*
D03*
D59*
X714000Y685000D02*
D03*
X715000Y273000D02*
D03*
X278000D02*
D03*
X273000Y2287000D02*
D03*
X716000D02*
D03*
M02*
