G04*
G04 #@! TF.GenerationSoftware,Altium Limited,Altium Designer,22.11.1 (43)*
G04*
G04 Layer_Physical_Order=4*
G04 Layer_Color=16711680*
%FSLAX44Y44*%
%MOMM*%
G71*
G04*
G04 #@! TF.SameCoordinates,B6AE56F5-1224-44F4-9462-935C271CF011*
G04*
G04*
G04 #@! TF.FilePolarity,Positive*
G04*
G01*
G75*
%ADD13C,0.2540*%
%ADD40C,1.0000*%
%ADD45C,1.3500*%
%ADD46R,1.3500X1.3500*%
%ADD47C,1.6000*%
%ADD48R,1.6000X1.6000*%
%ADD49C,1.7000*%
%ADD50R,1.7000X1.7000*%
%ADD51P,1.9092X4X90.0*%
%ADD52R,1.3500X1.3500*%
%ADD53P,1.9092X4X360.0*%
%ADD54C,5.0000*%
%ADD55C,3.5000*%
%ADD56C,4.7000*%
%ADD57C,1.2700*%
%ADD58C,2.0000*%
%ADD59C,3.2500*%
%ADD60R,1.1500X1.7000*%
%ADD61R,1.8062X1.3046*%
%ADD62R,1.7000X1.1500*%
%ADD63R,1.5500X1.9000*%
G04:AMPARAMS|DCode=64|XSize=1.7528mm|YSize=0.4149mm|CornerRadius=0.2075mm|HoleSize=0mm|Usage=FLASHONLY|Rotation=180.000|XOffset=0mm|YOffset=0mm|HoleType=Round|Shape=RoundedRectangle|*
%AMROUNDEDRECTD64*
21,1,1.7528,0.0000,0,0,180.0*
21,1,1.3379,0.4149,0,0,180.0*
1,1,0.4149,-0.6690,0.0000*
1,1,0.4149,0.6690,0.0000*
1,1,0.4149,0.6690,0.0000*
1,1,0.4149,-0.6690,0.0000*
%
%ADD64ROUNDEDRECTD64*%
G04:AMPARAMS|DCode=65|XSize=1.7528mm|YSize=0.4149mm|CornerRadius=0.2075mm|HoleSize=0mm|Usage=FLASHONLY|Rotation=90.000|XOffset=0mm|YOffset=0mm|HoleType=Round|Shape=RoundedRectangle|*
%AMROUNDEDRECTD65*
21,1,1.7528,0.0000,0,0,90.0*
21,1,1.3379,0.4149,0,0,90.0*
1,1,0.4149,0.0000,0.6690*
1,1,0.4149,0.0000,-0.6690*
1,1,0.4149,0.0000,-0.6690*
1,1,0.4149,0.0000,0.6690*
%
%ADD65ROUNDEDRECTD65*%
%ADD66R,1.7528X0.4149*%
%ADD67R,0.4149X1.7528*%
D13*
X300440Y2122440D02*
X350000Y2172000D01*
X300440Y2089560D02*
X311000Y2079000D01*
X300440Y2089560D02*
Y2122440D01*
X339840Y2171531D02*
Y2176208D01*
X317384Y2149076D02*
X339840Y2171531D01*
X270853Y2149076D02*
X317384D01*
X339840Y2176208D02*
X345792Y2182160D01*
X350469D01*
X367000Y2214000D02*
Y2237569D01*
X350469Y2182160D02*
X355389Y2187080D01*
X367000Y2214000D02*
X368890D01*
X357284Y2247284D02*
X367000Y2237569D01*
X327556Y2192160D02*
X450047D01*
X475400Y2166807D01*
X314858Y2204858D02*
X327556Y2192160D01*
X355389Y2187080D02*
X447943D01*
X470320Y2164703D01*
Y2156048D02*
Y2164703D01*
X475400Y2159623D02*
Y2166807D01*
X522488Y1926304D02*
Y2112535D01*
X517408Y1928408D02*
Y2108961D01*
X470320Y2156048D02*
X517408Y2108961D01*
X475400Y2159623D02*
X522488Y2112535D01*
X259076Y2160853D02*
X270853Y2149076D01*
X357284Y2247284D02*
Y2262218D01*
X369626Y2274560D01*
X533440D01*
X544000Y2264000D01*
X554560Y2274560D01*
X604374D01*
X692142Y2186792D01*
Y2171858D02*
Y2186792D01*
X659440Y1986560D02*
Y2139156D01*
Y1986560D02*
X670000Y1976000D01*
X659440Y2139156D02*
X692142Y2171858D01*
X603670Y2029518D02*
Y2139954D01*
X663858Y2200142D01*
X598590Y2163158D02*
X649716Y2214284D01*
X598590Y2031622D02*
Y2163158D01*
X613147Y1396347D02*
Y1652016D01*
X532000Y1315200D02*
X613147Y1396347D01*
X671081Y1710081D02*
Y1800331D01*
X583182Y1697092D02*
X650908D01*
X660921Y1707105D01*
X653000Y1692000D02*
X671081Y1710081D01*
X660921Y1707105D02*
Y1804539D01*
X585274Y1692000D02*
X653000D01*
X665438Y1818654D02*
X666001Y1819216D01*
X665438Y1809056D02*
Y1818654D01*
X554849Y1636836D02*
X588135Y1670122D01*
X532134Y1636836D02*
X554849D01*
X498849Y1603551D02*
X532134Y1636836D01*
X522896Y1640000D02*
X530250Y1647354D01*
Y1679249D01*
X638080Y1929104D02*
X638080Y1929104D01*
X642760Y1713820D02*
Y1715000D01*
X637988Y1720804D02*
X638080Y1720896D01*
X549750Y1692397D02*
X574766Y1717412D01*
X578974Y1707252D02*
X644000D01*
X650761Y1714013D01*
Y1879889D01*
X638080Y1720896D02*
Y1929104D01*
X574766Y1717412D02*
X637988D01*
X643160Y1718792D02*
Y1902160D01*
X641272Y1712332D02*
X642760Y1713820D01*
Y1715000D02*
X643068Y1715308D01*
X576870Y1712332D02*
X641272D01*
X643068Y1715308D02*
Y1718699D01*
X654104Y1913080D02*
X666920D01*
X643068Y1718699D02*
X643160Y1718792D01*
X637988Y1717412D02*
Y1720804D01*
X638080Y1929104D02*
X654104Y1913080D01*
X576058Y1689968D02*
X583182Y1697092D01*
X277995Y1464000D02*
X283698Y1469702D01*
X284302D01*
X284000Y1520200D02*
X286887Y1523087D01*
X272190Y1508390D02*
X284000Y1520200D01*
X282000Y1491000D02*
Y1497924D01*
X397000Y1659000D02*
X397308Y1659308D01*
X396692Y1658692D02*
X397000Y1659000D01*
X415251Y1665000D02*
X418000D01*
X397308Y1659308D02*
X409559D01*
X415251Y1665000D01*
X277240Y1357858D02*
X284000Y1364618D01*
X262000Y1271498D02*
Y1326146D01*
X272160Y1354446D02*
Y1381360D01*
Y1312138D02*
Y1330354D01*
X262030Y1333300D02*
Y1351500D01*
X272190Y1347292D02*
X277240Y1352342D01*
Y1357858D01*
X267080Y1356550D02*
Y1401680D01*
X262030Y1333300D02*
X267080Y1328250D01*
X267110Y1335404D02*
X272160Y1330354D01*
X267080Y1401680D02*
X284000Y1418600D01*
X267110Y1349396D02*
X272160Y1354446D01*
X256950Y1353604D02*
X262000Y1358654D01*
X256950Y1331196D02*
X262000Y1326146D01*
Y1523600D02*
X284000Y1545600D01*
X272160Y1312138D02*
X279108Y1305190D01*
X272160Y1381360D02*
X284000Y1393200D01*
X267080Y1291818D02*
X279108Y1279790D01*
X267080Y1291818D02*
Y1328250D01*
X272190Y1337508D02*
Y1347292D01*
Y1337508D02*
X279108Y1330590D01*
X262000Y1358654D02*
Y1523600D01*
X256950Y1331196D02*
Y1353604D01*
X262030Y1351500D02*
X267080Y1356550D01*
X267110Y1335404D02*
Y1349396D01*
X284000Y1364618D02*
Y1367800D01*
X262000Y1271498D02*
X279108Y1254390D01*
X293001Y1279790D02*
X303659Y1290448D01*
X317552D01*
X295894Y1267918D02*
X302896Y1274920D01*
X279108Y1279790D02*
X293001D01*
X288892Y1254390D02*
X295894Y1261392D01*
Y1267918D01*
X279108Y1254390D02*
X288892D01*
Y1305190D02*
X488689Y1504987D01*
X279108Y1305190D02*
X288892D01*
X279108Y1330590D02*
X303747D01*
X317552Y1290448D02*
Y1292552D01*
X493769Y1468769D01*
Y1623769D01*
X498849Y1428049D02*
Y1603551D01*
X345720Y1274920D02*
X498849Y1428049D01*
X302896Y1274920D02*
X345720D01*
X482157Y1509000D02*
Y1637157D01*
X477077Y1511104D02*
Y1664824D01*
X303747Y1330590D02*
X482157Y1509000D01*
X308373Y1342400D02*
X477077Y1511104D01*
X284000Y1342400D02*
X308373D01*
X492365Y1681750D02*
X492365D01*
X490440Y1683675D02*
X492365Y1681750D01*
X492365D02*
X496160Y1677955D01*
X391920Y1600660D02*
Y1636068D01*
X295810Y1504550D02*
X391920Y1600660D01*
X295810Y1481210D02*
Y1504550D01*
X282000Y1497924D02*
X367552Y1583477D01*
X305970Y1449268D02*
Y1500342D01*
X402080Y1596452D02*
Y1633464D01*
X300890Y1502446D02*
X397000Y1598556D01*
X367552Y1583477D02*
Y1621448D01*
X300890Y1454354D02*
Y1502446D01*
X305970Y1500342D02*
X402080Y1596452D01*
X397000Y1598556D02*
Y1646000D01*
X384426Y1643562D02*
X391920Y1636068D01*
X384426Y1643562D02*
Y1648438D01*
X427616Y1659000D02*
X464503D01*
X402080Y1633464D02*
X427616Y1659000D01*
X288622Y1431920D02*
X305970Y1449268D01*
X293079Y1446543D02*
X300890Y1454354D01*
X284302Y1469702D02*
X295810Y1481210D01*
X287268Y1443593D02*
X290218Y1446543D01*
X293079D01*
X272190Y1439108D02*
Y1508390D01*
X279378Y1431920D02*
X288622D01*
X272190Y1439108D02*
X279378Y1431920D01*
X389260Y1651885D02*
X389875Y1652500D01*
X387873Y1651885D02*
X389260D01*
X384426Y1648438D02*
X387873Y1651885D01*
X389875Y1652500D02*
X397000D01*
X674950Y1007200D02*
X707000D01*
X673000Y1005250D02*
X674950Y1007200D01*
X588135Y1678633D02*
X588750Y1679249D01*
X510000Y1640000D02*
X522896D01*
X588135Y1670122D02*
Y1678633D01*
X488689Y1504987D02*
Y1627138D01*
X434266Y1648532D02*
X438234Y1652500D01*
X431517Y1648532D02*
X434266D01*
X438234Y1652500D02*
X464503D01*
X482157Y1637157D02*
X491000Y1646000D01*
X477077Y1664824D02*
X486000Y1673747D01*
X456000Y1628000D02*
X457335D01*
X465000Y1635665D01*
X488689Y1627138D02*
X523750Y1662199D01*
Y1679249D01*
X493769Y1623769D02*
X510000Y1640000D01*
X397308Y1652192D02*
X405820D01*
X465000Y1635665D02*
Y1645257D01*
X491000Y1646000D02*
Y1664378D01*
X508251Y1672251D02*
X516507D01*
X517250Y1672995D02*
Y1679249D01*
X516507Y1672251D02*
X517250Y1672995D01*
X506320Y1670320D02*
X508251Y1672251D01*
X491000Y1664378D02*
X496160Y1669538D01*
Y1677955D01*
X490440Y1683675D02*
Y1698952D01*
X485360Y1674386D02*
X486000Y1673747D01*
X485360Y1674386D02*
Y1714862D01*
X491928Y1700440D02*
X517440D01*
X485360Y1714862D02*
X517250Y1746751D01*
X517440Y1700440D02*
X519840Y1702840D01*
X490440Y1698952D02*
X491928Y1700440D01*
X459760Y1826389D02*
Y1826913D01*
X453000Y1819629D02*
X459760Y1826389D01*
X398257Y1717500D02*
X399000Y1718243D01*
X397000Y1717500D02*
X398257D01*
X399000Y1718243D02*
Y1742000D01*
X464503Y1645754D02*
X465000Y1645257D01*
X464503Y1645754D02*
Y1646000D01*
X649000Y1908000D02*
X671688D01*
X666920Y1913080D02*
X684840Y1931000D01*
X643160Y1902160D02*
X649000Y1908000D01*
X660921Y1804539D02*
X665438Y1809056D01*
X671688Y1908000D02*
X689920Y1926232D01*
X650761Y1879889D02*
X695000Y1924128D01*
X622080Y1728080D02*
X627920Y1733920D01*
Y1915361D01*
X594327Y1948953D02*
X627920Y1915361D01*
X571065Y1728080D02*
X622080D01*
X259076Y2160853D02*
Y2164010D01*
X314066Y2219000D01*
X329000D01*
X407685Y2261426D02*
X487231Y2181881D01*
X371426Y2261426D02*
X407685D01*
X487231Y2181881D02*
X538488D01*
X555160Y2165208D01*
X459966Y2159427D02*
Y2160689D01*
X442656Y2142117D02*
X459966Y2159427D01*
X447920Y1851736D02*
X522488Y1926304D01*
X447920Y1734407D02*
Y1851736D01*
X441769Y1852769D02*
X517408Y1928408D01*
X441769Y1709639D02*
Y1852769D01*
X453000Y1732303D02*
Y1819629D01*
X451929Y1731232D02*
X453000Y1732303D01*
X451929Y1713847D02*
Y1731232D01*
X421449Y1701222D02*
Y2088403D01*
X311000Y2099000D02*
X393035Y2016965D01*
X431609Y1705430D02*
Y2071609D01*
X393035Y1873621D02*
Y2016965D01*
X426529Y2076480D02*
X442656Y2092607D01*
X426529Y1703326D02*
Y2076480D01*
X389007Y2120845D02*
X421449Y2088403D01*
X431609Y2071609D02*
X484500Y2124500D01*
X442656Y2092607D02*
Y2142117D01*
X436689Y2013710D02*
X475979Y2053000D01*
X436689Y1707535D02*
Y2013710D01*
X344049Y1848951D02*
X375000Y1818000D01*
X344049Y1848951D02*
Y1985951D01*
X311000Y2019000D02*
X344049Y1985951D01*
X370000Y1834000D02*
Y1980000D01*
X311000Y2039000D02*
X370000Y1980000D01*
Y1834000D02*
X380080Y1823920D01*
Y1768806D02*
Y1823920D01*
X379346Y1768072D02*
X380080Y1768806D01*
X379346Y1712958D02*
Y1768072D01*
Y1712958D02*
X387496Y1704808D01*
X396692D01*
X306000Y1867000D02*
X368922Y1804078D01*
Y1709014D02*
Y1804078D01*
X358762Y1704805D02*
Y1774238D01*
X306000Y1827000D02*
X358762Y1774238D01*
X363842Y1706909D02*
Y1789158D01*
X306000Y1847000D02*
X363842Y1789158D01*
X374266Y1710854D02*
Y1817266D01*
X375000Y1818000D01*
X446531Y1668955D02*
X451852D01*
X448635Y1674035D02*
X453956D01*
X451929Y1713847D02*
X454468Y1711308D01*
X464195D01*
X464503Y1711000D01*
X446849Y1733336D02*
X447920Y1734407D01*
X446849Y1711743D02*
Y1733336D01*
Y1711743D02*
X453784Y1704808D01*
X464195D01*
X453100Y1698308D02*
X464195D01*
X436689Y1707535D02*
X452415Y1691808D01*
X464195D01*
X431609Y1705430D02*
X451929Y1685110D01*
X464392D01*
X464503Y1685000D01*
X426529Y1703326D02*
X450740Y1679115D01*
X456060D01*
X421449Y1701222D02*
X448635Y1674035D01*
X416369Y1699118D02*
X446531Y1668955D01*
X407627Y2014991D02*
X416369Y2006249D01*
Y1699118D02*
Y2006249D01*
X441769Y1709639D02*
X453100Y1698308D01*
X464195Y1704808D02*
X464503Y1704500D01*
X464195Y1698308D02*
X464503Y1698000D01*
X484000Y2243553D02*
X560240Y2167313D01*
X504000Y2230737D02*
Y2264000D01*
X575480Y2150655D02*
Y2174855D01*
X548607Y2017560D02*
X555160Y2024113D01*
X564000Y2186335D02*
Y2264000D01*
X575480Y2150655D02*
X593510Y2132625D01*
X564000Y2186335D02*
X575480Y2174855D01*
X504000Y2230737D02*
X565320Y2169417D01*
X555160Y2024113D02*
Y2165208D01*
X553687Y2015456D02*
X560240Y2022009D01*
X565320Y2019905D02*
Y2169417D01*
X484000Y2243553D02*
Y2264000D01*
X558767Y2013352D02*
X565320Y2019905D01*
X560240Y2022009D02*
Y2167313D01*
X471192Y1717500D02*
X523692Y1770000D01*
X464503Y1717500D02*
X471192D01*
X523692Y1770000D02*
X539000D01*
X548607Y1830414D02*
Y2017560D01*
X556250Y1746751D02*
Y1822772D01*
X553687Y1832518D02*
X562750Y1823456D01*
X558767Y1834623D02*
X569250Y1824140D01*
X548607Y1830414D02*
X556250Y1822772D01*
X558767Y1834623D02*
Y2013352D01*
X553687Y1832518D02*
Y2015456D01*
X562750Y1746751D02*
Y1823456D01*
X569250Y1746751D02*
Y1824140D01*
X593510Y2033726D02*
Y2132625D01*
X568927Y2009144D02*
X593510Y2033726D01*
X574007Y2007039D02*
X598590Y2031622D01*
X579087Y2004935D02*
X603670Y2029518D01*
X568927Y1838831D02*
Y2009144D01*
X582250Y1746751D02*
Y1825508D01*
X568927Y1838831D02*
X582250Y1825508D01*
X689920Y1926232D02*
Y2016080D01*
X670000Y2036000D02*
X689920Y2016080D01*
X684840Y1931000D02*
Y2001160D01*
X670000Y2016000D02*
X684840Y2001160D01*
X695000Y1924128D02*
Y2146431D01*
X706284Y2157716D01*
X699334Y2154812D02*
X700415D01*
X703318Y2157716D01*
X706284D01*
X579087Y1853342D02*
X613213Y1819216D01*
X574007Y1840935D02*
X612514Y1802429D01*
X574007Y1840935D02*
Y2007039D01*
X613213Y1819216D02*
X614160D01*
X579087Y1853342D02*
Y2004935D01*
X556250Y1691712D02*
X576870Y1712332D01*
X536750Y1693765D02*
X571065Y1728080D01*
X536750Y1679249D02*
Y1693765D01*
X386812Y1698308D02*
X396692D01*
X385444Y1685308D02*
X396692D01*
X348602Y1700597D02*
X383699Y1665500D01*
X397000D01*
X384759Y1678808D02*
X396692D01*
X358762Y1704805D02*
X384759Y1678808D01*
X348602Y1700597D02*
Y1744398D01*
X374266Y1710854D02*
X386812Y1698308D01*
X363842Y1706909D02*
X385444Y1685308D01*
X386128Y1691808D02*
X396692D01*
X368922Y1709014D02*
X386128Y1691808D01*
X384383Y1672000D02*
X397000D01*
X353682Y1702701D02*
X384383Y1672000D01*
X353682Y1702701D02*
Y1759318D01*
X396692Y1704808D02*
X397000Y1704500D01*
X396692Y1698308D02*
X397000Y1698000D01*
X556250Y1679249D02*
Y1691712D01*
X549750Y1679249D02*
Y1692397D01*
X563058Y1691336D02*
X578974Y1707252D01*
X563058Y1679556D02*
Y1691336D01*
X562750Y1679249D02*
X563058Y1679556D01*
X569250Y1679249D02*
X569558Y1679556D01*
X576058D02*
Y1689968D01*
X575750Y1679249D02*
X576058Y1679556D01*
X582250Y1679249D02*
X582558Y1679556D01*
Y1689283D01*
X585274Y1692000D01*
X306000Y1787000D02*
X348602Y1744398D01*
X306000Y1807000D02*
X353682Y1759318D01*
X396692Y1678808D02*
X397000Y1678500D01*
X396692Y1685308D02*
X397000Y1685000D01*
X396692Y1691808D02*
X397000Y1691500D01*
X530125Y1746626D02*
X530250Y1746751D01*
X530125Y1712125D02*
Y1746626D01*
X530000Y1712000D02*
X530125Y1712125D01*
X464195Y1691808D02*
X464503Y1691500D01*
X464195Y1672308D02*
X464503Y1672000D01*
X455683Y1672308D02*
X464195D01*
X453956Y1674035D02*
X455683Y1672308D01*
X373095Y2120845D02*
X389007D01*
X464195Y1678808D02*
X464503Y1678500D01*
X456367Y1678808D02*
X464195D01*
X456060Y1679115D02*
X456367Y1678808D01*
X451852Y1668955D02*
X454999Y1665808D01*
X464195D02*
X464503Y1665500D01*
X454999Y1665808D02*
X464195D01*
X673000Y1054992D02*
X676008Y1058000D01*
X707000D01*
X539000Y1770000D02*
X543250Y1765750D01*
Y1746751D02*
Y1765750D01*
X652250Y1113000D02*
Y1138000D01*
Y1113000D02*
X656730Y1108520D01*
Y1099278D02*
Y1108520D01*
X646250Y1144000D02*
X652250Y1138000D01*
X656730Y1099278D02*
X665239Y1090769D01*
X646250Y1145750D02*
X652730Y1152230D01*
X646250Y1144000D02*
Y1145750D01*
X665239Y1088261D02*
X670492Y1083008D01*
X665239Y1088261D02*
Y1090769D01*
X652730Y1152230D02*
X654480D01*
X671050Y1168800D01*
X670492Y1083008D02*
X673000D01*
X671050Y1168800D02*
X708000D01*
X704087Y1118000D02*
X708000D01*
X699087Y1113000D02*
X704087Y1118000D01*
X677750Y1113000D02*
X699087D01*
X673000Y1030750D02*
X674850Y1032600D01*
X707000D01*
X676350Y1143400D02*
X708000D01*
X675750Y1144000D02*
X676350Y1143400D01*
X588875Y1746876D02*
Y1783961D01*
X595914Y1791000D02*
X598000D01*
X588875Y1783961D02*
X595914Y1791000D01*
X588750Y1746751D02*
X588875Y1746876D01*
X519840Y1719124D02*
X523750Y1723034D01*
Y1746751D01*
X519840Y1702840D02*
Y1719124D01*
X397000Y1652500D02*
X397308Y1652192D01*
X464195D02*
X464503Y1652500D01*
D40*
X708000Y1118000D02*
X725000Y1101000D01*
Y1025200D02*
Y1101000D01*
X707000Y1007200D02*
X725000Y1025200D01*
D45*
X670000Y2076000D02*
D03*
Y2036000D02*
D03*
Y2016000D02*
D03*
Y1976000D02*
D03*
Y1956000D02*
D03*
Y1996000D02*
D03*
Y2056000D02*
D03*
X635574Y2228426D02*
D03*
X678000Y2186000D02*
D03*
X464000Y2264000D02*
D03*
X524000D02*
D03*
X300716Y2190716D02*
D03*
X343142Y2233142D02*
D03*
X311000Y1999000D02*
D03*
Y2059000D02*
D03*
X306000Y1887000D02*
D03*
Y1787000D02*
D03*
Y1807000D02*
D03*
Y1827000D02*
D03*
Y1847000D02*
D03*
Y1867000D02*
D03*
X706284Y2157716D02*
D03*
X692142Y2171858D02*
D03*
X663858Y2200142D02*
D03*
X649716Y2214284D02*
D03*
X621431Y2242569D02*
D03*
X564000Y2264000D02*
D03*
X544000D02*
D03*
X504000D02*
D03*
X484000D02*
D03*
X444000D02*
D03*
X371426Y2261426D02*
D03*
X357284Y2247284D02*
D03*
X329000Y2219000D02*
D03*
X314858Y2204858D02*
D03*
X286574Y2176574D02*
D03*
X311000Y2099000D02*
D03*
Y2079000D02*
D03*
Y2039000D02*
D03*
Y2019000D02*
D03*
Y1979000D02*
D03*
X306000Y1907000D02*
D03*
D46*
X670000Y2096000D02*
D03*
X306000Y1767000D02*
D03*
X311000Y1959000D02*
D03*
D47*
X284000Y1266200D02*
D03*
Y1342400D02*
D03*
Y1367800D02*
D03*
Y1393200D02*
D03*
Y1444000D02*
D03*
Y1469400D02*
D03*
Y1520200D02*
D03*
Y1571000D02*
D03*
Y1596400D02*
D03*
Y1545600D02*
D03*
Y1494800D02*
D03*
Y1418600D02*
D03*
Y1317000D02*
D03*
Y1291600D02*
D03*
Y1240800D02*
D03*
Y1215400D02*
D03*
Y1190000D02*
D03*
Y1164600D02*
D03*
Y1139200D02*
D03*
X532000Y1493000D02*
D03*
Y1416800D02*
D03*
Y1391400D02*
D03*
Y1366000D02*
D03*
Y1315200D02*
D03*
Y1289800D02*
D03*
Y1239000D02*
D03*
Y1188200D02*
D03*
Y1162800D02*
D03*
Y1213600D02*
D03*
Y1264400D02*
D03*
Y1340600D02*
D03*
Y1442200D02*
D03*
Y1467600D02*
D03*
Y1518400D02*
D03*
Y1543800D02*
D03*
Y1569200D02*
D03*
Y1594600D02*
D03*
Y1620000D02*
D03*
D48*
X284000Y1621800D02*
D03*
X532000Y1137400D02*
D03*
D49*
X707000Y1032600D02*
D03*
Y1007200D02*
D03*
X708000Y1143400D02*
D03*
Y1118000D02*
D03*
D50*
Y1168800D02*
D03*
X707000Y1058000D02*
D03*
D51*
X272432Y2162431D02*
D03*
D52*
X424000Y2264000D02*
D03*
D53*
X607289Y2256711D02*
D03*
D54*
X633520Y406850D02*
D03*
X283420Y958850D02*
D03*
D55*
Y324650D02*
D03*
D56*
X458470Y406850D02*
D03*
Y958850D02*
D03*
D57*
X350000Y2172000D02*
D03*
X368890Y2214000D02*
D03*
X377000Y2176920D02*
D03*
X613147Y1652016D02*
D03*
X666001Y1819216D02*
D03*
X418000Y1665000D02*
D03*
X367552Y1621448D02*
D03*
X431517Y1648532D02*
D03*
X491000Y1646000D02*
D03*
X456000Y1628000D02*
D03*
X506320Y1670320D02*
D03*
X486000Y1673747D02*
D03*
X459760Y1826913D02*
D03*
X399000Y1742000D02*
D03*
X671081Y1800331D02*
D03*
X459966Y2160689D02*
D03*
X500679Y2077509D02*
D03*
X396270Y2099213D02*
D03*
X452816Y2107184D02*
D03*
X475979Y2053000D02*
D03*
X393035Y1873621D02*
D03*
X486000Y2126000D02*
D03*
X586000Y2160000D02*
D03*
X485560Y2166641D02*
D03*
X462089Y2000110D02*
D03*
X626000Y2047000D02*
D03*
X614160Y1819216D02*
D03*
X612514Y1802429D02*
D03*
X594327Y1948953D02*
D03*
X530000Y1712000D02*
D03*
X373095Y2120845D02*
D03*
X407627Y2014991D02*
D03*
X357000Y2009000D02*
D03*
X598000Y1791000D02*
D03*
D58*
X711000Y1393000D02*
D03*
Y1432370D02*
D03*
X639880D02*
D03*
Y1393000D02*
D03*
X616000Y1203000D02*
D03*
X305000Y1088000D02*
D03*
D59*
X714000Y685000D02*
D03*
X715000Y273000D02*
D03*
X278000D02*
D03*
X273000Y2287000D02*
D03*
X716000D02*
D03*
D60*
X652250Y1113000D02*
D03*
X677750D02*
D03*
D61*
X673000Y1083008D02*
D03*
Y1054992D02*
D03*
D62*
Y1030750D02*
D03*
Y1005250D02*
D03*
D63*
X646250Y1144000D02*
D03*
X675750D02*
D03*
D64*
X397000Y1665500D02*
D03*
Y1672000D02*
D03*
Y1678500D02*
D03*
Y1685000D02*
D03*
Y1691500D02*
D03*
Y1659000D02*
D03*
X464503Y1691500D02*
D03*
Y1685000D02*
D03*
Y1672000D02*
D03*
Y1678500D02*
D03*
Y1665500D02*
D03*
Y1711000D02*
D03*
Y1704500D02*
D03*
Y1698000D02*
D03*
X397000D02*
D03*
Y1704500D02*
D03*
Y1711000D02*
D03*
Y1717500D02*
D03*
Y1652500D02*
D03*
Y1646000D02*
D03*
X464503D02*
D03*
Y1652500D02*
D03*
Y1659000D02*
D03*
D65*
X530250Y1746751D02*
D03*
X582250Y1679249D02*
D03*
X575750D02*
D03*
X569250D02*
D03*
X562750D02*
D03*
X556250D02*
D03*
X549750D02*
D03*
X543250D02*
D03*
X536750D02*
D03*
Y1746751D02*
D03*
X543250D02*
D03*
X549750D02*
D03*
X556250D02*
D03*
X562750D02*
D03*
X569250D02*
D03*
X575750D02*
D03*
X582250D02*
D03*
X588750D02*
D03*
X523750D02*
D03*
X517250D02*
D03*
Y1679249D02*
D03*
X523750D02*
D03*
X530250D02*
D03*
D66*
X464503Y1717500D02*
D03*
D67*
X588750Y1679249D02*
D03*
M02*
