G04*
G04 #@! TF.GenerationSoftware,Altium Limited,Altium Designer,22.11.1 (43)*
G04*
G04 Layer_Physical_Order=2*
G04 Layer_Color=36540*
%FSLAX44Y44*%
%MOMM*%
G71*
G04*
G04 #@! TF.SameCoordinates,B6AE56F5-1224-44F4-9462-935C271CF011*
G04*
G04*
G04 #@! TF.FilePolarity,Positive*
G04*
G01*
G75*
%ADD10C,0.5000*%
%ADD13C,0.2540*%
%ADD40C,1.0000*%
%ADD42C,2.0000*%
%ADD45C,1.3500*%
%ADD47C,1.6000*%
%ADD48R,1.6000X1.6000*%
%ADD49C,1.7000*%
%ADD50R,1.7000X1.7000*%
%ADD54C,5.0000*%
%ADD55C,3.5000*%
%ADD56C,4.7000*%
%ADD57C,1.2700*%
%ADD58C,2.0000*%
%ADD59C,3.2500*%
D10*
X460513Y2077509D02*
X500679D01*
X396270Y2099213D02*
X430483Y2065000D01*
X460513D01*
D13*
X350000Y2172000D02*
X368890Y2190890D01*
Y2214000D01*
X614160Y1819216D02*
X666001D01*
X531963Y1339897D02*
X547063Y1339102D01*
X531963Y1339897D02*
X531963D01*
X530000Y1340000D02*
X531963Y1339897D01*
X547063Y1339102D02*
X550000Y1341745D01*
X549000Y1339000D02*
X550000Y1340000D01*
Y1343490D01*
X643880Y1437370D01*
X530000Y1712000D02*
X543810Y1698190D01*
Y1530210D02*
Y1698190D01*
X532000Y1518400D02*
X543810Y1530210D01*
X418000Y1665000D02*
X419413Y1663587D01*
X490208D01*
X496160Y1669538D01*
Y1678160D01*
X530000Y1712000D01*
X367552Y1621448D02*
X399898D01*
X417519Y1639069D01*
X422053D01*
X431517Y1648532D01*
X399000Y1742000D02*
X448000Y1791000D01*
X614612Y1800331D02*
X671081D01*
X452816Y2107184D02*
X458000Y2102000D01*
X460513Y2099487D01*
X612514Y1802429D02*
X614612Y1800331D01*
X706500Y1375782D02*
X708000Y1374282D01*
X448000Y1791000D02*
X598000D01*
D40*
X363890Y2166247D02*
Y2166546D01*
X357000Y2009000D02*
Y2159357D01*
X363890Y2166247D01*
Y2166546D02*
X364071Y2166727D01*
X366076D02*
X376269Y2176920D01*
X377000D01*
X364071Y2166727D02*
X366076D01*
X377000Y2182000D02*
X564000D01*
X461301Y1999323D02*
X462877D01*
X458000Y2107184D02*
Y2139081D01*
Y2102000D02*
Y2107184D01*
X374460Y2179460D02*
X377000Y2182000D01*
X722000Y2047791D02*
Y2197142D01*
X691000Y2203000D02*
X716142D01*
X722000Y2197142D01*
X670209Y1996000D02*
X722000Y2047791D01*
X400688Y1551000D02*
X469688Y1620000D01*
X532000D01*
X340000Y1551000D02*
X400688D01*
X340000Y1620000D02*
X399000Y1679000D01*
X462877Y1999323D02*
X489623Y1972576D01*
X399000Y1679000D02*
Y1742000D01*
Y1811812D01*
X452816Y2107184D02*
X458000D01*
X564000Y2182000D02*
X586000Y2160000D01*
X489623Y1902435D02*
Y1972576D01*
X460513Y2077509D02*
Y2099487D01*
X458000Y2139081D02*
X485560Y2166641D01*
X462089Y2000110D02*
Y2063424D01*
X399000Y1811812D02*
X489623Y1902435D01*
X655710Y1950081D02*
X687000Y1918791D01*
X616000Y1203000D02*
X687000Y1274000D01*
Y1918791D01*
X586000Y2087000D02*
X626000Y2047000D01*
X586000Y2087000D02*
Y2160000D01*
X626000Y2047000D02*
X655710Y2017290D01*
X655710Y1950081D02*
Y2001919D01*
X655710Y2001919D02*
Y2017290D01*
X655710Y2001919D02*
X655710Y2001919D01*
X670000Y1996000D02*
X670209D01*
X716000Y1950209D01*
Y1385282D02*
Y1950209D01*
X706500Y1375782D02*
X716000Y1385282D01*
X682000Y2194000D02*
X691000Y2203000D01*
X708000Y1196463D02*
Y1374282D01*
X678148Y2186148D02*
Y2206061D01*
X708000Y1196463D02*
X724040Y1180423D01*
X599209Y2285000D02*
X678148Y2206061D01*
X724040Y1157177D02*
Y1180423D01*
X530858Y2285000D02*
X599209D01*
X719623Y1152760D02*
X724040Y1157177D01*
X708000Y1143402D02*
X717358Y1152760D01*
X719623D01*
X524670Y2278812D02*
X530858Y2285000D01*
X524670Y2264670D02*
Y2278812D01*
X708000Y1143400D02*
Y1143402D01*
X524000Y2264000D02*
X524670Y2264670D01*
X501209Y2287000D02*
X524000Y2264209D01*
X337858Y2287000D02*
X501209D01*
X332000Y2265231D02*
Y2281142D01*
X337858Y2287000D01*
X332000Y2265231D02*
X342472Y2254759D01*
Y2233812D02*
Y2254759D01*
Y2233812D02*
X343142Y2233142D01*
Y2232195D02*
Y2233142D01*
Y2232195D02*
X355000Y2220337D01*
Y2212000D02*
Y2220337D01*
X274000Y2131000D02*
X355000Y2212000D01*
X274000Y2070858D02*
Y2131000D01*
Y2070858D02*
X285858Y2059000D01*
X310791D01*
X274000Y2022209D02*
X310791Y2059000D01*
X311000D01*
X274000Y1887858D02*
Y2022209D01*
Y1887858D02*
X279858Y1882000D01*
X289858D01*
X294188Y1886330D01*
X305330D01*
X306000Y1887000D01*
X460513Y2065000D02*
X462089Y2063424D01*
X460513Y2065000D02*
Y2077509D01*
D42*
X340000Y1551000D02*
Y1620000D01*
Y1213600D02*
Y1551000D01*
Y1213600D02*
X465228Y1088372D01*
Y1033772D02*
Y1088372D01*
Y1033772D02*
X491800Y1007200D01*
X707000D01*
D45*
X670000Y2076000D02*
D03*
Y2036000D02*
D03*
Y2016000D02*
D03*
Y1976000D02*
D03*
Y1956000D02*
D03*
Y2096000D02*
D03*
Y1996000D02*
D03*
Y2056000D02*
D03*
X635574Y2228426D02*
D03*
X678000Y2186000D02*
D03*
X464000Y2264000D02*
D03*
X524000D02*
D03*
X300716Y2190716D02*
D03*
X343142Y2233142D02*
D03*
X311000Y1999000D02*
D03*
Y2059000D02*
D03*
X306000Y1767000D02*
D03*
Y1887000D02*
D03*
Y1787000D02*
D03*
Y1807000D02*
D03*
Y1827000D02*
D03*
Y1847000D02*
D03*
Y1867000D02*
D03*
X311000Y1959000D02*
D03*
X272432Y2162431D02*
D03*
X424000Y2264000D02*
D03*
X607289Y2256711D02*
D03*
X706284Y2157716D02*
D03*
X692142Y2171858D02*
D03*
X663858Y2200142D02*
D03*
X649716Y2214284D02*
D03*
X621431Y2242569D02*
D03*
X564000Y2264000D02*
D03*
X544000D02*
D03*
X504000D02*
D03*
X484000D02*
D03*
X444000D02*
D03*
X371426Y2261426D02*
D03*
X357284Y2247284D02*
D03*
X329000Y2219000D02*
D03*
X314858Y2204858D02*
D03*
X286574Y2176574D02*
D03*
X311000Y2099000D02*
D03*
Y2079000D02*
D03*
Y2039000D02*
D03*
Y2019000D02*
D03*
Y1979000D02*
D03*
X306000Y1907000D02*
D03*
D47*
X284000Y1266200D02*
D03*
Y1342400D02*
D03*
Y1367800D02*
D03*
Y1393200D02*
D03*
Y1444000D02*
D03*
Y1469400D02*
D03*
Y1520200D02*
D03*
Y1571000D02*
D03*
Y1596400D02*
D03*
Y1545600D02*
D03*
Y1494800D02*
D03*
Y1418600D02*
D03*
Y1317000D02*
D03*
Y1291600D02*
D03*
Y1240800D02*
D03*
Y1215400D02*
D03*
Y1190000D02*
D03*
Y1164600D02*
D03*
Y1139200D02*
D03*
X532000Y1493000D02*
D03*
Y1416800D02*
D03*
Y1391400D02*
D03*
Y1366000D02*
D03*
Y1315200D02*
D03*
Y1289800D02*
D03*
Y1239000D02*
D03*
Y1188200D02*
D03*
Y1162800D02*
D03*
Y1213600D02*
D03*
Y1264400D02*
D03*
Y1340600D02*
D03*
Y1442200D02*
D03*
Y1467600D02*
D03*
Y1518400D02*
D03*
Y1543800D02*
D03*
Y1569200D02*
D03*
Y1594600D02*
D03*
Y1620000D02*
D03*
D48*
X284000Y1621800D02*
D03*
X532000Y1137400D02*
D03*
D49*
X707000Y1032600D02*
D03*
Y1007200D02*
D03*
X708000Y1143400D02*
D03*
Y1118000D02*
D03*
D50*
Y1168800D02*
D03*
X707000Y1058000D02*
D03*
D54*
X633520Y406850D02*
D03*
X283420Y958850D02*
D03*
D55*
Y324650D02*
D03*
D56*
X458470Y406850D02*
D03*
Y958850D02*
D03*
D57*
X350000Y2172000D02*
D03*
X368890Y2214000D02*
D03*
X377000Y2176920D02*
D03*
X613147Y1652016D02*
D03*
X666001Y1819216D02*
D03*
X418000Y1665000D02*
D03*
X367552Y1621448D02*
D03*
X431517Y1648532D02*
D03*
X491000Y1646000D02*
D03*
X456000Y1628000D02*
D03*
X506320Y1670320D02*
D03*
X486000Y1673747D02*
D03*
X459760Y1826913D02*
D03*
X399000Y1742000D02*
D03*
X671081Y1800331D02*
D03*
X459966Y2160689D02*
D03*
X500679Y2077509D02*
D03*
X396270Y2099213D02*
D03*
X452816Y2107184D02*
D03*
X475979Y2053000D02*
D03*
X393035Y1873621D02*
D03*
X486000Y2126000D02*
D03*
X586000Y2160000D02*
D03*
X485560Y2166641D02*
D03*
X462089Y2000110D02*
D03*
X626000Y2047000D02*
D03*
X614160Y1819216D02*
D03*
X612514Y1802429D02*
D03*
X594327Y1948953D02*
D03*
X530000Y1712000D02*
D03*
X373095Y2120845D02*
D03*
X407627Y2014991D02*
D03*
X357000Y2009000D02*
D03*
X598000Y1791000D02*
D03*
D58*
X711000Y1393000D02*
D03*
Y1432370D02*
D03*
X639880D02*
D03*
Y1393000D02*
D03*
X616000Y1203000D02*
D03*
X305000Y1088000D02*
D03*
D59*
X714000Y685000D02*
D03*
X715000Y273000D02*
D03*
X278000D02*
D03*
X273000Y2287000D02*
D03*
X716000D02*
D03*
M02*
