G04*
G04 #@! TF.GenerationSoftware,Altium Limited,Altium Designer,22.11.1 (43)*
G04*
G04 Layer_Physical_Order=2*
G04 Layer_Color=16711680*
%FSLAX44Y44*%
%MOMM*%
G71*
G04*
G04 #@! TF.SameCoordinates,85B5D84A-ABF2-449B-B7EE-03817192F5BC*
G04*
G04*
G04 #@! TF.FilePolarity,Positive*
G04*
G01*
G75*
%ADD13C,0.2540*%
%ADD53R,1.5500X1.5500*%
%ADD54C,1.5500*%
%ADD55C,1.3500*%
%ADD56R,1.3500X1.3500*%
%ADD57C,1.2700*%
G36*
X191770Y172720D02*
X194310Y170180D01*
X222175D01*
Y86285D01*
X220980Y85090D01*
X3885D01*
Y168985D01*
X6350Y171450D01*
X36830D01*
Y493722D01*
X37292Y494024D01*
X38100Y494210D01*
X90437Y441873D01*
X89966Y440118D01*
Y437777D01*
X90572Y435516D01*
X91743Y433489D01*
X93398Y431833D01*
X95425Y430663D01*
X97686Y430057D01*
X100027D01*
X102288Y430663D01*
X104315Y431833D01*
X105970Y433489D01*
X107141Y435516D01*
X107746Y437777D01*
Y440118D01*
X107628Y440560D01*
X108453Y441520D01*
X134403D01*
X137979Y437943D01*
X139240Y437101D01*
X140726Y436805D01*
X164697D01*
X165606Y435231D01*
X167261Y433576D01*
X169289Y432406D01*
X171550Y431800D01*
X173890D01*
X176151Y432406D01*
X178179Y433576D01*
X179834Y435231D01*
X181004Y437259D01*
X181610Y439520D01*
Y441860D01*
X181004Y444121D01*
X179834Y446149D01*
X178179Y447804D01*
X176151Y448974D01*
X173890Y449580D01*
X171550D01*
X169289Y448974D01*
X167261Y447804D01*
X165606Y446149D01*
X164697Y444575D01*
X142335D01*
X138759Y448151D01*
X137499Y448993D01*
X136012Y449289D01*
X106768D01*
X105281Y448993D01*
X104021Y448151D01*
X102803Y446934D01*
X102288Y447231D01*
X100027Y447837D01*
X97686D01*
X95930Y447367D01*
X44525Y498773D01*
Y585569D01*
X45457Y586107D01*
X45795Y586138D01*
X47950Y585561D01*
X50291D01*
X51368Y585849D01*
X71382Y565835D01*
Y561003D01*
X71678Y559516D01*
X72520Y558256D01*
X97583Y533193D01*
X98843Y532351D01*
X100330Y532055D01*
X120247D01*
X121156Y530481D01*
X122811Y528826D01*
X124839Y527656D01*
X127100Y527050D01*
X129440D01*
X131701Y527656D01*
X133729Y528826D01*
X135384Y530481D01*
X136554Y532509D01*
X137160Y534770D01*
Y537110D01*
X136554Y539371D01*
X135384Y541399D01*
X133729Y543054D01*
X131701Y544224D01*
X129440Y544830D01*
X127100D01*
X124839Y544224D01*
X122811Y543054D01*
X121156Y541399D01*
X120247Y539825D01*
X101939D01*
X79152Y562612D01*
Y567444D01*
X78856Y568930D01*
X78014Y570191D01*
X57324Y590880D01*
X57404Y591019D01*
X57693Y592096D01*
X59110Y592476D01*
X63604Y587982D01*
X64864Y587140D01*
X66350Y586844D01*
X68455D01*
X69941Y587140D01*
X71202Y587982D01*
X77825Y594605D01*
X78012D01*
X79499Y594901D01*
X79889Y595162D01*
X80365D01*
X81852Y595458D01*
X83112Y596300D01*
X84162Y597350D01*
X85469Y596596D01*
X87730Y595990D01*
X90070D01*
X92331Y596596D01*
X94359Y597766D01*
X96014Y599421D01*
X97184Y601449D01*
X97790Y603710D01*
Y606050D01*
X97184Y608311D01*
X96014Y610339D01*
X94359Y611994D01*
X92331Y613164D01*
X90070Y613770D01*
X87730D01*
X85469Y613164D01*
X83441Y611994D01*
X81786Y610339D01*
X80616Y608311D01*
X80010Y606050D01*
Y604185D01*
X78756Y602931D01*
X78569D01*
X77082Y602635D01*
X76691Y602374D01*
X76216D01*
X74729Y602079D01*
X73469Y601236D01*
X67403Y595170D01*
X62979Y599594D01*
X62869Y600146D01*
X62027Y601406D01*
X56076Y607357D01*
X54815Y608200D01*
X53329Y608495D01*
X42128D01*
X40641Y608200D01*
X39381Y607357D01*
X38003Y605980D01*
X36830Y606466D01*
Y786055D01*
X191770D01*
Y172720D01*
D02*
G37*
%LPC*%
G36*
X54792Y716489D02*
Y708896D01*
X62386D01*
X61807Y711057D01*
X60636Y713084D01*
X58981Y714739D01*
X56954Y715910D01*
X54792Y716489D01*
D02*
G37*
G36*
X52252D02*
X50091Y715910D01*
X48064Y714739D01*
X46409Y713084D01*
X45238Y711057D01*
X44659Y708896D01*
X52252D01*
Y716489D01*
D02*
G37*
G36*
X62386Y706356D02*
X54792D01*
Y698762D01*
X56954Y699341D01*
X58981Y700512D01*
X60636Y702167D01*
X61807Y704194D01*
X62386Y706356D01*
D02*
G37*
G36*
X52252D02*
X44659D01*
X45238Y704194D01*
X46409Y702167D01*
X48064Y700512D01*
X50091Y699341D01*
X52252Y698762D01*
Y706356D01*
D02*
G37*
G36*
X91975Y664210D02*
X89635D01*
X87374Y663604D01*
X85346Y662434D01*
X83691Y660779D01*
X82521Y658751D01*
X81915Y656490D01*
Y654150D01*
X82521Y651889D01*
X83691Y649861D01*
X85346Y648206D01*
X87374Y647036D01*
X89635Y646430D01*
X91975D01*
X94232Y647035D01*
X134081Y607185D01*
X135342Y606343D01*
X136828Y606047D01*
X163050D01*
X163958Y604473D01*
X165613Y602818D01*
X167641Y601647D01*
X169902Y601042D01*
X172243D01*
X174503Y601647D01*
X176531Y602818D01*
X178186Y604473D01*
X179356Y606500D01*
X179962Y608761D01*
Y611102D01*
X179356Y613363D01*
X178186Y615390D01*
X176531Y617046D01*
X174503Y618216D01*
X172243Y618822D01*
X169902D01*
X167641Y618216D01*
X165613Y617046D01*
X163958Y615390D01*
X163050Y613816D01*
X138437D01*
X99359Y652895D01*
X99695Y654150D01*
Y656490D01*
X99089Y658751D01*
X97919Y660779D01*
X96264Y662434D01*
X94236Y663604D01*
X91975Y664210D01*
D02*
G37*
G36*
X138710Y511783D02*
Y504190D01*
X146303D01*
X145724Y506351D01*
X144553Y508379D01*
X142898Y510034D01*
X140871Y511204D01*
X138710Y511783D01*
D02*
G37*
G36*
X146303Y501650D02*
X138710D01*
Y494057D01*
X140871Y494636D01*
X142898Y495806D01*
X144553Y497461D01*
X145724Y499489D01*
X146303Y501650D01*
D02*
G37*
G36*
X136170Y511783D02*
X134008Y511204D01*
X131981Y510034D01*
X130326Y508379D01*
X129640Y507191D01*
X85686D01*
X84199Y506895D01*
X82939Y506053D01*
X76798Y499913D01*
X75956Y498652D01*
X75660Y497166D01*
Y495232D01*
X74930Y494502D01*
Y486410D01*
X82523D01*
X81944Y488571D01*
X81228Y489812D01*
X82292Y490877D01*
X83134Y492137D01*
X83430Y493623D01*
Y495557D01*
X87295Y499422D01*
X129194D01*
X130326Y497461D01*
X131981Y495806D01*
X134008Y494636D01*
X136170Y494057D01*
Y502920D01*
Y511783D01*
D02*
G37*
G36*
X72390Y494003D02*
X70229Y493424D01*
X68201Y492254D01*
X66546Y490599D01*
X65376Y488571D01*
X64797Y486410D01*
X72390D01*
Y494003D01*
D02*
G37*
G36*
X82523Y483870D02*
X74930D01*
Y476277D01*
X77091Y476856D01*
X79119Y478026D01*
X80774Y479681D01*
X81944Y481709D01*
X82523Y483870D01*
D02*
G37*
G36*
X72390D02*
X64797D01*
X65376Y481709D01*
X66546Y479681D01*
X68201Y478026D01*
X70229Y476856D01*
X72390Y476277D01*
Y483870D01*
D02*
G37*
G36*
X19135Y165230D02*
X16425D01*
X13808Y164529D01*
X11462Y163174D01*
X9546Y161258D01*
X8191Y158912D01*
X7490Y156295D01*
Y153585D01*
X8191Y150968D01*
X9546Y148622D01*
X11462Y146706D01*
X13808Y145351D01*
X16425Y144650D01*
X19135D01*
X21752Y145351D01*
X24098Y146706D01*
X26014Y148622D01*
X27369Y150968D01*
X28070Y153585D01*
Y156295D01*
X27369Y158912D01*
X26014Y161258D01*
X24098Y163174D01*
X21752Y164529D01*
X19135Y165230D01*
D02*
G37*
G36*
Y139830D02*
X19050D01*
Y130810D01*
X28070D01*
Y130895D01*
X27369Y133512D01*
X26014Y135858D01*
X24098Y137774D01*
X21752Y139129D01*
X19135Y139830D01*
D02*
G37*
G36*
X96200Y138817D02*
Y130810D01*
X104207D01*
X103587Y133126D01*
X102364Y135244D01*
X100634Y136974D01*
X98516Y138197D01*
X96200Y138817D01*
D02*
G37*
G36*
X93660D02*
X91344Y138197D01*
X89226Y136974D01*
X87496Y135244D01*
X86273Y133126D01*
X85653Y130810D01*
X93660D01*
Y138817D01*
D02*
G37*
G36*
X16510Y139830D02*
X16425D01*
X13808Y139129D01*
X11462Y137774D01*
X9546Y135858D01*
X8191Y133512D01*
X7490Y130895D01*
Y130810D01*
X16510D01*
Y139830D01*
D02*
G37*
G36*
X104207Y128270D02*
X96200D01*
Y120263D01*
X98516Y120883D01*
X100634Y122106D01*
X102364Y123836D01*
X103587Y125954D01*
X104207Y128270D01*
D02*
G37*
G36*
X93660D02*
X85653D01*
X86273Y125954D01*
X87496Y123836D01*
X89226Y122106D01*
X91344Y120883D01*
X93660Y120263D01*
Y128270D01*
D02*
G37*
G36*
X196153Y138830D02*
X193707D01*
X191344Y138197D01*
X189226Y136974D01*
X187496Y135244D01*
X186273Y133126D01*
X185640Y130763D01*
Y128317D01*
X186273Y125954D01*
X187496Y123836D01*
X189226Y122106D01*
X191344Y120883D01*
X193707Y120250D01*
X196153D01*
X198516Y120883D01*
X200634Y122106D01*
X202364Y123836D01*
X203587Y125954D01*
X204220Y128317D01*
Y130763D01*
X203587Y133126D01*
X202364Y135244D01*
X200634Y136974D01*
X198516Y138197D01*
X196153Y138830D01*
D02*
G37*
G36*
X176153D02*
X173707D01*
X171344Y138197D01*
X169226Y136974D01*
X167496Y135244D01*
X166273Y133126D01*
X165640Y130763D01*
Y128317D01*
X166273Y125954D01*
X167496Y123836D01*
X169226Y122106D01*
X171344Y120883D01*
X173707Y120250D01*
X176153D01*
X178516Y120883D01*
X180634Y122106D01*
X182364Y123836D01*
X183587Y125954D01*
X184220Y128317D01*
Y130763D01*
X183587Y133126D01*
X182364Y135244D01*
X180634Y136974D01*
X178516Y138197D01*
X176153Y138830D01*
D02*
G37*
G36*
X156153D02*
X153707D01*
X151344Y138197D01*
X149226Y136974D01*
X147496Y135244D01*
X146273Y133126D01*
X145640Y130763D01*
Y128317D01*
X146273Y125954D01*
X147496Y123836D01*
X149226Y122106D01*
X151344Y120883D01*
X153707Y120250D01*
X156153D01*
X158516Y120883D01*
X160634Y122106D01*
X162364Y123836D01*
X163587Y125954D01*
X164220Y128317D01*
Y130763D01*
X163587Y133126D01*
X162364Y135244D01*
X160634Y136974D01*
X158516Y138197D01*
X156153Y138830D01*
D02*
G37*
G36*
X136153D02*
X133707D01*
X131344Y138197D01*
X129226Y136974D01*
X127496Y135244D01*
X126273Y133126D01*
X125640Y130763D01*
Y128317D01*
X126273Y125954D01*
X127496Y123836D01*
X129226Y122106D01*
X131344Y120883D01*
X133707Y120250D01*
X136153D01*
X138516Y120883D01*
X140634Y122106D01*
X142364Y123836D01*
X143587Y125954D01*
X144220Y128317D01*
Y130763D01*
X143587Y133126D01*
X142364Y135244D01*
X140634Y136974D01*
X138516Y138197D01*
X136153Y138830D01*
D02*
G37*
G36*
X116153D02*
X113707D01*
X111344Y138197D01*
X109226Y136974D01*
X107496Y135244D01*
X106273Y133126D01*
X105640Y130763D01*
Y128317D01*
X106273Y125954D01*
X107496Y123836D01*
X109226Y122106D01*
X111344Y120883D01*
X113707Y120250D01*
X116153D01*
X118516Y120883D01*
X120634Y122106D01*
X122364Y123836D01*
X123587Y125954D01*
X124220Y128317D01*
Y130763D01*
X123587Y133126D01*
X122364Y135244D01*
X120634Y136974D01*
X118516Y138197D01*
X116153Y138830D01*
D02*
G37*
G36*
X76153D02*
X73707D01*
X71344Y138197D01*
X69226Y136974D01*
X67496Y135244D01*
X66273Y133126D01*
X65640Y130763D01*
Y128317D01*
X66273Y125954D01*
X67496Y123836D01*
X69226Y122106D01*
X71344Y120883D01*
X73707Y120250D01*
X76153D01*
X78516Y120883D01*
X80634Y122106D01*
X82364Y123836D01*
X83587Y125954D01*
X84220Y128317D01*
Y130763D01*
X83587Y133126D01*
X82364Y135244D01*
X80634Y136974D01*
X78516Y138197D01*
X76153Y138830D01*
D02*
G37*
G36*
X64220D02*
X45640D01*
Y120250D01*
X64220D01*
Y138830D01*
D02*
G37*
G36*
X28070Y128270D02*
X19050D01*
Y119250D01*
X19135D01*
X21752Y119951D01*
X24098Y121306D01*
X26014Y123222D01*
X27369Y125568D01*
X28070Y128185D01*
Y128270D01*
D02*
G37*
G36*
X16510D02*
X7490D01*
Y128185D01*
X8191Y125568D01*
X9546Y123222D01*
X11462Y121306D01*
X13808Y119951D01*
X16425Y119250D01*
X16510D01*
Y128270D01*
D02*
G37*
G36*
X28070Y114430D02*
X7490D01*
Y93850D01*
X28070D01*
Y114430D01*
D02*
G37*
%LPD*%
D13*
X90805Y655320D02*
X91440D01*
X136828Y609932D01*
X85686Y503306D02*
X137053D01*
X137440Y502920D01*
X79545Y497166D02*
X85686Y503306D01*
X136012Y445404D02*
X140726Y440690D01*
X172720D01*
X106768Y445404D02*
X136012D01*
X100311Y438947D02*
X106768Y445404D01*
X75267Y561003D02*
Y567444D01*
Y561003D02*
X100330Y535940D01*
X128270D01*
X49120Y593590D02*
X75267Y567444D01*
X49120Y593590D02*
Y594451D01*
X40640Y497164D02*
X98856Y438947D01*
X40640Y497164D02*
Y588563D01*
X73660Y487738D02*
X79545Y493623D01*
X73660Y485140D02*
Y487738D01*
X98856Y438947D02*
X100311D01*
X136828Y609932D02*
X171072D01*
X38960Y590242D02*
X40640Y588563D01*
X38960Y601443D02*
X42128Y604611D01*
X66350Y590728D02*
X68455D01*
X38960Y590242D02*
Y601443D01*
X59280Y597799D02*
X66350Y590728D01*
X42128Y604611D02*
X53329D01*
X59280Y597799D02*
Y598659D01*
X53329Y604611D02*
X59280Y598659D01*
X68455Y590728D02*
X76216Y598490D01*
X78012D02*
X78569Y599047D01*
X86198Y604880D02*
X88900D01*
X78569Y599047D02*
X80365D01*
X86198Y604880D01*
X76216Y598490D02*
X78012D01*
X79545Y493623D02*
Y497166D01*
X0Y0D02*
X220980D01*
X0D02*
X220980D01*
X0Y1270D02*
X226060D01*
X0Y789940D02*
X226060D01*
Y1270D02*
Y789940D01*
X0Y1270D02*
Y789940D01*
X1270Y1270D02*
X222250D01*
X1270Y71120D02*
X222250D01*
Y1270D02*
Y71120D01*
X1270Y1270D02*
Y71120D01*
D53*
X17780Y104140D02*
D03*
D54*
Y129540D02*
D03*
Y154940D02*
D03*
D55*
X194930Y129540D02*
D03*
X174930D02*
D03*
X154930D02*
D03*
X134930D02*
D03*
X114930D02*
D03*
X94930D02*
D03*
X74930D02*
D03*
D56*
X54930D02*
D03*
D57*
X90805Y655320D02*
D03*
X137440Y502920D02*
D03*
X172720Y440690D02*
D03*
X98856Y438947D02*
D03*
X73660Y485140D02*
D03*
X171072Y609932D02*
D03*
X53522Y707626D02*
D03*
X49120Y594451D02*
D03*
X128270Y535940D02*
D03*
X88900Y604880D02*
D03*
M02*
