G04*
G04 #@! TF.GenerationSoftware,Altium Limited,Altium Designer,22.11.1 (43)*
G04*
G04 Layer_Color=8388736*
%FSLAX44Y44*%
%MOMM*%
G71*
G04*
G04 #@! TF.SameCoordinates,85B5D84A-ABF2-449B-B7EE-03817192F5BC*
G04*
G04*
G04 #@! TF.FilePolarity,Negative*
G04*
G01*
G75*
%ADD22R,1.1500X1.1500*%
%ADD23R,1.0121X1.2084*%
%ADD25R,0.5000X0.4000*%
%ADD29R,0.4000X0.5000*%
%ADD31R,0.5721X1.5739*%
G04:AMPARAMS|DCode=32|XSize=1.5739mm|YSize=0.5721mm|CornerRadius=0.2861mm|HoleSize=0mm|Usage=FLASHONLY|Rotation=270.000|XOffset=0mm|YOffset=0mm|HoleType=Round|Shape=RoundedRectangle|*
%AMROUNDEDRECTD32*
21,1,1.5739,0.0000,0,0,270.0*
21,1,1.0018,0.5721,0,0,270.0*
1,1,0.5721,0.0000,-0.5009*
1,1,0.5721,0.0000,0.5009*
1,1,0.5721,0.0000,0.5009*
1,1,0.5721,0.0000,-0.5009*
%
%ADD32ROUNDEDRECTD32*%
%ADD33R,2.0532X1.6532*%
%ADD34R,0.9032X1.0032*%
%ADD35R,0.7532X1.0032*%
%ADD36R,2.8032X1.2032*%
%ADD37R,1.6532X2.0532*%
%ADD38R,1.1032X1.0032*%
%ADD39R,1.6532X1.2532*%
%ADD40R,1.2032X2.8032*%
%ADD41R,1.7032X0.8032*%
%ADD42R,1.7532X1.6032*%
%ADD43R,1.6032X1.7532*%
%ADD44R,1.7532X1.7532*%
%ADD45C,1.7532*%
%ADD46C,1.5532*%
%ADD47R,1.5532X1.5532*%
%ADD48C,1.4732*%
D22*
X63500Y687390D02*
D03*
Y663890D02*
D03*
D23*
X114300Y731919D02*
D03*
Y715881D02*
D03*
D25*
X166370Y502730D02*
D03*
Y510730D02*
D03*
D29*
X144590Y551180D02*
D03*
X152590D02*
D03*
D31*
X84430Y425414D02*
D03*
Y358067D02*
D03*
D32*
X65430Y425414D02*
D03*
X74930Y407706D02*
D03*
X65430Y358067D02*
D03*
X74930Y340360D02*
D03*
D33*
X72390Y539510D02*
D03*
Y509510D02*
D03*
X152400Y626350D02*
D03*
Y656350D02*
D03*
X125730Y656830D02*
D03*
Y686830D02*
D03*
X149860Y605790D02*
D03*
Y575790D02*
D03*
D34*
X144870Y746120D02*
D03*
X154870D02*
D03*
D35*
X134620Y706120D02*
D03*
X165120D02*
D03*
D36*
X90170Y671030D02*
D03*
Y698030D02*
D03*
X124460Y603250D02*
D03*
Y630250D02*
D03*
D37*
X91200Y725170D02*
D03*
X61200D02*
D03*
X123190Y586740D02*
D03*
X93190D02*
D03*
D38*
X80330Y640690D02*
D03*
Y621690D02*
D03*
X100330Y631190D02*
D03*
D39*
X64770Y584200D02*
D03*
Y602700D02*
D03*
D40*
X69520Y562610D02*
D03*
X96520D02*
D03*
D41*
X150690Y449580D02*
D03*
Y462280D02*
D03*
Y474980D02*
D03*
Y487680D02*
D03*
Y500380D02*
D03*
Y513080D02*
D03*
Y525780D02*
D03*
Y538480D02*
D03*
X95690Y449580D02*
D03*
Y462280D02*
D03*
Y474980D02*
D03*
Y487680D02*
D03*
Y500380D02*
D03*
Y513080D02*
D03*
Y525780D02*
D03*
Y538480D02*
D03*
D42*
X171450Y573380D02*
D03*
Y554380D02*
D03*
D43*
X111150Y558800D02*
D03*
X130150D02*
D03*
D44*
X17780Y104140D02*
D03*
D45*
Y129540D02*
D03*
Y154940D02*
D03*
D46*
X194930Y129540D02*
D03*
X174930D02*
D03*
X154930D02*
D03*
X134930D02*
D03*
X114930D02*
D03*
X94930D02*
D03*
X74930D02*
D03*
D47*
X54930D02*
D03*
D48*
X90805Y655320D02*
D03*
X137440Y502920D02*
D03*
X172720Y440690D02*
D03*
X98856Y438947D02*
D03*
X73660Y485140D02*
D03*
X171072Y609932D02*
D03*
X53522Y707626D02*
D03*
X49120Y594451D02*
D03*
X128270Y535940D02*
D03*
X88900Y604880D02*
D03*
M02*
