M48
;Layer_Color=9474304
;FILE_FORMAT=2:4
METRIC,LZ
;TYPE=PLATED
T1F00S00C0.7112
T2F00S00C0.9000
T3F00S00C1.0200
%
T01
X098856Y438947
X07366Y48514
X13744Y50292
X12827Y53594
X0889Y60488
X04912Y594451
X090805Y65532
X053522Y707626
X171072Y609932
X17272Y44069
T02
X05493Y12954
X07493
X09493
X11493
X13493
X15493
X17493
X19493
T03
X01778Y10414
Y12954
Y15494
M30
